<?xml version="1.0"?>
<!DOCTYPE svg PUBLIC '-//W3C//DTD SVG 1.0//EN'
    'http://www.w3.org/TR/2001/REC-SVG-20010904/DTD/svg10.dtd' >

<svg fill-opacity="1" xmlns:xlink="http://www.w3.org/1999/xlink"
     color-rendering="auto" color-interpolation="auto" text-rendering="auto"
     stroke="black" stroke-linecap="square" stroke-miterlimit="10"
     shape-rendering="auto" stroke-opacity="1" fill="black"
     stroke-dasharray="none" font-weight="normal" stroke-width="1"
     xmlns="http://www.w3.org/2000/svg" font-family="&apos;Dialog&apos;"
     font-style="normal" stroke-linejoin="miter" font-size="12"
     stroke-dashoffset="0" image-rendering="auto">
    <!--Generated by the Batik Graphics2D SVG Generator-->
    <defs id="genericDefs"/>
    <g>
        <g fill="white" stroke="white">
            <rect x="0" width="2835" height="2050" y="0" stroke="none"/>
            <path fill="black"
                  d="M32 390.6242 L226 390.6242 L226 400.2692 L32 400.2692 Z"
                  stroke="none"/>
        </g>
        <g font-family="&apos;Arial&apos;" font-size="39">
            <text x="48.2252" xml:space="preserve" y="322.1363" stroke="none"></text>
            <path fill="rgb(141,211,199)"
                  d="M208.9759 310.2489 A64.3003 64.3003 0 0 0 102.3461 261.8471L 144.6756 310.2489 Z"
                  stroke-width="3.215" stroke="none"/>
            <path fill="none" stroke-width="3.215"
                  d="M208.9759 310.2489 A64.3003 64.3003 0 0 0 102.3461 261.8471L 144.6756 310.2489 Z"/>
            <path fill="rgb(255,255,179)"
                  d="M102.3461 261.8471 A64.3003 64.3003 0 0 0 86.0834 283.7635L 144.6756 310.2489 Z"
                  stroke-width="3.215" stroke="none"/>
            <path fill="none" stroke-width="3.215"
                  d="M102.3461 261.8471 A64.3003 64.3003 0 0 0 86.0834 283.7635L 144.6756 310.2489 Z"/>
            <path fill="rgb(190,186,218)"
                  d="M86.0834 283.7635 A64.3003 64.3003 0 0 0 103.2668 359.4407L 144.6756 310.2489 Z"
                  stroke-width="3.215" stroke="none"/>
            <path fill="none" stroke-width="3.215"
                  d="M86.0834 283.7635 A64.3003 64.3003 0 0 0 103.2668 359.4407L 144.6756 310.2489 Z"/>
            <path fill="rgb(251,128,114)"
                  d="M103.2668 359.4407 A64.3003 64.3003 0 0 0 208.9759 310.2489L 144.6756 310.2489 Z"
                  stroke-width="3.215" stroke="none"/>
            <path fill="none" stroke-width="3.215"
                  d="M103.2668 359.4407 A64.3003 64.3003 0 0 0 208.9759 310.2489L 144.6756 310.2489 Z"/>
            <circle fill="none" stroke-width="3.215" r="64.3003" cx="144.6756"
                    cy="310.2489"/>
            <text x="56.4595" xml:space="preserve" y="217.6483" stroke="none">A 0.364</text><text x="53.874"
                  xml:space="preserve" y="169.4231" stroke="none">C 0.068</text><text x="56.3471"
                  xml:space="preserve" y="121.1979" stroke="none">E 0.206</text><text x="57.415"
                  xml:space="preserve" y="72.9727" stroke="none">M 0.361</text><path fill="none"
                  d="M250 170.4397 L249.1636 170.4397 L244.3411 170.4397 C236.3509 170.4397 229.8735 176.9171 229.8735 184.9073 L229.8735 194.5523 L229.8735 586.6962 L229.8735 596.3412 C229.8735 604.3314 236.3509 610.8088 244.3411 610.8088 L249.1636 610.8088 L250 610.8088"
                  stroke-width="9.645" stroke-linecap="butt"
                  stroke-linejoin="bevel"/>
            <path d="M249.1636 165.6172 L2483.5984 165.6172 L2483.5984 175.2622 L249.1636 175.2622 Z"
                  stroke="none"/>
            <text font-style="italic" x="2499.6736" xml:space="preserve"
                  font-size="64" y="188.252" stroke="none">outgroup</text><path d="M249.1636 605.9862 L443 605.9862 L443 615.6312 L249.1636 615.6312 Z"
                  stroke="none"/>
            <text x="265.2387" xml:space="preserve" y="537.4983" stroke="none"></text>
            <path fill="rgb(141,211,199)"
                  d="M425.9894 525.6109 A64.3003 64.3003 0 0 0 311.6338 485.2501L 361.6891 525.6109 Z"
                  stroke-width="3.215" stroke="none"/>
            <path fill="none" stroke-width="3.215"
                  d="M425.9894 525.6109 A64.3003 64.3003 0 0 0 311.6338 485.2501L 361.6891 525.6109 Z"/>
            <path fill="rgb(255,255,179)"
                  d="M311.6338 485.2501 A64.3003 64.3003 0 0 0 304.9575 495.3445L 361.6891 525.6109 Z"
                  stroke-width="3.215" stroke="none"/>
            <path fill="none" stroke-width="3.215"
                  d="M311.6338 485.2501 A64.3003 64.3003 0 0 0 304.9575 495.3445L 361.6891 525.6109 Z"/>
            <path fill="rgb(190,186,218)"
                  d="M304.9575 495.3445 A64.3003 64.3003 0 0 0 312.4034 566.9079L 361.6891 525.6109 Z"
                  stroke-width="3.215" stroke="none"/>
            <path fill="none" stroke-width="3.215"
                  d="M304.9575 495.3445 A64.3003 64.3003 0 0 0 312.4034 566.9079L 361.6891 525.6109 Z"/>
            <path fill="rgb(251,128,114)"
                  d="M312.4034 566.9079 A64.3003 64.3003 0 0 0 425.9894 525.6109L 361.6891 525.6109 Z"
                  stroke-width="3.215" stroke="none"/>
            <path fill="none" stroke-width="3.215"
                  d="M312.4034 566.9079 A64.3003 64.3003 0 0 0 425.9894 525.6109L 361.6891 525.6109 Z"/>
            <circle fill="none" stroke-width="3.215" r="64.3003" cx="361.6891"
                    cy="525.6109"/>
            <text x="273.5573" xml:space="preserve" y="433.0103" stroke="none">A 0.392</text><text x="270.9717"
                  xml:space="preserve" y="384.7851" stroke="none">C 0.030</text><text x="273.3324"
                  xml:space="preserve" y="336.5599" stroke="none">E 0.189</text><text x="271.4214"
                  xml:space="preserve" y="288.3347" stroke="none">M 0.389</text><path fill="none"
                  d="M467 260.4601 L466.177 260.4601 L461.3545 260.4601 C453.3643 260.4601 446.887 266.9375 446.887 274.9277 L446.887 284.5727 L446.887 937.0448 L446.887 946.6899 C446.887 954.6801 453.3643 961.1574 461.3545 961.1574 L466.177 961.1574 L467 961.1574"
                  stroke-width="9.645" stroke-linecap="butt"
                  stroke-linejoin="bevel"/>
            <path d="M466.1771 255.6376 L2483.5986 255.6376 L2483.5986 265.2826 L466.1771 265.2826 Z"
                  stroke="none"/>
            <text font-style="italic" x="2499.6736" xml:space="preserve"
                  font-size="64" y="278.2724" stroke="none">taxonI</text><path d="M466.1771 956.3349 L660 956.3349 L660 965.9799 L466.1771 965.9799 Z"
                  stroke="none"/>
            <text x="482.2521" xml:space="preserve" y="887.8469" stroke="none"></text>
            <path fill="rgb(141,211,199)"
                  d="M643.0029 875.9595 A64.3003 64.3003 0 0 0 561.4265 814.0236L 578.7026 875.9595 Z"
                  stroke-width="3.215" stroke="none"/>
            <path fill="none" stroke-width="3.215"
                  d="M643.0029 875.9595 A64.3003 64.3003 0 0 0 561.4265 814.0236L 578.7026 875.9595 Z"/>
            <path fill="rgb(255,255,179)"
                  d="M561.4265 814.0236 A64.3003 64.3003 0 0 0 543.7924 821.9613L 578.7026 875.9595 Z"
                  stroke-width="3.215" stroke="none"/>
            <path fill="none" stroke-width="3.215"
                  d="M561.4265 814.0236 A64.3003 64.3003 0 0 0 543.7924 821.9613L 578.7026 875.9595 Z"/>
            <path fill="rgb(190,186,218)"
                  d="M543.7924 821.9613 A64.3003 64.3003 0 0 0 558.3333 936.9482L 578.7026 875.9595 Z"
                  stroke-width="3.215" stroke="none"/>
            <path fill="none" stroke-width="3.215"
                  d="M543.7924 821.9613 A64.3003 64.3003 0 0 0 558.3333 936.9482L 578.7026 875.9595 Z"/>
            <path fill="rgb(251,128,114)"
                  d="M558.3333 936.9482 A64.3003 64.3003 0 0 0 643.0029 875.9595L 578.7026 875.9595 Z"
                  stroke-width="3.215" stroke="none"/>
            <path fill="none" stroke-width="3.215"
                  d="M558.3333 936.9482 A64.3003 64.3003 0 0 0 643.0029 875.9595L 578.7026 875.9595 Z"/>
            <circle fill="none" stroke-width="3.215" r="64.3003" cx="578.7026"
                    cy="875.9595"/>
            <text x="490.4302" xml:space="preserve" y="783.3589" stroke="none">A 0.293</text><text x="487.9009"
                  xml:space="preserve" y="735.1338" stroke="none">C 0.048</text><text x="490.374"
                  xml:space="preserve" y="686.9086" stroke="none">E 0.357</text><text x="491.4419"
                  xml:space="preserve" y="638.6833" stroke="none">M 0.301</text><path fill="none"
                  d="M684 635.0093 L683.1906 635.0093 L678.368 635.0093 C670.3778 635.0093 663.9005 641.4866 663.9005 649.4769 L663.9005 659.1219 L663.9005 1263.1929 L663.9005 1272.8379 C663.9005 1280.8281 670.3778 1287.3055 678.368 1287.3055 L683.1906 1287.3055 L684 1287.3055"
                  stroke-width="9.645" stroke-linecap="butt"
                  stroke-linejoin="bevel"/>
            <path d="M683.1906 630.1868 L2179 630.1868 L2179 639.8318 L683.1906 639.8318 Z"
                  stroke="none"/>
            <text x="1350.306" xml:space="preserve" y="561.6988" stroke="none"></text>
            <path fill="rgb(141,211,199)"
                  d="M1511.0567 549.8114 A64.3003 64.3003 0 1 0 1384.1998 564.6839L 1446.7565 549.8114 Z"
                  stroke-width="3.215" stroke="none"/>
            <path fill="none" stroke-width="3.215"
                  d="M1511.0567 549.8114 A64.3003 64.3003 0 1 0 1384.1998 564.6839L 1446.7565 549.8114 Z"/>
            <path fill="rgb(251,128,114)"
                  d="M1384.1998 564.6839 A64.3003 64.3003 0 0 0 1511.0567 549.8114L 1446.7565 549.8114 Z"
                  stroke-width="3.215" stroke="none"/>
            <path fill="none" stroke-width="3.215"
                  d="M1384.1998 564.6839 A64.3003 64.3003 0 0 0 1511.0567 549.8114L 1446.7565 549.8114 Z"/>
            <circle fill="none" stroke-width="3.215" r="64.3003" cx="1446.7565"
                    cy="549.8114"/>
            <text x="1358.3716" xml:space="preserve" y="457.2108" stroke="none">A 0.535</text><text x="1359.4957"
                  xml:space="preserve" y="408.9856" stroke="none">M 0.461</text><path fill="none"
                  d="M2203 567.494 L2202.2847 567.494 L2197.4622 567.494 C2189.4719 567.494 2182.9946 573.9713 2182.9946 581.9615 L2182.9946 591.6066 L2182.9946 678.412 L2182.9946 688.057 C2182.9946 696.0472 2189.4719 702.5245 2197.4622 702.5245 L2202.2847 702.5245 L2203 702.5245"
                  stroke-width="9.645" stroke-linecap="butt"
                  stroke-linejoin="bevel"/>
            <path d="M2202.2847 562.6714 L2396 562.6714 L2396 572.3165 L2202.2847 572.3165 Z"
                  stroke="none"/>
            <text x="2218.3599" xml:space="preserve" y="494.1835" stroke="none"></text>
            <path fill="rgb(141,211,199)"
                  d="M2379.1106 482.2961 A64.3003 64.3003 0 1 0 2250.5113 482.7001L 2314.8103 482.2961 Z"
                  stroke-width="3.215" stroke="none"/>
            <path fill="none" stroke-width="3.215"
                  d="M2379.1106 482.2961 A64.3003 64.3003 0 1 0 2250.5113 482.7001L 2314.8103 482.2961 Z"/>
            <path fill="rgb(251,128,114)"
                  d="M2250.5113 482.7001 A64.3003 64.3003 0 0 0 2379.1106 482.2961L 2314.8103 482.2961 Z"
                  stroke-width="3.215" stroke="none"/>
            <path fill="none" stroke-width="3.215"
                  d="M2250.5113 482.7001 A64.3003 64.3003 0 0 0 2379.1106 482.2961L 2314.8103 482.2961 Z"/>
            <circle fill="none" stroke-width="3.215" r="64.3003" cx="2314.8103"
                    cy="482.2961"/>
            <text x="2229.5168" xml:space="preserve" y="389.6955" stroke="none">A 0.501</text><text x="2224.5425"
                  xml:space="preserve" y="341.4703" stroke="none">M 0.499</text><path fill="none"
                  d="M2420 522.4838 L2419.2981 522.4838 L2414.4756 522.4838 C2406.4854 522.4838 2400.0081 528.9611 2400.0081 536.9514 L2400.0081 546.5964 L2400.0081 588.3916 L2400.0081 598.0366 C2400.0081 606.0268 2406.4854 612.5042 2414.4756 612.5042 L2419.2981 612.5042 L2420 612.5042"
                  stroke-width="9.645" stroke-linecap="butt"
                  stroke-linejoin="bevel"/>
            <path d="M2419.2983 517.6613 L2483.5986 517.6613 L2483.5986 527.3063 L2419.2983 527.3063 Z"
                  stroke="none"/>
            <text font-style="italic" x="2499.6736" xml:space="preserve"
                  font-size="64" y="540.2961" stroke="none">taxonL</text><path d="M2419.2983 607.6816 L2483.5986 607.6816 L2483.5986 617.3267 L2419.2983 617.3267 Z"
                  stroke="none"/>
            <text font-style="italic" x="2499.6736" xml:space="preserve"
                  font-size="64" y="630.3165" stroke="none">taxonM</text><path d="M2202.2847 697.702 L2483.5984 697.702 L2483.5984 707.347 L2202.2847 707.347 Z"
                  stroke="none"/>
            <text font-style="italic" x="2499.6736" xml:space="preserve"
                  font-size="64" y="720.3369" stroke="none">taxonA</text><path d="M683.1906 1282.4829 L877 1282.4829 L877 1292.1279 L683.1906 1292.1279 Z"
                  stroke="none"/>
            <text x="699.2656" xml:space="preserve" y="1213.995" stroke="none"></text>
            <path fill="rgb(141,211,199)"
                  d="M860.0163 1202.1075 A64.3003 64.3003 0 0 0 859.0914 1191.2407L 795.7161 1202.1075 Z"
                  stroke-width="3.215" stroke="none"/>
            <path fill="none" stroke-width="3.215"
                  d="M860.0163 1202.1075 A64.3003 64.3003 0 0 0 859.0914 1191.2407L 795.7161 1202.1075 Z"/>
            <path fill="rgb(255,255,179)"
                  d="M859.0914 1191.2407 A64.3003 64.3003 0 0 0 798.0409 1137.8493L 795.7161 1202.1075 Z"
                  stroke-width="3.215" stroke="none"/>
            <path fill="none" stroke-width="3.215"
                  d="M859.0914 1191.2407 A64.3003 64.3003 0 0 0 798.0409 1137.8493L 795.7161 1202.1075 Z"/>
            <path fill="rgb(190,186,218)"
                  d="M798.0409 1137.8493 A64.3003 64.3003 0 1 0 858.8751 1214.1681L 795.7161 1202.1075 Z"
                  stroke-width="3.215" stroke="none"/>
            <path fill="none" stroke-width="3.215"
                  d="M798.0409 1137.8493 A64.3003 64.3003 0 1 0 858.8751 1214.1681L 795.7161 1202.1075 Z"/>
            <path fill="rgb(251,128,114)"
                  d="M858.8751 1214.1681 A64.3003 64.3003 0 0 0 860.0163 1202.1075L 795.7161 1202.1075 Z"
                  stroke-width="3.215" stroke="none"/>
            <path fill="none" stroke-width="3.215"
                  d="M858.8751 1214.1681 A64.3003 64.3003 0 0 0 860.0163 1202.1075L 795.7161 1202.1075 Z"/>
            <circle fill="none" stroke-width="3.215" r="64.3003" cx="795.7161"
                    cy="1202.1075"/>
            <text x="707.4437" xml:space="preserve" y="1109.507" stroke="none">A 0.027</text><text x="704.9424"
                  xml:space="preserve" y="1061.2817" stroke="none">C 0.217</text><text x="707.275"
                  xml:space="preserve" y="1013.0566" stroke="none">E 0.725</text><text x="705.5327"
                  xml:space="preserve" y="964.8314" stroke="none">M 0.030</text><path fill="none"
                  d="M901 792.545 L900.204 792.545 L895.3815 792.545 C887.3912 792.545 880.9139 799.0223 880.9139 807.0126 L880.9139 816.6576 L880.9139 1757.9535 L880.9139 1767.5985 C880.9139 1775.5887 887.3912 1782.0662 895.3815 1782.0662 L900.204 1782.0662 L901 1782.0662"
                  stroke-width="9.645" stroke-linecap="butt"
                  stroke-linejoin="bevel"/>
            <path d="M900.204 787.7225 L2483.5986 787.7225 L2483.5986 797.3675 L900.204 797.3675 Z"
                  stroke="none"/>
            <text font-style="italic" x="2499.6736" xml:space="preserve"
                  font-size="64" y="810.3573" stroke="none">taxonB</text><path d="M900.204 1777.2435 L1094 1777.2435 L1094 1786.8885 L900.204 1786.8885 Z"
                  stroke="none"/>
            <text x="916.2791" xml:space="preserve" y="1708.7556" stroke="none"></text>
            <path fill="rgb(141,211,199)"
                  d="M1077.0298 1696.8682 A64.3003 64.3003 0 0 0 1076.7812 1691.2193L 1012.7295 1696.8682 Z"
                  stroke-width="3.215" stroke="none"/>
            <path fill="none" stroke-width="3.215"
                  d="M1077.0298 1696.8682 A64.3003 64.3003 0 0 0 1076.7812 1691.2193L 1012.7295 1696.8682 Z"/>
            <path fill="rgb(255,255,179)"
                  d="M1076.7812 1691.2193 A64.3003 64.3003 0 0 0 967.2623 1651.401L 1012.7295 1696.8682 Z"
                  stroke-width="3.215" stroke="none"/>
            <path fill="none" stroke-width="3.215"
                  d="M1076.7812 1691.2193 A64.3003 64.3003 0 0 0 967.2623 1651.401L 1012.7295 1696.8682 Z"/>
            <path fill="rgb(190,186,218)"
                  d="M967.2623 1651.401 A64.3003 64.3003 0 1 0 1076.6633 1703.7233L 1012.7295 1696.8682 Z"
                  stroke-width="3.215" stroke="none"/>
            <path fill="none" stroke-width="3.215"
                  d="M967.2623 1651.401 A64.3003 64.3003 0 1 0 1076.6633 1703.7233L 1012.7295 1696.8682 Z"/>
            <path fill="rgb(251,128,114)"
                  d="M1076.6633 1703.7233 A64.3003 64.3003 0 0 0 1077.0298 1696.8682L 1012.7295 1696.8682 Z"
                  stroke-width="3.215" stroke="none"/>
            <path fill="none" stroke-width="3.215"
                  d="M1076.6633 1703.7233 A64.3003 64.3003 0 0 0 1077.0298 1696.8682L 1012.7295 1696.8682 Z"/>
            <circle fill="none" stroke-width="3.215" r="64.3003" cx="1012.7295"
                    cy="1696.8682"/>
            <text x="924.5133" xml:space="preserve" y="1604.2676" stroke="none">A 0.014</text><text x="924.9349"
                  xml:space="preserve" y="1556.0424" stroke="none">C 0.361</text><text x="924.3729"
                  xml:space="preserve" y="1507.8171" stroke="none">E 0.608</text><text x="922.4899"
                  xml:space="preserve" y="1459.5919" stroke="none">M 0.017</text><path fill="none"
                  d="M1118 1623.8271 L1117.2174 1623.8271 L1112.3949 1623.8271 C1104.4047 1623.8271 1097.9274 1630.3044 1097.9274 1638.2947 L1097.9274 1647.9397 L1097.9274 1916.1924 L1097.9274 1925.8375 C1097.9274 1933.8278 1104.4047 1940.3052 1112.3949 1940.3052 L1117.2174 1940.3052 L1118 1940.3052"
                  stroke-width="9.645" stroke-linecap="butt"
                  stroke-linejoin="bevel"/>
            <path d="M1117.2174 1619.0045 L1311 1619.0045 L1311 1628.6495 L1117.2174 1628.6495 Z"
                  stroke="none"/>
            <text x="1133.2925" xml:space="preserve" y="1550.5166" stroke="none"></text>
            <circle fill="rgb(255,255,179)" stroke-width="3.215" r="64.3003"
                    cx="1229.7429" cy="1538.6291" stroke="none"/>
            <circle fill="none" stroke-width="3.215" r="64.3003" cx="1229.7429"
                    cy="1538.6291"/>
            <text x="1138.9413" xml:space="preserve" y="1446.0286" stroke="none">C 0.999</text><path fill="none"
                  d="M1335 1397.3695 L1334.2308 1397.3695 L1329.4083 1397.3695 C1321.4181 1397.3695 1314.9408 1403.8468 1314.9408 1411.837 L1314.9408 1421.4821 L1314.9408 1826.172 L1314.9408 1835.8171 C1314.9408 1843.8074 1321.4181 1850.2848 1329.4083 1850.2848 L1334.2308 1850.2848 L1335 1850.2848"
                  stroke-width="9.645" stroke-linecap="butt"
                  stroke-linejoin="bevel"/>
            <path d="M1334.231 1392.547 L1528 1392.547 L1528 1402.192 L1334.231 1402.192 Z"
                  stroke="none"/>
            <text x="1350.306" xml:space="preserve" y="1324.059" stroke="none"></text>
            <circle fill="rgb(255,255,179)" stroke-width="3.215" r="64.3003"
                    cx="1446.7565" cy="1312.1716" stroke="none"/>
            <circle fill="none" stroke-width="3.215" r="64.3003" cx="1446.7565"
                    cy="1312.1716"/>
            <text x="1356.0391" xml:space="preserve" y="1219.571" stroke="none">C 1.000</text><path fill="none"
                  d="M1552 1118.869 L1551.2444 1118.869 L1546.4219 1118.869 C1538.4316 1118.869 1531.9543 1125.3463 1531.9543 1133.3365 L1531.9543 1142.9816 L1531.9543 1651.7576 L1531.9543 1661.4026 C1531.9543 1669.3928 1538.4316 1675.8702 1546.4219 1675.8702 L1551.2444 1675.8702 L1552 1675.8702"
                  stroke-width="9.645" stroke-linecap="butt"
                  stroke-linejoin="bevel"/>
            <path d="M1551.2444 1114.0464 L2179 1114.0464 L2179 1123.6914 L1551.2444 1123.6914 Z"
                  stroke="none"/>
            <text x="1784.3329" xml:space="preserve" y="1045.5583" stroke="none"></text>
            <circle fill="rgb(255,255,179)" stroke-width="3.215" r="64.3003"
                    cx="1880.7833" cy="1033.671" stroke="none"/>
            <circle fill="none" stroke-width="3.215" r="64.3003" cx="1880.7833"
                    cy="1033.671"/>
            <text x="1790.066" xml:space="preserve" y="941.0705" stroke="none">C 1.000</text><path fill="none"
                  d="M2203 1051.3538 L2202.2847 1051.3538 L2197.4622 1051.3538 C2189.4719 1051.3538 2182.9946 1057.8311 2182.9946 1065.8213 L2182.9946 1075.4663 L2182.9946 1162.2717 L2182.9946 1171.9167 C2182.9946 1179.907 2189.4719 1186.3844 2197.4622 1186.3844 L2202.2847 1186.3844 L2203 1186.3844"
                  stroke-width="9.645" stroke-linecap="butt"
                  stroke-linejoin="bevel"/>
            <path d="M2202.2847 1046.5311 L2396 1046.5311 L2396 1056.1761 L2202.2847 1056.1761 Z"
                  stroke="none"/>
            <text x="2218.3599" xml:space="preserve" y="978.0432" stroke="none"></text>
            <circle fill="rgb(255,255,179)" stroke-width="3.215" r="64.3003"
                    cx="2314.8103" cy="966.1558" stroke="none"/>
            <circle fill="none" stroke-width="3.215" r="64.3003" cx="2314.8103"
                    cy="966.1558"/>
            <text x="2224.0085" xml:space="preserve" y="873.5552" stroke="none">C 0.998</text><path fill="none"
                  d="M2420 1006.3435 L2419.2981 1006.3435 L2414.4756 1006.3435 C2406.4854 1006.3435 2400.0081 1012.8209 2400.0081 1020.8111 L2400.0081 1030.4561 L2400.0081 1072.2512 L2400.0081 1081.8964 C2400.0081 1089.8866 2406.4854 1096.364 2414.4756 1096.364 L2419.2981 1096.364 L2420 1096.364"
                  stroke-width="9.645" stroke-linecap="butt"
                  stroke-linejoin="bevel"/>
            <path d="M2419.2983 1001.521 L2483.5986 1001.521 L2483.5986 1011.166 L2419.2983 1011.166 Z"
                  stroke="none"/>
            <text font-style="italic" x="2499.6736" xml:space="preserve"
                  font-size="64" y="1024.1559" stroke="none">taxonG</text><path d="M2419.2983 1091.5414 L2483.5986 1091.5414 L2483.5986 1101.1864 L2419.2983 1101.1864 Z"
                  stroke="none"/>
            <text font-style="italic" x="2499.6736" xml:space="preserve"
                  font-size="64" y="1114.1763" stroke="none">taxonE</text><path d="M2202.2847 1181.5618 L2483.5984 1181.5618 L2483.5984 1191.2068 L2202.2847 1191.2068 Z"
                  stroke="none"/>
            <text font-style="italic" x="2499.6736" xml:space="preserve"
                  font-size="64" y="1204.1967" stroke="none">taxonD</text><path d="M1551.2444 1671.0476 L1745 1671.0476 L1745 1680.6926 L1551.2444 1680.6926 Z"
                  stroke="none"/>
            <text x="1567.3195" xml:space="preserve" y="1602.5597" stroke="none"></text>
            <circle fill="rgb(255,255,179)" stroke-width="3.215" r="64.3003"
                    cx="1663.7699" cy="1590.6722" stroke="none"/>
            <circle fill="none" stroke-width="3.215" r="64.3003" cx="1663.7699"
                    cy="1590.6722"/>
            <text x="1573.0525" xml:space="preserve" y="1498.0718" stroke="none">C 1.000</text><path fill="none"
                  d="M1769 1591.4761 L1768.2578 1591.4761 L1763.4353 1591.4761 C1755.4451 1591.4761 1748.9678 1597.9534 1748.9678 1605.9436 L1748.9678 1615.5886 L1748.9678 1736.1517 L1748.9678 1745.7968 C1748.9678 1753.787 1755.4451 1760.2644 1763.4353 1760.2644 L1768.2578 1760.2644 L1769 1760.2644"
                  stroke-width="9.645" stroke-linecap="butt"
                  stroke-linejoin="bevel"/>
            <path d="M1768.2578 1586.6536 L1962 1586.6536 L1962 1596.2986 L1768.2578 1596.2986 Z"
                  stroke="none"/>
            <text x="1784.3329" xml:space="preserve" y="1518.1655" stroke="none"></text>
            <circle fill="rgb(255,255,179)" stroke-width="3.215" r="64.3003"
                    cx="1880.7833" cy="1506.2782" stroke="none"/>
            <circle fill="none" stroke-width="3.215" r="64.3003" cx="1880.7833"
                    cy="1506.2782"/>
            <text x="1790.066" xml:space="preserve" y="1413.6776" stroke="none">C 1.000</text><path fill="none"
                  d="M1986 1512.7083 L1985.2712 1512.7083 L1980.4487 1512.7083 C1972.4585 1512.7083 1965.9812 1519.1855 1965.9812 1527.1758 L1965.9812 1536.8208 L1965.9812 1646.1313 L1965.9812 1655.7764 C1965.9812 1663.7666 1972.4585 1670.244 1980.4487 1670.244 L1985.2712 1670.244 L1986 1670.244"
                  stroke-width="9.645" stroke-linecap="butt"
                  stroke-linejoin="bevel"/>
            <path d="M1985.2714 1507.8856 L2179 1507.8856 L2179 1517.5306 L1985.2714 1517.5306 Z"
                  stroke="none"/>
            <text x="2001.3464" xml:space="preserve" y="1439.3977" stroke="none"></text>
            <circle fill="rgb(255,255,179)" stroke-width="3.215" r="64.3003"
                    cx="2097.7969" cy="1427.5102" stroke="none"/>
            <circle fill="none" stroke-width="3.215" r="64.3003" cx="2097.7969"
                    cy="1427.5102"/>
            <text x="2007.0795" xml:space="preserve" y="1334.9097" stroke="none">C 1.000</text><path fill="none"
                  d="M2203 1445.193 L2202.2847 1445.193 L2197.4622 1445.193 C2189.4719 1445.193 2182.9946 1451.6703 2182.9946 1459.6605 L2182.9946 1469.3055 L2182.9946 1556.111 L2182.9946 1565.756 C2182.9946 1573.7462 2189.4719 1580.2236 2197.4622 1580.2236 L2202.2847 1580.2236 L2203 1580.2236"
                  stroke-width="9.645" stroke-linecap="butt"
                  stroke-linejoin="bevel"/>
            <path d="M2202.2847 1440.3704 L2396 1440.3704 L2396 1450.0154 L2202.2847 1450.0154 Z"
                  stroke="none"/>
            <text x="2218.3599" xml:space="preserve" y="1371.8824" stroke="none"></text>
            <circle fill="rgb(255,255,179)" stroke-width="3.215" r="64.3003"
                    cx="2314.8103" cy="1359.995" stroke="none"/>
            <circle fill="none" stroke-width="3.215" r="64.3003" cx="2314.8103"
                    cy="1359.995"/>
            <text x="2224.093" xml:space="preserve" y="1267.3944" stroke="none">C 1.000</text><path fill="none"
                  d="M2420 1400.1827 L2419.2981 1400.1827 L2414.4756 1400.1827 C2406.4854 1400.1827 2400.0081 1406.66 2400.0081 1414.6503 L2400.0081 1424.2953 L2400.0081 1466.0905 L2400.0081 1475.7356 C2400.0081 1483.7258 2406.4854 1490.2032 2414.4756 1490.2032 L2419.2981 1490.2032 L2420 1490.2032"
                  stroke-width="9.645" stroke-linecap="butt"
                  stroke-linejoin="bevel"/>
            <path d="M2419.2983 1395.3601 L2483.5986 1395.3601 L2483.5986 1405.0051 L2419.2983 1405.0051 Z"
                  stroke="none"/>
            <text font-style="italic" x="2499.6736" xml:space="preserve"
                  font-size="64" y="1417.995" stroke="none">taxonJ</text><path d="M2419.2983 1485.3806 L2483.5986 1485.3806 L2483.5986 1495.0256 L2419.2983 1495.0256 Z"
                  stroke="none"/>
            <text font-style="italic" x="2499.6736" xml:space="preserve"
                  font-size="64" y="1508.0155" stroke="none">taxonH</text><path d="M2202.2847 1575.401 L2483.5984 1575.401 L2483.5984 1585.046 L2202.2847 1585.046 Z"
                  stroke="none"/>
            <text font-style="italic" x="2499.6736" xml:space="preserve"
                  font-size="64" y="1598.0359" stroke="none">taxonO</text><path d="M1985.2714 1665.4214 L2483.5986 1665.4214 L2483.5986 1675.0664 L1985.2714 1675.0664 Z"
                  stroke="none"/>
            <text font-style="italic" x="2499.6736" xml:space="preserve"
                  font-size="64" y="1688.0563" stroke="none">taxonC</text><path d="M1768.2578 1755.4419 L2483.5986 1755.4419 L2483.5986 1765.0869 L1768.2578 1765.0869 Z"
                  stroke="none"/>
            <text font-style="italic" x="2499.6736" xml:space="preserve"
                  font-size="64" y="1778.0768" stroke="none">taxonF</text><path d="M1334.231 1845.4622 L2483.5986 1845.4622 L2483.5986 1855.1072 L1334.231 1855.1072 Z"
                  stroke="none"/>
            <text font-style="italic" x="2499.6736" xml:space="preserve"
                  font-size="64" y="1868.0969" stroke="none">taxonK</text><path d="M1117.2174 1935.4827 L2483.5986 1935.4827 L2483.5986 1945.1277 L1117.2174 1945.1277 Z"
                  stroke="none"/>
            <text font-style="italic" x="2499.6736" xml:space="preserve"
                  font-size="64" y="1958.1174" stroke="none">taxonN</text>
        </g>
    </g>
</svg>
