<?xml version="1.0"?>
<!DOCTYPE svg PUBLIC '-//W3C//DTD SVG 1.0//EN'
    'http://www.w3.org/TR/2001/REC-SVG-20010904/DTD/svg10.dtd' >

<svg fill-opacity="1" xmlns:xlink="http://www.w3.org/1999/xlink"
     color-rendering="auto" color-interpolation="auto" text-rendering="auto"
     stroke="black" stroke-linecap="square" stroke-miterlimit="10"
     shape-rendering="auto" stroke-opacity="1" fill="black"
     stroke-dasharray="none" font-weight="normal" stroke-width="1"
     xmlns="http://www.w3.org/2000/svg" font-family="&apos;Dialog&apos;"
     font-style="normal" stroke-linejoin="miter" font-size="12"
     stroke-dashoffset="0" image-rendering="auto">
    <!--Generated by the Batik Graphics2D SVG Generator-->
    <defs id="genericDefs"/>
    <g>
        <g fill="white" stroke="white">
            <rect x="0" width="2835" height="2287" y="0" stroke="none"/>
            <path fill="black"
                  d="M34 421.9216 L224 421.9216 L224 432.3394 L34 432.3394 Z"
                  stroke="none"/>
            <path fill="rgb(141,211,199)"
                  d="M198.7338 335.1064 A69.4521 69.4521 0 0 0 129.2817 265.6543L 129.2817 335.1064 Z"
                  stroke-width="3.4726" stroke="none"/>
            <path fill="none"
                  d="M198.7338 335.1064 A69.4521 69.4521 0 0 0 129.2817 265.6543L 129.2817 335.1064 Z"
                  stroke-width="3.4726" stroke="black"/>
            <path fill="rgb(190,186,218)"
                  d="M129.2817 265.6543 A69.4521 69.4521 0 0 0 59.8296 335.1064L 129.2817 335.1064 Z"
                  stroke-width="3.4726" stroke="none"/>
            <path fill="none"
                  d="M129.2817 265.6543 A69.4521 69.4521 0 0 0 59.8296 335.1064L 129.2817 335.1064 Z"
                  stroke-width="3.4726" stroke="black"/>
            <path fill="rgb(251,128,114)"
                  d="M59.8296 335.1064 A69.4521 69.4521 0 0 0 129.2817 404.5585L 129.2817 335.1064 Z"
                  stroke-width="3.4726" stroke="none"/>
            <path fill="none"
                  d="M59.8296 335.1064 A69.4521 69.4521 0 0 0 129.2817 404.5585L 129.2817 335.1064 Z"
                  stroke-width="3.4726" stroke="black"/>
            <path fill="rgb(255,255,179)"
                  d="M129.2817 404.5585 A69.4521 69.4521 0 0 0 198.7338 335.1064L 129.2817 335.1064 Z"
                  stroke-width="3.4726" stroke="none"/>
            <path fill="none"
                  d="M129.2817 404.5585 A69.4521 69.4521 0 0 0 198.7338 335.1064L 129.2817 335.1064 Z"
                  stroke-width="3.4726" stroke="black"/>
            <circle fill="none" stroke-width="3.4726" r="69.4521" cx="129.2817"
                    cy="335.1064" stroke="black"/>
        </g>
        <g font-family="&apos;Arial&apos;" font-size="42">
            <text x="52.3623" xml:space="preserve" y="234.2022" stroke="none">0 0.250</text><text x="53.9407"
                  xml:space="preserve" y="182.1131" stroke="none">1 0.250</text><text x="52.0891"
                  xml:space="preserve" y="130.024" stroke="none">2 0.250</text><text x="52.3623"
                  xml:space="preserve" y="77.935" stroke="none">3 0.250</text><path fill="none"
                  d="M250 173.0266 L249.8818 173.0266 L244.6729 173.0266 C236.0425 173.0266 229.0461 180.023 229.0461 188.6534 L229.0461 199.0712 L229.0461 644.7719 L229.0461 655.1897 C229.0461 663.8201 236.0425 670.8164 244.6729 670.8164 L249.8818 670.8164 L250 670.8164"
                  stroke-width="10.4178" stroke-linecap="butt"
                  stroke-linejoin="bevel"/>
            <path d="M249.8818 167.8177 L2455.4722 167.8177 L2455.4722 178.2355 L249.8818 178.2355 Z"
                  stroke="none"/>
            <text font-style="italic" x="2472.8352" xml:space="preserve"
                  font-size="69" y="192.6191" stroke="none">outgroup</text><path d="M249.8818 665.6076 L439 665.6076 L439 676.0255 L249.8818 676.0255 Z"
                  stroke="none"/>
        </g>
        <g fill="rgb(141,211,199)" font-style="italic" stroke-width="3.4726"
           font-size="69" font-family="&apos;Arial&apos;"
           stroke="rgb(141,211,199)">
            <path d="M413.8896 578.7925 A69.4521 69.4521 0 0 0 344.4375 509.3404L 344.4375 578.7925 Z"
                  stroke="none"/>
            <path fill="none"
                  d="M413.8896 578.7925 A69.4521 69.4521 0 0 0 344.4375 509.3404L 344.4375 578.7925 Z"
                  stroke="black"/>
            <path fill="rgb(190,186,218)"
                  d="M344.4375 509.3404 A69.4521 69.4521 0 0 0 274.9854 578.7925L 344.4375 578.7925 Z"
                  stroke="none"/>
            <path fill="none"
                  d="M344.4375 509.3404 A69.4521 69.4521 0 0 0 274.9854 578.7925L 344.4375 578.7925 Z"
                  stroke="black"/>
            <path fill="rgb(251,128,114)"
                  d="M274.9854 578.7925 A69.4521 69.4521 0 0 0 344.4375 648.2446L 344.4375 578.7925 Z"
                  stroke="none"/>
            <path fill="none"
                  d="M274.9854 578.7925 A69.4521 69.4521 0 0 0 344.4375 648.2446L 344.4375 578.7925 Z"
                  stroke="black"/>
            <path fill="rgb(255,255,179)"
                  d="M344.4375 648.2446 A69.4521 69.4521 0 0 0 413.8896 578.7925L 344.4375 578.7925 Z"
                  stroke="none"/>
            <path fill="none"
                  d="M344.4375 648.2446 A69.4521 69.4521 0 0 0 413.8896 578.7925L 344.4375 578.7925 Z"
                  stroke="black"/>
            <circle fill="none" r="69.4521" cx="344.4375" cy="578.7925"
                    stroke="black"/>
        </g>
        <g font-family="&apos;Arial&apos;" font-size="42">
            <text x="267.5181" xml:space="preserve" y="477.8882" stroke="none">0 0.250</text><text x="269.0965"
                  xml:space="preserve" y="425.7992" stroke="none">1 0.250</text><text x="267.2449"
                  xml:space="preserve" y="373.7101" stroke="none">2 0.250</text><text x="267.5181"
                  xml:space="preserve" y="321.621" stroke="none">3 0.250</text><path fill="none"
                  d="M466 270.2596 L465.0378 270.2596 L459.8289 270.2596 C451.1985 270.2596 444.2021 277.2559 444.2021 285.8863 L444.2021 296.3041 L444.2021 1045.3289 L444.2021 1055.7466 C444.2021 1064.377 451.1985 1071.3733 459.8289 1071.3733 L465.0378 1071.3733 L466 1071.3733"
                  stroke-width="10.4178" stroke-linecap="butt"
                  stroke-linejoin="bevel"/>
            <path d="M465.0378 265.0507 L2455.4722 265.0507 L2455.4722 275.4685 L465.0378 275.4685 Z"
                  stroke="none"/>
            <text font-style="italic" x="2472.8352" xml:space="preserve"
                  font-size="69" y="289.8521" stroke="none">taxonI</text><path d="M465.0378 1066.1646 L655 1066.1646 L655 1076.5823 L465.0378 1076.5823 Z"
                  stroke="none"/>
        </g>
        <g fill="rgb(141,211,199)" font-style="italic" stroke-width="3.4726"
           font-size="69" font-family="&apos;Arial&apos;"
           stroke="rgb(141,211,199)">
            <path d="M629.0455 979.3494 A69.4521 69.4521 0 0 0 559.5934 909.8973L 559.5934 979.3494 Z"
                  stroke="none"/>
            <path fill="none"
                  d="M629.0455 979.3494 A69.4521 69.4521 0 0 0 559.5934 909.8973L 559.5934 979.3494 Z"
                  stroke="black"/>
            <path fill="rgb(190,186,218)"
                  d="M559.5934 909.8973 A69.4521 69.4521 0 0 0 490.1413 979.3494L 559.5934 979.3494 Z"
                  stroke="none"/>
            <path fill="none"
                  d="M559.5934 909.8973 A69.4521 69.4521 0 0 0 490.1413 979.3494L 559.5934 979.3494 Z"
                  stroke="black"/>
            <path fill="rgb(251,128,114)"
                  d="M490.1413 979.3494 A69.4521 69.4521 0 0 0 559.5934 1048.8015L 559.5934 979.3494 Z"
                  stroke="none"/>
            <path fill="none"
                  d="M490.1413 979.3494 A69.4521 69.4521 0 0 0 559.5934 1048.8015L 559.5934 979.3494 Z"
                  stroke="black"/>
            <path fill="rgb(255,255,179)"
                  d="M559.5934 1048.8015 A69.4521 69.4521 0 0 0 629.0455 979.3494L 559.5934 979.3494 Z"
                  stroke="none"/>
            <path fill="none"
                  d="M559.5934 1048.8015 A69.4521 69.4521 0 0 0 629.0455 979.3494L 559.5934 979.3494 Z"
                  stroke="black"/>
            <circle fill="none" r="69.4521" cx="559.5934" cy="979.3494"
                    stroke="black"/>
        </g>
        <g font-family="&apos;Arial&apos;" font-size="42">
            <text x="482.674" xml:space="preserve" y="878.4451" stroke="none">0 0.250</text><text x="484.2524"
                  xml:space="preserve" y="826.3561" stroke="none">1 0.250</text><text x="482.4008"
                  xml:space="preserve" y="774.267" stroke="none">2 0.250</text><text x="482.674"
                  xml:space="preserve" y="722.1779" stroke="none">3 0.250</text><path fill="none"
                  d="M681 706.0716 L680.1936 706.0716 L674.9847 706.0716 C666.3543 706.0716 659.358 713.0679 659.358 721.6983 L659.358 732.1161 L659.358 1410.6306 L659.358 1421.0485 C659.358 1429.6788 666.3543 1436.6752 674.9847 1436.6752 L680.1936 1436.6752 L681 1436.6752"
                  stroke-width="10.4178" stroke-linecap="butt"
                  stroke-linejoin="bevel"/>
            <path d="M680.1936 700.8627 L2126 700.8627 L2126 711.2805 L680.1936 711.2805 Z"
                  stroke="none"/>
            <path fill="rgb(141,211,199)"
                  d="M1472.3362 614.0476 A69.4521 69.4521 0 0 0 1351.3686 567.467L 1402.8841 614.0476 Z"
                  stroke-width="3.4726" stroke="none"/>
            <path fill="none" stroke-width="3.4726"
                  d="M1472.3362 614.0476 A69.4521 69.4521 0 0 0 1351.3686 567.467L 1402.8841 614.0476 Z"/>
            <path fill="rgb(190,186,218)"
                  d="M1351.3686 567.467 A69.4521 69.4521 0 0 0 1333.432 614.0476L 1402.8841 614.0476 Z"
                  stroke-width="3.4726" stroke="none"/>
            <path fill="none" stroke-width="3.4726"
                  d="M1351.3686 567.467 A69.4521 69.4521 0 0 0 1333.432 614.0476L 1402.8841 614.0476 Z"/>
            <path fill="rgb(251,128,114)"
                  d="M1333.432 614.0476 A69.4521 69.4521 0 0 0 1351.3686 660.6281L 1402.8841 614.0476 Z"
                  stroke-width="3.4726" stroke="none"/>
            <path fill="none" stroke-width="3.4726"
                  d="M1333.432 614.0476 A69.4521 69.4521 0 0 0 1351.3686 660.6281L 1402.8841 614.0476 Z"/>
            <path fill="rgb(255,255,179)"
                  d="M1351.3686 660.6281 A69.4521 69.4521 0 0 0 1472.3362 614.0476L 1402.8841 614.0476 Z"
                  stroke-width="3.4726" stroke="none"/>
            <path fill="none" stroke-width="3.4726"
                  d="M1351.3686 660.6281 A69.4521 69.4521 0 0 0 1472.3362 614.0476L 1402.8841 614.0476 Z"/>
            <circle fill="none" stroke-width="3.4726" r="69.4521" cx="1402.8841"
                    cy="614.0476"/>
            <text x="1325.9038" xml:space="preserve" y="513.1433" stroke="none">0 0.383</text><text x="1327.4823"
                  xml:space="preserve" y="461.0542" stroke="none">1 0.117</text><text x="1325.6307"
                  xml:space="preserve" y="408.9651" stroke="none">2 0.117</text><text x="1325.9038"
                  xml:space="preserve" y="356.8761" stroke="none">3 0.383</text><path fill="none"
                  d="M2152 633.1469 L2151.6194 633.1469 L2146.4104 633.1469 C2137.78 633.1469 2130.7837 640.1432 2130.7837 648.7736 L2130.7837 659.1914 L2130.7837 752.9518 L2130.7837 763.3696 C2130.7837 772 2137.78 778.9963 2146.4104 778.9963 L2151.6194 778.9963 L2152 778.9963"
                  stroke-width="10.4178" stroke-linecap="butt"
                  stroke-linejoin="bevel"/>
            <path d="M2151.6191 627.9379 L2360 627.9379 L2360 638.3558 L2151.6191 638.3558 Z"
                  stroke="none"/>
            <text x="2168.9822" xml:space="preserve" y="553.0782" stroke="none"></text>
            <path fill="rgb(141,211,199)"
                  d="M2342.6125 541.1228 A69.4521 69.4521 0 0 0 2203.7083 541.1228L 2273.1604 541.1228 Z"
                  stroke-width="3.4726" stroke="none"/>
            <path fill="none" stroke-width="3.4726"
                  d="M2342.6125 541.1228 A69.4521 69.4521 0 0 0 2203.7083 541.1228L 2273.1604 541.1228 Z"/>
            <path fill="rgb(255,255,179)"
                  d="M2203.7083 541.1228 A69.4521 69.4521 0 0 0 2342.6125 541.1228L 2273.1604 541.1228 Z"
                  stroke-width="3.4726" stroke="none"/>
            <path fill="none" stroke-width="3.4726"
                  d="M2203.7083 541.1228 A69.4521 69.4521 0 0 0 2342.6125 541.1228L 2273.1604 541.1228 Z"/>
            <circle fill="none" stroke-width="3.4726" r="69.4521" cx="2273.1604"
                    cy="541.1228"/>
            <text x="2178.8779" xml:space="preserve" y="440.2186" stroke="none">0 0.500</text><text x="2178.8779"
                  xml:space="preserve" y="388.1295" stroke="none">3 0.500</text><path fill="none"
                  d="M2387 584.5304 L2386.0203 584.5304 L2380.8113 584.5304 C2372.1809 584.5304 2365.1846 591.5267 2365.1846 600.1571 L2365.1846 610.575 L2365.1846 655.7188 L2365.1846 666.1366 C2365.1846 674.767 2372.1809 681.7633 2380.8113 681.7633 L2386.0203 681.7633 L2387 681.7633"
                  stroke-width="10.4178" stroke-linecap="butt"
                  stroke-linejoin="bevel"/>
            <path d="M2386.02 579.3215 L2455.4722 579.3215 L2455.4722 589.7393 L2386.02 589.7393 Z"
                  stroke="none"/>
            <text font-style="italic" x="2472.8352" xml:space="preserve"
                  font-size="69" y="604.1229" stroke="none">taxonL</text><path d="M2386.02 676.5544 L2455.4722 676.5544 L2455.4722 686.9722 L2386.02 686.9722 Z"
                  stroke="none"/>
            <text font-style="italic" x="2472.8352" xml:space="preserve"
                  font-size="69" y="701.3558" stroke="none">taxonM</text><path d="M2151.6191 773.7874 L2455.4722 773.7874 L2455.4722 784.2052 L2151.6191 784.2052 Z"
                  stroke="none"/>
            <text font-style="italic" x="2472.8352" xml:space="preserve"
                  font-size="69" y="798.5887" stroke="none">taxonA</text><path d="M680.1936 1431.4663 L870 1431.4663 L870 1441.884 L680.1936 1441.884 Z"
                  stroke="none"/>
        </g>
        <g fill="rgb(141,211,199)" font-style="italic" stroke-width="3.4726"
           font-size="69" font-family="&apos;Arial&apos;"
           stroke="rgb(141,211,199)">
            <path d="M844.2014 1344.6512 A69.4521 69.4521 0 0 0 774.7493 1275.1991L 774.7493 1344.6512 Z"
                  stroke="none"/>
            <path fill="none"
                  d="M844.2014 1344.6512 A69.4521 69.4521 0 0 0 774.7493 1275.1991L 774.7493 1344.6512 Z"
                  stroke="black"/>
            <path fill="rgb(190,186,218)"
                  d="M774.7493 1275.1991 A69.4521 69.4521 0 0 0 705.2972 1344.6512L 774.7493 1344.6512 Z"
                  stroke="none"/>
            <path fill="none"
                  d="M774.7493 1275.1991 A69.4521 69.4521 0 0 0 705.2972 1344.6512L 774.7493 1344.6512 Z"
                  stroke="black"/>
            <path fill="rgb(251,128,114)"
                  d="M705.2972 1344.6512 A69.4521 69.4521 0 0 0 774.7493 1414.1033L 774.7493 1344.6512 Z"
                  stroke="none"/>
            <path fill="none"
                  d="M705.2972 1344.6512 A69.4521 69.4521 0 0 0 774.7493 1414.1033L 774.7493 1344.6512 Z"
                  stroke="black"/>
            <path fill="rgb(255,255,179)"
                  d="M774.7493 1414.1033 A69.4521 69.4521 0 0 0 844.2014 1344.6512L 774.7493 1344.6512 Z"
                  stroke="none"/>
            <path fill="none"
                  d="M774.7493 1414.1033 A69.4521 69.4521 0 0 0 844.2014 1344.6512L 774.7493 1344.6512 Z"
                  stroke="black"/>
            <circle fill="none" r="69.4521" cx="774.7493" cy="1344.6512"
                    stroke="black"/>
        </g>
        <g font-family="&apos;Arial&apos;" font-size="42">
            <text x="697.8298" xml:space="preserve" y="1243.7469" stroke="none">0 0.250</text><text x="699.4083"
                  xml:space="preserve" y="1191.6578" stroke="none">1 0.250</text><text x="697.5566"
                  xml:space="preserve" y="1139.5688" stroke="none">2 0.250</text><text x="697.8298"
                  xml:space="preserve" y="1087.4797" stroke="none">3 0.250</text><path fill="none"
                  d="M896 876.2292 L895.3495 876.2292 L890.1406 876.2292 C881.5102 876.2292 874.5139 883.2256 874.5139 891.856 L874.5139 902.2738 L874.5139 1971.0767 L874.5139 1981.4945 C874.5139 1990.1249 881.5102 1997.1212 890.1406 1997.1212 L895.3495 1997.1212 L896 1997.1212"
                  stroke-width="10.4178" stroke-linecap="butt"
                  stroke-linejoin="bevel"/>
            <path d="M895.3495 871.0203 L2455.4722 871.0203 L2455.4722 881.4382 L895.3495 881.4382 Z"
                  stroke="none"/>
            <text font-style="italic" x="2472.8352" xml:space="preserve"
                  font-size="69" y="895.8217" stroke="none">taxonB</text><path d="M895.3495 1991.9122 L1085 1991.9122 L1085 2002.33 L895.3495 2002.33 Z"
                  stroke="none"/>
        </g>
        <g fill="rgb(141,211,199)" font-style="italic" stroke-width="3.4726"
           font-size="69" font-family="&apos;Arial&apos;"
           stroke="rgb(141,211,199)">
            <path d="M1059.2662 1905.0971 A69.4521 69.4521 0 0 0 990.6868 1835.6505L 989.814 1905.0971 Z"
                  stroke="none"/>
            <path fill="none"
                  d="M1059.2662 1905.0971 A69.4521 69.4521 0 0 0 990.6868 1835.6505L 989.814 1905.0971 Z"
                  stroke="black"/>
            <path fill="rgb(190,186,218)"
                  d="M990.6868 1835.6505 A69.4521 69.4521 0 0 0 920.3619 1905.0971L 989.814 1905.0971 Z"
                  stroke="none"/>
            <path fill="none"
                  d="M990.6868 1835.6505 A69.4521 69.4521 0 0 0 920.3619 1905.0971L 989.814 1905.0971 Z"
                  stroke="black"/>
            <path fill="rgb(251,128,114)"
                  d="M920.3619 1905.0971 A69.4521 69.4521 0 0 0 990.6868 1974.5438L 989.814 1905.0971 Z"
                  stroke="none"/>
            <path fill="none"
                  d="M920.3619 1905.0971 A69.4521 69.4521 0 0 0 990.6868 1974.5438L 989.814 1905.0971 Z"
                  stroke="black"/>
            <path fill="rgb(255,255,179)"
                  d="M990.6868 1974.5438 A69.4521 69.4521 0 0 0 1059.2662 1905.0971L 989.814 1905.0971 Z"
                  stroke="none"/>
            <path fill="none"
                  d="M990.6868 1974.5438 A69.4521 69.4521 0 0 0 1059.2662 1905.0971L 989.814 1905.0971 Z"
                  stroke="black"/>
            <circle fill="none" r="69.4521" cx="989.814" cy="1905.0971"
                    stroke="black"/>
        </g>
        <g font-family="&apos;Arial&apos;" font-size="42">
            <text x="912.8036" xml:space="preserve" y="1804.1929" stroke="none">0 0.248</text><text x="914.5641"
                  xml:space="preserve" y="1752.1038" stroke="none">1 0.252</text><text x="912.7125"
                  xml:space="preserve" y="1700.0148" stroke="none">2 0.252</text><text x="912.8036"
                  xml:space="preserve" y="1647.9257" stroke="none">3 0.248</text><path fill="none"
                  d="M1111 1826.2039 L1110.3231 1826.2039 L1105.1143 1826.2039 C1096.4839 1826.2039 1089.4875 1833.2002 1089.4875 1841.8306 L1089.4875 1852.2484 L1089.4875 2141.9939 L1089.4875 2152.4116 C1089.4875 2161.042 1096.4839 2168.0383 1105.1143 2168.0383 L1110.3231 2168.0383 L1111 2168.0383"
                  stroke-width="10.4178" stroke-linecap="butt"
                  stroke-linejoin="bevel"/>
            <path d="M1110.3231 1820.995 L1300 1820.995 L1300 1831.4127 L1110.3231 1831.4127 Z"
                  stroke="none"/>
            <path fill="rgb(190,186,218)"
                  d="M1274.3916 1734.1798 A69.4521 69.4521 0 1 0 1259.5489 1777.0914L 1204.9395 1734.1798 Z"
                  stroke-width="3.4726" stroke="none"/>
            <path fill="none" stroke-width="3.4726"
                  d="M1274.3916 1734.1798 A69.4521 69.4521 0 1 0 1259.5489 1777.0914L 1204.9395 1734.1798 Z"/>
            <path fill="rgb(251,128,114)"
                  d="M1259.5489 1777.0914 A69.4521 69.4521 0 0 0 1270.5762 1756.8828L 1204.9395 1734.1798 Z"
                  stroke-width="3.4726" stroke="none"/>
            <path fill="none" stroke-width="3.4726"
                  d="M1259.5489 1777.0914 A69.4521 69.4521 0 0 0 1270.5762 1756.8828L 1204.9395 1734.1798 Z"/>
            <path fill="rgb(255,255,179)"
                  d="M1270.5762 1756.8828 A69.4521 69.4521 0 0 0 1274.3916 1734.1798L 1204.9395 1734.1798 Z"
                  stroke-width="3.4726" stroke="none"/>
            <path fill="none" stroke-width="3.4726"
                  d="M1270.5762 1756.8828 A69.4521 69.4521 0 0 0 1274.3916 1734.1798L 1204.9395 1734.1798 Z"/>
            <circle fill="none" stroke-width="3.4726" r="69.4521" cx="1204.9395"
                    cy="1734.1798"/>
            <text x="1129.5985" xml:space="preserve" y="1633.2756" stroke="none">1 0.894</text><text x="1127.6862"
                  xml:space="preserve" y="1581.1865" stroke="none">2 0.053</text><text x="1127.9594"
                  xml:space="preserve" y="1529.0974" stroke="none">3 0.053</text><path fill="none"
                  d="M1326 1581.6022 L1325.6003 1581.6022 L1320.3915 1581.6022 C1311.7611 1581.6022 1304.7648 1588.5985 1304.7648 1597.2289 L1304.7648 1607.6467 L1304.7648 2044.761 L1304.7648 2055.179 C1304.7648 2063.8093 1311.7611 2070.8057 1320.3915 2070.8057 L1325.6003 2070.8057 L1326 2070.8057"
                  stroke-width="10.4178" stroke-linecap="butt"
                  stroke-linejoin="bevel"/>
            <path d="M1325.6005 1576.3933 L1515 1576.3933 L1515 1586.811 L1325.6005 1586.811 Z"
                  stroke="none"/>
            <path fill="rgb(190,186,218)"
                  d="M1489.335 1489.5781 A69.4521 69.4521 0 1 0 1484.2959 1515.5503L 1419.8829 1489.5781 Z"
                  stroke-width="3.4726" stroke="none"/>
            <path fill="none" stroke-width="3.4726"
                  d="M1489.335 1489.5781 A69.4521 69.4521 0 1 0 1484.2959 1515.5503L 1419.8829 1489.5781 Z"/>
            <path fill="rgb(251,128,114)"
                  d="M1484.2959 1515.5503 A69.4521 69.4521 0 0 0 1488.7874 1498.2827L 1419.8829 1489.5781 Z"
                  stroke-width="3.4726" stroke="none"/>
            <path fill="none" stroke-width="3.4726"
                  d="M1484.2959 1515.5503 A69.4521 69.4521 0 0 0 1488.7874 1498.2827L 1419.8829 1489.5781 Z"/>
            <path fill="rgb(255,255,179)"
                  d="M1488.7874 1498.2828 A69.4521 69.4521 0 0 0 1489.335 1489.5781L 1419.8829 1489.5781 Z"
                  stroke-width="3.4726" stroke="none"/>
            <path fill="none" stroke-width="3.4726"
                  d="M1488.7874 1498.2828 A69.4521 69.4521 0 0 0 1489.335 1489.5781L 1419.8829 1489.5781 Z"/>
            <circle fill="none" stroke-width="3.4726" r="69.4521" cx="1419.8829"
                    cy="1489.5781"/>
            <text x="1344.4509" xml:space="preserve" y="1388.674" stroke="none">1 0.939</text><text x="1345.8473"
                  xml:space="preserve" y="1336.5848" stroke="none">2 0.041</text><text x="1342.9635"
                  xml:space="preserve" y="1284.4957" stroke="none">3 0.020</text><path fill="none"
                  d="M1541 1280.7877 L1540.2098 1280.7877 L1535.001 1280.7877 C1526.3706 1280.7877 1519.3743 1287.7841 1519.3743 1296.4144 L1519.3743 1306.8323 L1519.3743 1856.3721 L1519.3743 1866.7898 C1519.3743 1875.4202 1526.3706 1882.4165 1535.001 1882.4165 L1540.2098 1882.4165 L1541 1882.4165"
                  stroke-width="10.4178" stroke-linecap="butt"
                  stroke-linejoin="bevel"/>
            <path d="M1540.21 1275.5787 L2145 1275.5787 L2145 1285.9965 L1540.21 1285.9965 Z"
                  stroke="none"/>
            <circle fill="rgb(190,186,218)" stroke-width="3.4726" r="69.4521"
                    cx="1842.4542" cy="1188.7636" stroke="none"/>
            <circle fill="none" stroke-width="3.4726" r="69.4521" cx="1842.4542"
                    cy="1188.7636"/>
            <text x="1767.1132" xml:space="preserve" y="1087.8594" stroke="none">1 1.000</text><path fill="none"
                  d="M2171 1207.863 L2170.7429 1207.863 L2165.5339 1207.863 C2156.9036 1207.863 2149.9072 1214.8594 2149.9072 1223.4897 L2149.9072 1233.9076 L2149.9072 1327.668 L2149.9072 1338.0857 C2149.9072 1346.7161 2156.9036 1353.7124 2165.5339 1353.7124 L2170.7429 1353.7124 L2171 1353.7124"
                  stroke-width="10.4178" stroke-linecap="butt"
                  stroke-linejoin="bevel"/>
            <path d="M2170.7427 1202.6541 L2360 1202.6541 L2360 1213.0718 L2170.7427 1213.0718 Z"
                  stroke="none"/>
            <path fill="rgb(190,186,218)"
                  d="M2334.8112 1115.839 A69.4521 69.4521 0 1 0 2327.6327 1146.5894L 2265.3591 1115.839 Z"
                  stroke-width="3.4726" stroke="none"/>
            <path fill="none" stroke-width="3.4726"
                  d="M2334.8112 1115.839 A69.4521 69.4521 0 1 0 2327.6327 1146.5894L 2265.3591 1115.839 Z"/>
            <path fill="rgb(251,128,114)"
                  d="M2327.6327 1146.5894 A69.4521 69.4521 0 0 0 2334.8112 1115.8389L 2265.3591 1115.839 Z"
                  stroke-width="3.4726" stroke="none"/>
            <path fill="none" stroke-width="3.4726"
                  d="M2327.6327 1146.5894 A69.4521 69.4521 0 0 0 2334.8112 1115.8389L 2265.3591 1115.839 Z"/>
            <circle fill="none" stroke-width="3.4726" r="69.4521" cx="2265.3591"
                    cy="1115.839"/>
            <text x="2189.9575" xml:space="preserve" y="1014.9347" stroke="none">1 0.927</text><text x="2188.1057"
                  xml:space="preserve" y="962.8456" stroke="none">2 0.073</text><path fill="none"
                  d="M2387 1159.2465 L2386.0203 1159.2465 L2380.8113 1159.2465 C2372.1809 1159.2465 2365.1846 1166.2428 2365.1846 1174.8732 L2365.1846 1185.291 L2365.1846 1230.4349 L2365.1846 1240.8527 C2365.1846 1249.483 2372.1809 1256.4794 2380.8113 1256.4794 L2386.0203 1256.4794 L2387 1256.4794"
                  stroke-width="10.4178" stroke-linecap="butt"
                  stroke-linejoin="bevel"/>
            <path d="M2386.02 1154.0376 L2455.4722 1154.0376 L2455.4722 1164.4553 L2386.02 1164.4553 Z"
                  stroke="none"/>
            <text font-style="italic" x="2472.8352" xml:space="preserve"
                  font-size="69" y="1178.8389" stroke="none">taxonG</text><path d="M2386.02 1251.2706 L2455.4722 1251.2706 L2455.4722 1261.6884 L2386.02 1261.6884 Z"
                  stroke="none"/>
            <text font-style="italic" x="2472.8352" xml:space="preserve"
                  font-size="69" y="1276.0719" stroke="none">taxonE</text><path d="M2170.7427 1348.5035 L2455.4722 1348.5035 L2455.4722 1358.9213 L2170.7427 1358.9213 Z"
                  stroke="none"/>
            <text font-style="italic" x="2472.8352" xml:space="preserve"
                  font-size="69" y="1373.3048" stroke="none">taxonD</text><path d="M1540.21 1877.2076 L1726 1877.2076 L1726 1887.6254 L1540.21 1887.6254 Z"
                  stroke="none"/>
        </g>
        <g fill="rgb(190,186,218)" font-style="italic" stroke-width="3.4726"
           font-size="69" font-family="&apos;Arial&apos;"
           stroke="rgb(190,186,218)">
            <circle r="69.4521" cx="1632.9139" cy="1790.3925" stroke="none"/>
            <circle fill="none" r="69.4521" cx="1632.9139" cy="1790.3925"
                    stroke="black"/>
        </g>
        <g font-family="&apos;Arial&apos;" font-size="42">
            <text x="1557.573" xml:space="preserve" y="1689.4883" stroke="none">1 1.000</text><path fill="none"
                  d="M1752 1791.2607 L1751.6624 1791.2607 L1746.4535 1791.2607 C1737.8231 1791.2607 1730.8268 1798.2571 1730.8268 1806.8875 L1730.8268 1817.3053 L1730.8268 1947.5281 L1730.8268 1957.9458 C1730.8268 1966.5762 1737.8231 1973.5725 1746.4535 1973.5725 L1751.6624 1973.5725 L1752 1973.5725"
                  stroke-width="10.4178" stroke-linecap="butt"
                  stroke-linejoin="bevel"/>
            <path d="M1751.6625 1786.0518 L1938 1786.0518 L1938 1796.4695 L1751.6625 1796.4695 Z"
                  stroke="none"/>
            <circle fill="rgb(190,186,218)" stroke-width="3.4726" r="69.4521"
                    cx="1844.3665" cy="1699.2367" stroke="none"/>
            <circle fill="none" stroke-width="3.4726" r="69.4521" cx="1844.3665"
                    cy="1699.2367"/>
            <text x="1769.0255" xml:space="preserve" y="1598.3324" stroke="none">1 1.000</text><path fill="none"
                  d="M1964 1706.1819 L1963.1149 1706.1819 L1957.906 1706.1819 C1949.2756 1706.1819 1942.2793 1713.1782 1942.2793 1721.8086 L1942.2793 1732.2264 L1942.2793 1850.295 L1942.2793 1860.7129 C1942.2793 1869.3433 1949.2756 1876.3396 1957.906 1876.3396 L1963.1149 1876.3396 L1964 1876.3396"
                  stroke-width="10.4178" stroke-linecap="butt"
                  stroke-linejoin="bevel"/>
            <path d="M1963.115 1700.9729 L2149 1700.9729 L2149 1711.3906 L1963.115 1711.3906 Z"
                  stroke="none"/>
            <circle fill="rgb(190,186,218)" stroke-width="3.4726" r="69.4521"
                    cx="2055.8189" cy="1614.1578" stroke="none"/>
            <circle fill="none" stroke-width="3.4726" r="69.4521" cx="2055.8189"
                    cy="1614.1578"/>
            <text x="1980.478" xml:space="preserve" y="1513.2535" stroke="none">1 1.000</text><path fill="none"
                  d="M2175 1633.2572 L2174.5676 1633.2572 L2169.3586 1633.2572 C2160.7283 1633.2572 2153.7319 1640.2535 2153.7319 1648.8839 L2153.7319 1659.3018 L2153.7319 1753.0621 L2153.7319 1763.4799 C2153.7319 1772.1102 2160.7283 1779.1066 2169.3586 1779.1066 L2174.5676 1779.1066 L2175 1779.1066"
                  stroke-width="10.4178" stroke-linecap="butt"
                  stroke-linejoin="bevel"/>
            <path d="M2174.5676 1628.0482 L2360 1628.0482 L2360 1638.4659 L2174.5676 1638.4659 Z"
                  stroke="none"/>
            <circle fill="rgb(190,186,218)" stroke-width="3.4726" r="69.4521"
                    cx="2267.2717" cy="1541.2331" stroke="none"/>
            <circle fill="none" stroke-width="3.4726" r="69.4521" cx="2267.2717"
                    cy="1541.2331"/>
            <text x="2191.9307" xml:space="preserve" y="1440.3289" stroke="none">1 1.000</text><path fill="none"
                  d="M2387 1584.6406 L2386.0203 1584.6406 L2380.8113 1584.6406 C2372.1809 1584.6406 2365.1846 1591.637 2365.1846 1600.2673 L2365.1846 1610.6852 L2365.1846 1655.8291 L2365.1846 1666.2468 C2365.1846 1674.8772 2372.1809 1681.8735 2380.8113 1681.8735 L2386.0203 1681.8735 L2387 1681.8735"
                  stroke-width="10.4178" stroke-linecap="butt"
                  stroke-linejoin="bevel"/>
            <path d="M2386.02 1579.4318 L2455.4722 1579.4318 L2455.4722 1589.8495 L2386.02 1589.8495 Z"
                  stroke="none"/>
            <text font-style="italic" x="2472.8352" xml:space="preserve"
                  font-size="69" y="1604.233" stroke="none">taxonJ</text><path d="M2386.02 1676.6648 L2455.4722 1676.6648 L2455.4722 1687.0825 L2386.02 1687.0825 Z"
                  stroke="none"/>
            <text font-style="italic" x="2472.8352" xml:space="preserve"
                  font-size="69" y="1701.4661" stroke="none">taxonH</text><path d="M2174.5676 1773.8977 L2455.4722 1773.8977 L2455.4722 1784.3154 L2174.5676 1784.3154 Z"
                  stroke="none"/>
            <text font-style="italic" x="2472.8352" xml:space="preserve"
                  font-size="69" y="1798.699" stroke="none">taxonO</text><path d="M1963.115 1871.1306 L2455.4722 1871.1306 L2455.4722 1881.5483 L1963.115 1881.5483 Z"
                  stroke="none"/>
            <text font-style="italic" x="2472.8352" xml:space="preserve"
                  font-size="69" y="1895.9319" stroke="none">taxonC</text><path d="M1751.6625 1968.3636 L2455.4722 1968.3636 L2455.4722 1978.7814 L1751.6625 1978.7814 Z"
                  stroke="none"/>
            <text font-style="italic" x="2472.8352" xml:space="preserve"
                  font-size="69" y="1993.165" stroke="none">taxonF</text><path d="M1325.6005 2065.5967 L2455.4722 2065.5967 L2455.4722 2076.0146 L1325.6005 2076.0146 Z"
                  stroke="none"/>
            <text font-style="italic" x="2472.8352" xml:space="preserve"
                  font-size="69" y="2090.3979" stroke="none">taxonK</text><path d="M1110.3231 2162.8296 L2455.4722 2162.8296 L2455.4722 2173.2476 L1110.3231 2173.2476 Z"
                  stroke="none"/>
            <text font-style="italic" x="2472.8352" xml:space="preserve"
                  font-size="69" y="2187.6309" stroke="none">taxonN</text>
        </g>
    </g>
</svg>
