<?xml version="1.0"?>
<!DOCTYPE svg PUBLIC '-//W3C//DTD SVG 1.0//EN'
    'http://www.w3.org/TR/2001/REC-SVG-20010904/DTD/svg10.dtd' >

<svg fill-opacity="1" xmlns:xlink="http://www.w3.org/1999/xlink"
     color-rendering="auto" color-interpolation="auto" text-rendering="auto"
     stroke="black" stroke-linecap="square" stroke-miterlimit="10"
     shape-rendering="auto" stroke-opacity="1" fill="black"
     stroke-dasharray="none" font-weight="normal" stroke-width="1"
     xmlns="http://www.w3.org/2000/svg" font-family="&apos;Dialog&apos;"
     font-style="normal" stroke-linejoin="miter" font-size="12"
     stroke-dashoffset="0" image-rendering="auto">
    <!--Generated by the Batik Graphics2D SVG Generator-->
    <defs id="genericDefs"/>
    <g>
        <g fill="white" stroke="white">
            <rect x="0" width="2835" height="1966" y="0" stroke="none"/>
            <path fill="black"
                  d="M27 408.0874 L218 408.0874 L218 416.2593 L27 416.2593 Z"
                  stroke="none"/>
        </g>
        <g font-family="&apos;Arial&apos;" font-size="33">
            <text x="40.8598" xml:space="preserve" y="349.5578" stroke="none"></text>
            <text x="68.0997" xml:space="preserve" y="349.5578" stroke="none"></text>
            <path fill="lime"
                  d="M204.2991 339.9877 A54.4798 54.4798 0 0 0 160.6995 286.6054L 149.8193 339.9877 Z"
                  stroke-width="2.724" stroke="none"/>
            <path fill="none" stroke-width="2.724"
                  d="M204.2991 339.9877 A54.4798 54.4798 0 0 0 160.6995 286.6054L 149.8193 339.9877 Z"/>
            <path fill="yellow"
                  d="M160.6995 286.6054 A54.4798 54.4798 0 1 0 204.2991 339.9877L 149.8193 339.9877 Z"
                  stroke-width="2.724" stroke="none"/>
            <path fill="none" stroke-width="2.724"
                  d="M160.6995 286.6054 A54.4798 54.4798 0 1 0 204.2991 339.9877L 149.8193 339.9877 Z"/>
            <circle fill="none" stroke-width="2.724" r="54.4798" cx="149.8193"
                    cy="339.9877"/>
            <text x="61.3373" xml:space="preserve" y="261.0282" stroke="none">E 0.218</text><text x="59.4086"
                  xml:space="preserve" y="220.1684" stroke="none">C 0.782</text><path fill="none"
                  d="M239 65.3757 L238.3489 65.3757 L234.263 65.3757 C227.4931 65.3757 222.005 70.8638 222.005 77.6337 L222.005 85.8056 L222.005 730.3692 L222.005 738.5412 C222.005 745.3111 227.4931 750.7991 234.263 750.7991 L238.3489 750.7991 L239 750.7991"
                  stroke-width="8.172" stroke-linecap="butt"
                  stroke-linejoin="bevel"/>
            <path d="M238.3489 61.2897 L2186.0002 61.2897 L2186.0002 69.4617 L238.3489 69.4617 Z"
                  stroke="none"/>
            <text font-style="italic" x="2199.6201" xml:space="preserve"
                  font-size="54" y="80.3259" stroke="none">Arnoseris minima E</text><path d="M238.3489 746.7131 L430 746.7131 L430 754.8851 L238.3489 754.8851 Z"
                  stroke="none"/>
            <text x="251.9689" xml:space="preserve" y="688.1835" stroke="none"></text>
            <text x="279.2087" xml:space="preserve" y="688.1835" stroke="none"></text>
            <path fill="lime"
                  d="M415.4081 678.6135 A54.4798 54.4798 0 1 0 309.5545 696.7454L 360.9284 678.6135 Z"
                  stroke-width="2.724" stroke="none"/>
            <path fill="none" stroke-width="2.724"
                  d="M415.4081 678.6135 A54.4798 54.4798 0 1 0 309.5545 696.7454L 360.9284 678.6135 Z"/>
            <path fill="yellow"
                  d="M309.5545 696.7454 A54.4798 54.4798 0 0 0 415.4081 678.6135L 360.9284 678.6135 Z"
                  stroke-width="2.724" stroke="none"/>
            <path fill="none" stroke-width="2.724"
                  d="M309.5545 696.7454 A54.4798 54.4798 0 0 0 415.4081 678.6135L 360.9284 678.6135 Z"/>
            <circle fill="none" stroke-width="2.724" r="54.4798" cx="360.9284"
                    cy="678.6135"/>
            <text x="272.5178" xml:space="preserve" y="599.6539" stroke="none">E 0.554</text><text x="270.3987"
                  xml:space="preserve" y="558.7941" stroke="none">C 0.446</text><path fill="none"
                  d="M450 366.3763 L449.4579 366.3763 L445.372 366.3763 C438.6021 366.3763 433.114 371.8644 433.114 378.6343 L433.114 386.8062 L433.114 1114.792 L433.114 1122.964 C433.114 1129.7339 438.6021 1135.2219 445.372 1135.2219 L449.4579 1135.2219 L450 1135.2219"
                  stroke-width="8.172" stroke-linecap="butt"
                  stroke-linejoin="bevel"/>
            <path d="M449.458 362.2904 L1580 362.2904 L1580 370.4623 L449.458 370.4623 Z"
                  stroke="none"/>
            <text x="919.3459" xml:space="preserve" y="303.7608" stroke="none"></text>
            <text x="946.5858" xml:space="preserve" y="303.7608" stroke="none"></text>
            <text x="973.8256" xml:space="preserve" y="303.7608" stroke="none"></text>
            <path fill="lime"
                  d="M1110.025 294.1907 A54.4798 54.4798 0 0 0 1001.0655 294.1907L 1055.5452 294.1907 Z"
                  stroke-width="2.724" stroke="none"/>
            <path fill="none" stroke-width="2.724"
                  d="M1110.025 294.1907 A54.4798 54.4798 0 0 0 1001.0655 294.1907L 1055.5452 294.1907 Z"/>
            <path fill="yellow"
                  d="M1001.0655 294.1907 A54.4798 54.4798 0 0 0 1028.4042 341.4285L 1055.5452 294.1907 Z"
                  stroke-width="2.724" stroke="none"/>
            <path fill="none" stroke-width="2.724"
                  d="M1001.0655 294.1907 A54.4798 54.4798 0 0 0 1028.4042 341.4285L 1055.5452 294.1907 Z"/>
            <path fill="red"
                  d="M1028.4042 341.4285 A54.4798 54.4798 0 0 0 1110.025 294.1907L 1055.5452 294.1907 Z"
                  stroke-width="2.724" stroke="none"/>
            <path fill="none" stroke-width="2.724"
                  d="M1028.4042 341.4285 A54.4798 54.4798 0 0 0 1110.025 294.1907L 1055.5452 294.1907 Z"/>
            <circle fill="none" stroke-width="2.724" r="54.4798" cx="1055.5452"
                    cy="294.1907"/>
            <text x="953.5148" xml:space="preserve" y="215.2312" stroke="none">E 0.500</text><text x="951.3956"
                  xml:space="preserve" y="174.3714" stroke="none">C 0.167</text><text x="951.8481"
                  xml:space="preserve" y="133.5115" stroke="none">M 0.333</text><path fill="none"
                  d="M1601 195.4461 L1600.3428 195.4461 L1596.2568 195.4461 C1589.4869 195.4461 1583.9989 200.9342 1583.9989 207.7041 L1583.9989 215.876 L1583.9989 516.8766 L1583.9989 525.0486 C1583.9989 531.8185 1589.4869 537.3065 1596.2568 537.3065 L1600.3428 537.3065 L1601 537.3065"
                  stroke-width="8.172" stroke-linecap="butt"
                  stroke-linejoin="bevel"/>
            <path d="M1600.3428 191.3601 L2186 191.3601 L2186 199.5321 L1600.3428 199.5321 Z"
                  stroke="none"/>
            <text font-style="italic" x="2199.6201" xml:space="preserve"
                  font-size="54" y="210.3963" stroke="none">Tolpis macrorhiza M</text><path d="M1600.3428 533.2206 L1846 533.2206 L1846 541.3926 L1600.3428 541.3926 Z"
                  stroke="none"/>
            <text x="1613.9628" xml:space="preserve" y="474.691" stroke="none"></text>
            <text x="1641.2026" xml:space="preserve" y="474.691" stroke="none"></text>
            <text x="1668.4425" xml:space="preserve" y="474.691" stroke="none"></text>
            <text x="1695.6824" xml:space="preserve" y="474.691" stroke="none"></text>
            <path fill="blue"
                  d="M1831.8818 465.1209 A54.4798 54.4798 0 1 0 1812.3918 506.8793L 1777.402 465.1209 Z"
                  stroke-width="2.724" stroke="none"/>
            <path fill="none" stroke-width="2.724"
                  d="M1831.8818 465.1209 A54.4798 54.4798 0 1 0 1812.3918 506.8793L 1777.402 465.1209 Z"/>
            <path fill="lime"
                  d="M1812.3918 506.8793 A54.4798 54.4798 0 0 0 1821.6774 496.8658L 1777.402 465.1209 Z"
                  stroke-width="2.724" stroke="none"/>
            <path fill="none" stroke-width="2.724"
                  d="M1812.3918 506.8793 A54.4798 54.4798 0 0 0 1821.6774 496.8658L 1777.402 465.1209 Z"/>
            <path fill="yellow"
                  d="M1821.6774 496.8658 A54.4798 54.4798 0 0 0 1831.7742 468.5418L 1777.402 465.1209 Z"
                  stroke-width="2.724" stroke="none"/>
            <path fill="none" stroke-width="2.724"
                  d="M1821.6774 496.8658 A54.4798 54.4798 0 0 0 1831.7742 468.5418L 1777.402 465.1209 Z"/>
            <path fill="red"
                  d="M1831.7742 468.5417 A54.4798 54.4798 0 0 0 1831.8818 465.1209L 1777.402 465.1209 Z"
                  stroke-width="2.724" stroke="none"/>
            <path fill="none" stroke-width="2.724"
                  d="M1831.7742 468.5417 A54.4798 54.4798 0 0 0 1831.8818 465.1209L 1777.402 465.1209 Z"/>
            <circle fill="none" stroke-width="2.724" r="54.4798" cx="1777.402"
                    cy="465.1209"/>
            <text x="1664.2755" xml:space="preserve" y="386.1614" stroke="none">A 0.861</text><text x="1661.7516"
                  xml:space="preserve" y="345.3016" stroke="none">E 0.040</text><text x="1659.6085"
                  xml:space="preserve" y="304.4418" stroke="none">C 0.089</text><text x="1660.1324"
                  xml:space="preserve" y="263.582" stroke="none">M 0.010</text><path fill="none"
                  d="M1866 366.3764 L1865.9315 366.3764 L1861.8456 366.3764 C1855.0757 366.3764 1849.5876 371.8644 1849.5876 378.6343 L1849.5876 386.8063 L1849.5876 687.8069 L1849.5876 695.9789 C1849.5876 702.7488 1855.0757 708.2368 1861.8456 708.2368 L1865.9315 708.2368 L1866 708.2368"
                  stroke-width="8.172" stroke-linecap="butt"
                  stroke-linejoin="bevel"/>
            <path d="M1865.9316 362.2904 L2186.0002 362.2904 L2186.0002 370.4623 L1865.9316 370.4623 Z"
                  stroke="none"/>
            <text font-style="italic" x="2199.6201" xml:space="preserve"
                  font-size="54" y="381.3265" stroke="none">Tolpis azorica A</text><path d="M1865.9316 704.1509 L2112 704.1509 L2112 712.3229 L1865.9316 712.3229 Z"
                  stroke="none"/>
            <text x="1879.5515" xml:space="preserve" y="645.6213" stroke="none"></text>
            <text x="1906.7914" xml:space="preserve" y="645.6213" stroke="none"></text>
            <text x="1934.0314" xml:space="preserve" y="645.6213" stroke="none"></text>
            <text x="1961.2712" xml:space="preserve" y="645.6213" stroke="none"></text>
            <path fill="blue"
                  d="M2097.4706 636.0512 A54.4798 54.4798 0 1 0 2053.871 689.4334L 2042.9909 636.0512 Z"
                  stroke-width="2.724" stroke="none"/>
            <path fill="none" stroke-width="2.724"
                  d="M2097.4706 636.0512 A54.4798 54.4798 0 1 0 2053.871 689.4334L 2042.9909 636.0512 Z"/>
            <path fill="lime"
                  d="M2053.871 689.4334 A54.4798 54.4798 0 0 0 2069.8345 683.4586L 2042.9909 636.0512 Z"
                  stroke-width="2.724" stroke="none"/>
            <path fill="none" stroke-width="2.724"
                  d="M2053.871 689.4334 A54.4798 54.4798 0 0 0 2069.8345 683.4586L 2042.9909 636.0512 Z"/>
            <path fill="yellow"
                  d="M2069.8345 683.4586 A54.4798 54.4798 0 0 0 2093.7699 655.7878L 2042.9909 636.0512 Z"
                  stroke-width="2.724" stroke="none"/>
            <path fill="none" stroke-width="2.724"
                  d="M2069.8345 683.4586 A54.4798 54.4798 0 0 0 2093.7699 655.7878L 2042.9909 636.0512 Z"/>
            <path fill="red"
                  d="M2093.7699 655.7878 A54.4798 54.4798 0 0 0 2097.4706 636.0512L 2042.9909 636.0512 Z"
                  stroke-width="2.724" stroke="none"/>
            <path fill="none" stroke-width="2.724"
                  d="M2093.7699 655.7878 A54.4798 54.4798 0 0 0 2097.4706 636.0512L 2042.9909 636.0512 Z"/>
            <circle fill="none" stroke-width="2.724" r="54.4798" cx="2042.9909"
                    cy="636.0512"/>
            <text x="1927.4595" xml:space="preserve" y="557.0916" stroke="none">A 0.782</text><text x="1927.3405"
                  xml:space="preserve" y="516.2318" stroke="none">E 0.050</text><text x="1925.1974"
                  xml:space="preserve" y="475.372" stroke="none">C 0.109</text><text x="1925.6498"
                  xml:space="preserve" y="434.5122" stroke="none">M 0.059</text><path fill="none"
                  d="M2132 670.101 L2131.5205 670.101 L2127.4346 670.101 C2120.6646 670.101 2115.1765 675.5891 2115.1765 682.3589 L2115.1765 690.5309 L2115.1765 725.9428 L2115.1765 734.1147 C2115.1765 740.8846 2120.6646 746.3727 2127.4346 746.3727 L2131.5205 746.3727 L2132 746.3727"
                  stroke-width="8.172" stroke-linecap="butt"
                  stroke-linejoin="bevel"/>
            <path d="M2131.5205 666.015 L2186.0002 666.015 L2186.0002 674.187 L2131.5205 674.187 Z"
                  stroke="none"/>
            <text font-style="italic" x="2199.6201" xml:space="preserve"
                  font-size="54" y="685.0512" stroke="none">Tolpis succulenta M</text><path d="M2131.5205 742.2867 L2186.0002 742.2867 L2186.0002 750.4587 L2131.5205 750.4587 Z"
                  stroke="none"/>
            <text font-style="italic" x="2199.6201" xml:space="preserve"
                  font-size="54" y="761.3228" stroke="none">Tolpis succulenta A</text><path d="M449.458 1131.1359 L641 1131.1359 L641 1139.3077 L449.458 1139.3077 Z"
                  stroke="none"/>
            <text x="463.0779" xml:space="preserve" y="1072.6062" stroke="none"></text>
            <text x="490.3178" xml:space="preserve" y="1072.6062" stroke="none"></text>
            <path fill="lime"
                  d="M626.5172 1063.0362 A54.4798 54.4798 0 1 0 517.7995 1068.1631L 572.0374 1063.0362 Z"
                  stroke-width="2.724" stroke="none"/>
            <path fill="none" stroke-width="2.724"
                  d="M626.5172 1063.0362 A54.4798 54.4798 0 1 0 517.7995 1068.1631L 572.0374 1063.0362 Z"/>
            <path fill="yellow"
                  d="M517.7995 1068.1631 A54.4798 54.4798 0 0 0 626.5172 1063.0362L 572.0374 1063.0362 Z"
                  stroke-width="2.724" stroke="none"/>
            <path fill="none" stroke-width="2.724"
                  d="M517.7995 1068.1631 A54.4798 54.4798 0 0 0 626.5172 1063.0362L 572.0374 1063.0362 Z"/>
            <circle fill="none" stroke-width="2.724" r="54.4798" cx="572.0374"
                    cy="1063.0362"/>
            <text x="483.484" xml:space="preserve" y="984.0767" stroke="none">E 0.515</text><text x="481.4124"
                  xml:space="preserve" y="943.2169" stroke="none">C 0.485</text><path fill="none"
                  d="M661 1006.5134 L660.5671 1006.5134 L656.4811 1006.5134 C649.7112 1006.5134 644.2231 1012.0015 644.2231 1018.7714 L644.2231 1026.9434 L644.2231 1243.5004 L644.2231 1251.6724 C644.2231 1258.4423 649.7112 1263.9303 656.4811 1263.9303 L660.5671 1263.9303 L661 1263.9303"
                  stroke-width="8.172" stroke-linecap="butt"
                  stroke-linejoin="bevel"/>
            <path d="M660.567 1002.4274 L2112 1002.4274 L2112 1010.5994 L660.567 1010.5994 Z"
                  stroke="none"/>
            <text x="1304.1091" xml:space="preserve" y="943.8978" stroke="none"></text>
            <text x="1331.349" xml:space="preserve" y="943.8978" stroke="none"></text>
            <path fill="lime"
                  d="M1467.5484 934.3277 A54.4798 54.4798 0 1 0 1446.9979 976.9521L 1413.0686 934.3277 Z"
                  stroke-width="2.724" stroke="none"/>
            <path fill="none" stroke-width="2.724"
                  d="M1467.5484 934.3277 A54.4798 54.4798 0 1 0 1446.9979 976.9521L 1413.0686 934.3277 Z"/>
            <path fill="yellow"
                  d="M1446.9979 976.9521 A54.4798 54.4798 0 0 0 1467.5484 934.3277L 1413.0686 934.3277 Z"
                  stroke-width="2.724" stroke="none"/>
            <path fill="none" stroke-width="2.724"
                  d="M1446.9979 976.9521 A54.4798 54.4798 0 0 0 1467.5484 934.3277L 1413.0686 934.3277 Z"/>
            <circle fill="none" stroke-width="2.724" r="54.4798" cx="1413.0686"
                    cy="934.3277"/>
            <text x="1324.6106" xml:space="preserve" y="855.3682" stroke="none">E 0.857</text><text x="1322.5389"
                  xml:space="preserve" y="814.5084" stroke="none">C 0.143</text><path fill="none"
                  d="M2132 968.3775 L2131.5205 968.3775 L2127.4346 968.3775 C2120.6646 968.3775 2115.1765 973.8656 2115.1765 980.6354 L2115.1765 988.8074 L2115.1765 1024.2192 L2115.1765 1032.3912 C2115.1765 1039.1611 2120.6646 1044.6492 2127.4346 1044.6492 L2131.5205 1044.6492 L2132 1044.6492"
                  stroke-width="8.172" stroke-linecap="butt"
                  stroke-linejoin="bevel"/>
            <path d="M2131.5205 964.2915 L2186.0002 964.2915 L2186.0002 972.4635 L2131.5205 972.4635 Z"
                  stroke="none"/>
            <text font-style="italic" x="2199.6201" xml:space="preserve"
                  font-size="54" y="983.3276" stroke="none">Tolpis virgata E</text><path d="M2131.5205 1040.5632 L2186.0002 1040.5632 L2186.0002 1048.7351 L2131.5205 1048.7351 Z"
                  stroke="none"/>
            <text font-style="italic" x="2199.6201" xml:space="preserve"
                  font-size="54" y="1059.5994" stroke="none">Tolpis barbata E</text><path d="M660.567 1259.8442 L825 1259.8442 L825 1268.0161 L660.567 1268.0161 Z"
                  stroke="none"/>
            <text x="674.187" xml:space="preserve" y="1201.3147" stroke="none"></text>
            <circle fill="yellow" stroke-width="2.724" r="54.4798" cx="755.9066"
                    cy="1191.7445" stroke="none"/>
            <circle fill="none" stroke-width="2.724" r="54.4798" cx="755.9066"
                    cy="1191.7445"/>
            <text x="679.0444" xml:space="preserve" y="1112.785" stroke="none">C 1.000</text><path fill="none"
                  d="M845 1154.2897 L844.4362 1154.2897 L840.3502 1154.2897 C833.5804 1154.2897 828.0923 1159.7777 828.0923 1166.5476 L828.0923 1174.7196 L828.0923 1353.1409 L828.0923 1361.3127 C828.0923 1368.0826 833.5804 1373.5707 840.3502 1373.5707 L844.4362 1373.5707 L845 1373.5707"
                  stroke-width="8.172" stroke-linecap="butt"
                  stroke-linejoin="bevel"/>
            <path d="M844.4362 1150.2037 L2186.0002 1150.2037 L2186.0002 1158.3756 L844.4362 1158.3756 Z"
                  stroke="none"/>
            <text font-style="italic" x="2199.6201" xml:space="preserve"
                  font-size="54" y="1169.2397" stroke="none">Tolpis spnov G</text><path d="M844.4362 1369.4847 L1008 1369.4847 L1008 1377.6566 L844.4362 1377.6566 Z"
                  stroke="none"/>
            <text x="858.0562" xml:space="preserve" y="1310.9552" stroke="none"></text>
            <circle fill="yellow" stroke-width="2.724" r="54.4798" cx="939.7758"
                    cy="1301.3852" stroke="none"/>
            <circle fill="none" stroke-width="2.724" r="54.4798" cx="939.7758"
                    cy="1301.3852"/>
            <text x="862.9136" xml:space="preserve" y="1222.4255" stroke="none">C 1.000</text><path fill="none"
                  d="M1029 1234.1366 L1028.3054 1234.1366 L1024.2195 1234.1366 C1017.4496 1234.1366 1011.9615 1239.6246 1011.9615 1246.3945 L1011.9615 1254.5665 L1011.9615 1492.575 L1011.9615 1500.7468 C1011.9615 1507.5167 1017.4496 1513.0048 1024.2195 1513.0048 L1028.3054 1513.0048 L1029 1513.0048"
                  stroke-width="8.172" stroke-linecap="butt"
                  stroke-linejoin="bevel"/>
            <path d="M1028.3054 1230.0507 L2186.0002 1230.0507 L2186.0002 1238.2225 L1028.3054 1238.2225 Z"
                  stroke="none"/>
            <text font-style="italic" x="2199.6201" xml:space="preserve"
                  font-size="54" y="1249.0867" stroke="none">Tolpis farinulosa C</text><path d="M1028.3054 1508.9188 L1192 1508.9188 L1192 1517.0907 L1028.3054 1517.0907 Z"
                  stroke="none"/>
            <text x="1041.9253" xml:space="preserve" y="1450.3893" stroke="none"></text>
            <circle fill="yellow" stroke-width="2.724" r="54.4798"
                    cx="1123.6449" cy="1440.8191" stroke="none"/>
            <circle fill="none" stroke-width="2.724" r="54.4798" cx="1123.6449"
                    cy="1440.8191"/>
            <text x="1046.7828" xml:space="preserve" y="1361.8596" stroke="none">C 1.000</text><path fill="none"
                  d="M1213 1310.4084 L1212.1744 1310.4084 L1208.0885 1310.4084 C1201.3186 1310.4084 1195.8306 1315.8965 1195.8306 1322.6664 L1195.8306 1330.8384 L1195.8306 1695.1718 L1195.8306 1703.3436 C1195.8306 1710.1135 1201.3186 1715.6016 1208.0885 1715.6016 L1212.1744 1715.6016 L1213 1715.6016"
                  stroke-width="8.172" stroke-linecap="butt"
                  stroke-linejoin="bevel"/>
            <path d="M1212.1746 1306.3224 L2186.0002 1306.3224 L2186.0002 1314.4943 L1212.1746 1314.4943 Z"
                  stroke="none"/>
            <text font-style="italic" x="2199.6201" xml:space="preserve"
                  font-size="54" y="1325.3584" stroke="none">Tolpis laciniata PH</text><path d="M1212.1746 1711.5156 L1376 1711.5156 L1376 1719.6875 L1212.1746 1719.6875 Z"
                  stroke="none"/>
            <text x="1225.7946" xml:space="preserve" y="1652.9861" stroke="none"></text>
            <circle fill="yellow" stroke-width="2.724" r="54.4798"
                    cx="1307.5142" cy="1643.4159" stroke="none"/>
            <circle fill="none" stroke-width="2.724" r="54.4798" cx="1307.5142"
                    cy="1643.4159"/>
            <text x="1230.652" xml:space="preserve" y="1564.4564" stroke="none">C 1.000</text><path fill="none"
                  d="M1397 1558.2914 L1396.0436 1558.2914 L1391.9576 1558.2914 C1385.1877 1558.2914 1379.6997 1563.7794 1379.6997 1570.5493 L1379.6997 1578.7213 L1379.6997 1852.4822 L1379.6997 1860.6541 C1379.6997 1867.424 1385.1877 1872.912 1391.9576 1872.912 L1396.0436 1872.912 L1397 1872.912"
                  stroke-width="8.172" stroke-linecap="butt"
                  stroke-linejoin="bevel"/>
            <path d="M1396.0437 1554.2053 L1560 1554.2053 L1560 1562.3772 L1396.0437 1562.3772 Z"
                  stroke="none"/>
            <text x="1409.6637" xml:space="preserve" y="1495.6757" stroke="none"></text>
            <circle fill="yellow" stroke-width="2.724" r="54.4798"
                    cx="1491.3833" cy="1486.1056" stroke="none"/>
            <circle fill="none" stroke-width="2.724" r="54.4798" cx="1491.3833"
                    cy="1486.1056"/>
            <text x="1414.5211" xml:space="preserve" y="1407.1461" stroke="none">C 1.000</text><path fill="none"
                  d="M1580 1386.6802 L1579.9128 1386.6802 L1575.8269 1386.6802 C1569.057 1386.6802 1563.569 1392.1682 1563.569 1398.9381 L1563.569 1407.1101 L1563.569 1709.4728 L1563.569 1717.6447 C1563.569 1724.4146 1569.057 1729.9026 1575.8269 1729.9026 L1579.9128 1729.9026 L1580 1729.9026"
                  stroke-width="8.172" stroke-linecap="butt"
                  stroke-linejoin="bevel"/>
            <path d="M1579.913 1382.5941 L2186.0002 1382.5941 L2186.0002 1390.766 L1579.913 1390.766 Z"
                  stroke="none"/>
            <text font-style="italic" x="2199.6201" xml:space="preserve"
                  font-size="54" y="1401.6302" stroke="none">Tolpis crassiuscula T</text><path d="M1579.913 1725.8167 L1744 1725.8167 L1744 1733.9885 L1579.913 1733.9885 Z"
                  stroke="none"/>
            <text x="1593.5328" xml:space="preserve" y="1667.287" stroke="none"></text>
            <circle fill="yellow" stroke-width="2.724" r="54.4798"
                    cx="1675.2525" cy="1657.7169" stroke="none"/>
            <circle fill="none" stroke-width="2.724" r="54.4798" cx="1675.2525"
                    cy="1657.7169"/>
            <text x="1598.3903" xml:space="preserve" y="1578.7574" stroke="none">C 1.000</text><path fill="none"
                  d="M1764 1663.1649 L1763.782 1663.1649 L1759.696 1663.1649 C1752.9261 1663.1649 1747.4381 1668.653 1747.4381 1675.4229 L1747.4381 1683.5948 L1747.4381 1776.2104 L1747.4381 1784.3823 C1747.4381 1791.1522 1752.9261 1796.6403 1759.696 1796.6403 L1763.782 1796.6403 L1764 1796.6403"
                  stroke-width="8.172" stroke-linecap="butt"
                  stroke-linejoin="bevel"/>
            <path d="M1763.7821 1659.0789 L1928 1659.0789 L1928 1667.2507 L1763.7821 1667.2507 Z"
                  stroke="none"/>
            <text x="1777.402" xml:space="preserve" y="1600.5493" stroke="none"></text>
            <circle fill="yellow" stroke-width="2.724" r="54.4798"
                    cx="1859.1216" cy="1590.9793" stroke="none"/>
            <circle fill="none" stroke-width="2.724" r="54.4798" cx="1859.1216"
                    cy="1590.9793"/>
            <text x="1782.2595" xml:space="preserve" y="1512.0197" stroke="none">C 1.000</text><path fill="none"
                  d="M1948 1605.9612 L1947.6511 1605.9612 L1943.5652 1605.9612 C1936.7953 1605.9612 1931.3073 1611.4492 1931.3073 1618.2191 L1931.3073 1626.3911 L1931.3073 1699.9388 L1931.3073 1708.1107 C1931.3073 1714.8806 1936.7953 1720.3687 1943.5652 1720.3687 L1947.6511 1720.3687 L1948 1720.3687"
                  stroke-width="8.172" stroke-linecap="butt"
                  stroke-linejoin="bevel"/>
            <path d="M1947.6512 1601.8752 L2112 1601.8752 L2112 1610.0471 L1947.6512 1610.0471 Z"
                  stroke="none"/>
            <text x="1961.2712" xml:space="preserve" y="1543.3456" stroke="none"></text>
            <circle fill="yellow" stroke-width="2.724" r="54.4798"
                    cx="2042.9909" cy="1533.7755" stroke="none"/>
            <circle fill="none" stroke-width="2.724" r="54.4798" cx="2042.9909"
                    cy="1533.7755"/>
            <text x="1966.1287" xml:space="preserve" y="1454.816" stroke="none">C 1.000</text><path fill="none"
                  d="M2132 1567.8253 L2131.5205 1567.8253 L2127.4346 1567.8253 C2120.6646 1567.8253 2115.1765 1573.3134 2115.1765 1580.0833 L2115.1765 1588.2552 L2115.1765 1623.6671 L2115.1765 1631.839 C2115.1765 1638.6089 2120.6646 1644.0969 2127.4346 1644.0969 L2131.5205 1644.0969 L2132 1644.0969"
                  stroke-width="8.172" stroke-linecap="butt"
                  stroke-linejoin="bevel"/>
            <path d="M2131.5205 1563.7394 L2186.0002 1563.7394 L2186.0002 1571.9113 L2131.5205 1571.9113 Z"
                  stroke="none"/>
            <text font-style="italic" x="2199.6201" xml:space="preserve"
                  font-size="54" y="1582.7754" stroke="none">Tolpis webbii T</text><path d="M2131.5205 1640.0111 L2186.0002 1640.0111 L2186.0002 1648.183 L2131.5205 1648.183 Z"
                  stroke="none"/>
            <text font-style="italic" x="2199.6201" xml:space="preserve"
                  font-size="54" y="1659.0471" stroke="none">Tolpis santosii P</text><path d="M1947.6512 1716.2827 L2186.0002 1716.2827 L2186.0002 1724.4546 L1947.6512 1724.4546 Z"
                  stroke="none"/>
            <text font-style="italic" x="2199.6201" xml:space="preserve"
                  font-size="54" y="1735.3188" stroke="none">Tolpis lagopoda TR</text><path d="M1763.7821 1792.5544 L2186.0002 1792.5544 L2186.0002 1800.7263 L1763.7821 1800.7263 Z"
                  stroke="none"/>
            <text font-style="italic" x="2199.6201" xml:space="preserve"
                  font-size="54" y="1811.5906" stroke="none">Tolpis glabrescens T</text><path d="M1396.0437 1868.8259 L2186.0002 1868.8259 L2186.0002 1876.9978 L1396.0437 1876.9978 Z"
                  stroke="none"/>
            <text font-style="italic" x="2199.6201" xml:space="preserve"
                  font-size="54" y="1887.8621" stroke="none">Tolpis coronopifolia T</text>
        </g>
    </g>
</svg>
