<?xml version="1.0"?>
<!DOCTYPE svg PUBLIC '-//W3C//DTD SVG 1.0//EN'
    'http://www.w3.org/TR/2001/REC-SVG-20010904/DTD/svg10.dtd' >

<svg fill-opacity="1" xmlns:xlink="http://www.w3.org/1999/xlink"
     color-rendering="auto" color-interpolation="auto" text-rendering="auto"
     stroke="black" stroke-linecap="square" stroke-miterlimit="10"
     shape-rendering="auto" stroke-opacity="1" fill="black"
     stroke-dasharray="none" font-weight="normal" stroke-width="1"
     xmlns="http://www.w3.org/2000/svg" font-family="&apos;Dialog&apos;"
     font-style="normal" stroke-linejoin="miter" font-size="12"
     stroke-dashoffset="0" image-rendering="auto">
    <!--Generated by the Batik Graphics2D SVG Generator-->
    <defs id="genericDefs"/>
    <g>
        <g fill="white" stroke="white">
            <rect x="0" width="2835" height="1859" y="0" stroke="none"/>
            <path fill="black"
                  d="M25 395.4987 L258 395.4987 L258 403.2253 L25 403.2253 Z"
                  stroke="none"/>
        </g>
        <g font-family="&apos;Arial&apos;" font-size="31">
            <text x="38.6324" xml:space="preserve" y="340.7953" stroke="none"></text>
            <text x="64.3873" xml:space="preserve" y="340.7953" stroke="none"></text>
            <text x="90.1422" xml:space="preserve" y="340.7953" stroke="none"></text>
            <text x="115.8971" xml:space="preserve" y="340.7953" stroke="none"></text>
            <path fill="blue"
                  d="M244.6716 331.1115 A51.5098 51.5098 0 0 0 193.1618 279.6017L 193.1618 331.1115 Z"
                  stroke-width="2.5755" stroke="none"/>
            <path fill="none" stroke-width="2.5755"
                  d="M244.6716 331.1115 A51.5098 51.5098 0 0 0 193.1618 279.6017L 193.1618 331.1115 Z"/>
            <path fill="lime"
                  d="M193.1618 279.6017 A51.5098 51.5098 0 0 0 141.652 331.1115L 193.1618 331.1115 Z"
                  stroke-width="2.5755" stroke="none"/>
            <path fill="none" stroke-width="2.5755"
                  d="M193.1618 279.6017 A51.5098 51.5098 0 0 0 141.652 331.1115L 193.1618 331.1115 Z"/>
            <path fill="yellow"
                  d="M141.652 331.1115 A51.5098 51.5098 0 0 0 193.1618 382.6213L 193.1618 331.1115 Z"
                  stroke-width="2.5755" stroke="none"/>
            <path fill="none" stroke-width="2.5755"
                  d="M141.652 331.1115 A51.5098 51.5098 0 0 0 193.1618 382.6213L 193.1618 331.1115 Z"/>
            <path fill="red"
                  d="M193.1618 382.6213 A51.5098 51.5098 0 0 0 244.6716 331.1115L 193.1618 331.1115 Z"
                  stroke-width="2.5755" stroke="none"/>
            <path fill="none" stroke-width="2.5755"
                  d="M193.1618 382.6213 A51.5098 51.5098 0 0 0 244.6716 331.1115L 193.1618 331.1115 Z"/>
            <circle fill="none" stroke-width="2.5755" r="51.5098" cx="193.1618"
                    cy="331.1115"/>
            <text x="83.861" xml:space="preserve" y="257.0919" stroke="none">A 0.250</text><text x="83.816"
                  xml:space="preserve" y="218.4595" stroke="none">E 0.250</text><text x="81.8574"
                  xml:space="preserve" y="179.8271" stroke="none">C 0.250</text><text x="82.2851"
                  xml:space="preserve" y="141.1948" stroke="none">M 0.250</text><path fill="none"
                  d="M277 61.8118 L276.8653 61.8118 L273.002 61.8118 C266.6012 61.8118 261.4123 67.0007 261.4123 73.4015 L261.4123 81.128 L261.4123 709.8695 L261.4123 717.596 C261.4123 723.9968 266.6012 729.1857 273.002 729.1857 L276.8653 729.1857 L277 729.1857"
                  stroke-width="7.7265" stroke-linecap="butt"
                  stroke-linejoin="bevel"/>
            <path d="M276.8652 57.9485 L2221.3606 57.9485 L2221.3606 65.675 L276.8652 65.675 Z"
                  stroke="none"/>
            <text font-style="italic" x="2234.238" xml:space="preserve"
                  font-size="52" y="77.6181" stroke="none">Arnoseris minima E</text><path d="M276.8652 725.3226 L509 725.3226 L509 733.049 L276.8652 733.049 Z"
                  stroke="none"/>
            <text x="289.7427" xml:space="preserve" y="670.6191" stroke="none"></text>
            <text x="315.4976" xml:space="preserve" y="670.6191" stroke="none"></text>
            <text x="341.2525" xml:space="preserve" y="670.6191" stroke="none"></text>
            <text x="367.0074" xml:space="preserve" y="670.6191" stroke="none"></text>
            <path fill="blue"
                  d="M495.7819 660.9353 A51.5098 51.5098 0 0 0 444.2721 609.4255L 444.2721 660.9353 Z"
                  stroke-width="2.5755" stroke="none"/>
            <path fill="none" stroke-width="2.5755"
                  d="M495.7819 660.9353 A51.5098 51.5098 0 0 0 444.2721 609.4255L 444.2721 660.9353 Z"/>
            <path fill="lime"
                  d="M444.2721 609.4255 A51.5098 51.5098 0 0 0 392.7623 660.9353L 444.2721 660.9353 Z"
                  stroke-width="2.5755" stroke="none"/>
            <path fill="none" stroke-width="2.5755"
                  d="M444.2721 609.4255 A51.5098 51.5098 0 0 0 392.7623 660.9353L 444.2721 660.9353 Z"/>
            <path fill="yellow"
                  d="M392.7623 660.9353 A51.5098 51.5098 0 0 0 444.2721 712.4451L 444.2721 660.9353 Z"
                  stroke-width="2.5755" stroke="none"/>
            <path fill="none" stroke-width="2.5755"
                  d="M392.7623 660.9353 A51.5098 51.5098 0 0 0 444.2721 712.4451L 444.2721 660.9353 Z"/>
            <path fill="red"
                  d="M444.2721 712.4451 A51.5098 51.5098 0 0 0 495.7819 660.9353L 444.2721 660.9353 Z"
                  stroke-width="2.5755" stroke="none"/>
            <path fill="none" stroke-width="2.5755"
                  d="M444.2721 712.4451 A51.5098 51.5098 0 0 0 495.7819 660.9353L 444.2721 660.9353 Z"/>
            <circle fill="none" stroke-width="2.5755" r="51.5098" cx="444.2721"
                    cy="660.9353"/>
            <text x="334.9714" xml:space="preserve" y="586.9156" stroke="none">A 0.250</text><text x="334.9263"
                  xml:space="preserve" y="548.2833" stroke="none">E 0.250</text><text x="332.9677"
                  xml:space="preserve" y="509.6509" stroke="none">C 0.250</text><text x="333.3954"
                  xml:space="preserve" y="471.0186" stroke="none">M 0.250</text><path fill="none"
                  d="M528 385.0358 L527.9756 385.0358 L524.1124 385.0358 C517.7115 385.0358 512.5226 390.2247 512.5226 396.6255 L512.5226 404.352 L512.5226 1054.0194 L512.5226 1061.746 C512.5226 1068.1467 517.7115 1073.3357 524.1124 1073.3357 L527.9756 1073.3357 L528 1073.3357"
                  stroke-width="7.7265" stroke-linecap="butt"
                  stroke-linejoin="bevel"/>
            <path d="M527.9756 381.1726 L1752 381.1726 L1752 388.8991 L527.9756 388.8991 Z"
                  stroke="none"/>
            <text x="1036.635" xml:space="preserve" y="326.4692" stroke="none"></text>
            <text x="1062.3899" xml:space="preserve" y="326.4692" stroke="none"></text>
            <text x="1088.1448" xml:space="preserve" y="326.4692" stroke="none"></text>
            <text x="1113.8997" xml:space="preserve" y="326.4692" stroke="none"></text>
            <path fill="blue"
                  d="M1242.6742 316.7854 A51.5098 51.5098 0 0 0 1191.1644 265.2755L 1191.1644 316.7854 Z"
                  stroke-width="2.5755" stroke="none"/>
            <path fill="none" stroke-width="2.5755"
                  d="M1242.6742 316.7854 A51.5098 51.5098 0 0 0 1191.1644 265.2755L 1191.1644 316.7854 Z"/>
            <path fill="lime"
                  d="M1191.1644 265.2755 A51.5098 51.5098 0 0 0 1139.6545 316.7854L 1191.1644 316.7854 Z"
                  stroke-width="2.5755" stroke="none"/>
            <path fill="none" stroke-width="2.5755"
                  d="M1191.1644 265.2755 A51.5098 51.5098 0 0 0 1139.6545 316.7854L 1191.1644 316.7854 Z"/>
            <path fill="yellow"
                  d="M1139.6545 316.7854 A51.5098 51.5098 0 0 0 1191.1644 368.2952L 1191.1644 316.7854 Z"
                  stroke-width="2.5755" stroke="none"/>
            <path fill="none" stroke-width="2.5755"
                  d="M1139.6545 316.7854 A51.5098 51.5098 0 0 0 1191.1644 368.2952L 1191.1644 316.7854 Z"/>
            <path fill="red"
                  d="M1191.1644 368.2952 A51.5098 51.5098 0 0 0 1242.6742 316.7854L 1191.1644 316.7854 Z"
                  stroke-width="2.5755" stroke="none"/>
            <path fill="none" stroke-width="2.5755"
                  d="M1191.1644 368.2952 A51.5098 51.5098 0 0 0 1242.6742 316.7854L 1191.1644 316.7854 Z"/>
            <circle fill="none" stroke-width="2.5755" r="51.5098" cx="1191.1644"
                    cy="316.7854"/>
            <text x="1081.8636" xml:space="preserve" y="242.7657" stroke="none">A 0.250</text><text x="1081.8186"
                  xml:space="preserve" y="204.1334" stroke="none">E 0.250</text><text x="1079.86"
                  xml:space="preserve" y="165.501" stroke="none">C 0.250</text><text x="1080.2877"
                  xml:space="preserve" y="126.8686" stroke="none">M 0.250</text><path fill="none"
                  d="M1771 262.0562 L1770.6499 262.0562 L1766.7866 262.0562 C1760.3857 262.0562 1755.1969 267.2451 1755.1969 273.6459 L1755.1969 281.3724 L1755.1969 488.6993 L1755.1969 496.4258 C1755.1969 502.8267 1760.3857 508.0155 1766.7866 508.0155 L1770.6499 508.0155 L1771 508.0155"
                  stroke-width="7.7265" stroke-linecap="butt"
                  stroke-linejoin="bevel"/>
            <path d="M1770.6498 258.1929 L2221.3606 258.1929 L2221.3606 265.9194 L1770.6498 265.9194 Z"
                  stroke="none"/>
            <text font-style="italic" x="2234.238" xml:space="preserve"
                  font-size="52" y="277.8625" stroke="none">Tolpis macrorhiza M</text><path d="M1770.6498 504.1523 L1951 504.1523 L1951 511.8788 L1770.6498 511.8788 Z"
                  stroke="none"/>
            <text x="1783.5272" xml:space="preserve" y="449.4488" stroke="none"></text>
            <text x="1809.2821" xml:space="preserve" y="449.4488" stroke="none"></text>
            <path fill="blue"
                  d="M1938.0566 439.765 A51.5098 51.5098 0 1 0 1893.3237 490.8271L 1886.5468 439.765 Z"
                  stroke-width="2.5755" stroke="none"/>
            <path fill="none" stroke-width="2.5755"
                  d="M1938.0566 439.765 A51.5098 51.5098 0 1 0 1893.3237 490.8271L 1886.5468 439.765 Z"/>
            <path fill="red"
                  d="M1893.3237 490.8271 A51.5098 51.5098 0 0 0 1938.0566 439.765L 1886.5468 439.765 Z"
                  stroke-width="2.5755" stroke="none"/>
            <path fill="none" stroke-width="2.5755"
                  d="M1893.3237 490.8271 A51.5098 51.5098 0 0 0 1938.0566 439.765L 1886.5468 439.765 Z"/>
            <circle fill="none" stroke-width="2.5755" r="51.5098" cx="1886.5468"
                    cy="439.765"/>
            <text x="1805.3424" xml:space="preserve" y="365.7454" stroke="none">A 0.771</text><text x="1801.3575"
                  xml:space="preserve" y="327.113" stroke="none">M 0.229</text><path fill="none"
                  d="M1971 385.0358 L1970.2504 385.0358 L1966.3871 385.0358 C1959.9862 385.0358 1954.7974 390.2247 1954.7974 396.6255 L1954.7974 404.352 L1954.7974 611.679 L1954.7974 619.4055 C1954.7974 625.8063 1959.9862 630.9952 1966.3871 630.9952 L1970.2504 630.9952 L1971 630.9952"
                  stroke-width="7.7265" stroke-linecap="butt"
                  stroke-linejoin="bevel"/>
            <path d="M1970.2502 381.1726 L2221.3606 381.1726 L2221.3606 388.8991 L1970.2502 388.8991 Z"
                  stroke="none"/>
            <text font-style="italic" x="2234.238" xml:space="preserve"
                  font-size="52" y="400.8422" stroke="none">Tolpis azorica A</text><path d="M1970.2502 627.1319 L2151 627.1319 L2151 634.8583 L1970.2502 634.8583 Z"
                  stroke="none"/>
            <text x="1983.1277" xml:space="preserve" y="572.4285" stroke="none"></text>
            <text x="2008.8827" xml:space="preserve" y="572.4285" stroke="none"></text>
            <path fill="blue"
                  d="M2137.6572 562.7446 A51.5098 51.5098 0 1 0 2040.1058 585.8408L 2086.1474 562.7446 Z"
                  stroke-width="2.5755" stroke="none"/>
            <path fill="none" stroke-width="2.5755"
                  d="M2137.6572 562.7446 A51.5098 51.5098 0 1 0 2040.1058 585.8408L 2086.1474 562.7446 Z"/>
            <path fill="red"
                  d="M2040.1058 585.8408 A51.5098 51.5098 0 0 0 2137.6572 562.7446L 2086.1474 562.7446 Z"
                  stroke-width="2.5755" stroke="none"/>
            <path fill="none" stroke-width="2.5755"
                  d="M2040.1058 585.8408 A51.5098 51.5098 0 0 0 2137.6572 562.7446L 2086.1474 562.7446 Z"/>
            <circle fill="none" stroke-width="2.5755" r="51.5098" cx="2086.1474"
                    cy="562.7446"/>
            <text x="2002.6016" xml:space="preserve" y="488.725" stroke="none">A 0.574</text><text x="2000.9806"
                  xml:space="preserve" y="450.0927" stroke="none">M 0.426</text><path fill="none"
                  d="M2170 594.9383 L2169.8508 594.9383 L2165.9875 594.9383 C2159.5869 594.9383 2154.3979 600.1272 2154.3979 606.528 L2154.3979 614.2545 L2154.3979 647.7358 L2154.3979 655.4623 C2154.3979 661.8632 2159.5869 667.0521 2165.9875 667.0521 L2169.8508 667.0521 L2170 667.0521"
                  stroke-width="7.7265" stroke-linecap="butt"
                  stroke-linejoin="bevel"/>
            <path d="M2169.8508 591.0751 L2221.3606 591.0751 L2221.3606 598.8015 L2169.8508 598.8015 Z"
                  stroke="none"/>
            <text font-style="italic" x="2234.238" xml:space="preserve"
                  font-size="52" y="610.7446" stroke="none">Tolpis succulenta M</text><path d="M2169.8508 663.1888 L2221.3606 663.1888 L2221.3606 670.9152 L2169.8508 670.9152 Z"
                  stroke="none"/>
            <text font-style="italic" x="2234.238" xml:space="preserve"
                  font-size="52" y="682.8583" stroke="none">Tolpis succulenta A</text><path d="M527.9756 1069.4724 L760 1069.4724 L760 1077.199 L527.9756 1077.199 Z"
                  stroke="none"/>
            <text x="540.853" xml:space="preserve" y="1014.769" stroke="none"></text>
            <text x="566.6079" xml:space="preserve" y="1014.769" stroke="none"></text>
            <text x="592.3629" xml:space="preserve" y="1014.769" stroke="none"></text>
            <text x="618.1177" xml:space="preserve" y="1014.769" stroke="none"></text>
            <path fill="blue"
                  d="M746.8922 1005.0851 A51.5098 51.5098 0 0 0 702.4068 954.0565L 695.3824 1005.0851 Z"
                  stroke-width="2.5755" stroke="none"/>
            <path fill="none" stroke-width="2.5755"
                  d="M746.8922 1005.0851 A51.5098 51.5098 0 0 0 702.4068 954.0565L 695.3824 1005.0851 Z"/>
            <path fill="lime"
                  d="M702.4068 954.0565 A51.5098 51.5098 0 0 0 644.5864 1013.6306L 695.3824 1005.0851 Z"
                  stroke-width="2.5755" stroke="none"/>
            <path fill="none" stroke-width="2.5755"
                  d="M702.4068 954.0565 A51.5098 51.5098 0 0 0 644.5864 1013.6306L 695.3824 1005.0851 Z"/>
            <path fill="yellow"
                  d="M644.5864 1013.6306 A51.5098 51.5098 0 0 0 718.7169 1051.0064L 695.3824 1005.0851 Z"
                  stroke-width="2.5755" stroke="none"/>
            <path fill="none" stroke-width="2.5755"
                  d="M644.5864 1013.6306 A51.5098 51.5098 0 0 0 718.7169 1051.0064L 695.3824 1005.0851 Z"/>
            <path fill="red"
                  d="M718.7169 1051.0064 A51.5098 51.5098 0 0 0 746.8922 1005.0851L 695.3824 1005.0851 Z"
                  stroke-width="2.5755" stroke="none"/>
            <path fill="none" stroke-width="2.5755"
                  d="M718.7169 1051.0064 A51.5098 51.5098 0 0 0 746.8922 1005.0851L 695.3824 1005.0851 Z"/>
            <circle fill="none" stroke-width="2.5755" r="51.5098" cx="695.3824"
                    cy="1005.0851"/>
            <text x="586.0142" xml:space="preserve" y="931.0655" stroke="none">A 0.228</text><text x="585.9692"
                  xml:space="preserve" y="892.4332" stroke="none">E 0.298</text><text x="584.0105"
                  xml:space="preserve" y="853.8008" stroke="none">C 0.298</text><text x="584.3707"
                  xml:space="preserve" y="815.1685" stroke="none">M 0.175</text><path fill="none"
                  d="M780 951.6437 L779.0859 951.6437 L775.2227 951.6437 C768.8218 951.6437 763.6329 956.8326 763.6329 963.2334 L763.6329 970.9598 L763.6329 1175.7114 L763.6329 1183.4379 C763.6329 1189.8386 768.8218 1195.0276 775.2227 1195.0276 L779.0859 1195.0276 L780 1195.0276"
                  stroke-width="7.7265" stroke-linecap="butt"
                  stroke-linejoin="bevel"/>
            <path d="M779.0859 947.7804 L2151 947.7804 L2151 955.5068 L779.0859 955.5068 Z"
                  stroke="none"/>
            <text x="1374.6681" xml:space="preserve" y="893.077" stroke="none"></text>
            <text x="1400.423" xml:space="preserve" y="893.077" stroke="none"></text>
            <text x="1426.1779" xml:space="preserve" y="893.077" stroke="none"></text>
            <path fill="blue"
                  d="M1554.9525 883.3932 A51.5098 51.5098 0 0 0 1553.4883 871.1992L 1503.4427 883.3932 Z"
                  stroke-width="2.5755" stroke="none"/>
            <path fill="none" stroke-width="2.5755"
                  d="M1554.9525 883.3932 A51.5098 51.5098 0 0 0 1553.4883 871.1992L 1503.4427 883.3932 Z"/>
            <path fill="lime"
                  d="M1553.4883 871.1992 A51.5098 51.5098 0 1 0 1457.781 907.2316L 1503.4427 883.3932 Z"
                  stroke-width="2.5755" stroke="none"/>
            <path fill="none" stroke-width="2.5755"
                  d="M1553.4883 871.1992 A51.5098 51.5098 0 1 0 1457.781 907.2316L 1503.4427 883.3932 Z"/>
            <path fill="yellow"
                  d="M1457.781 907.2316 A51.5098 51.5098 0 0 0 1554.9525 883.3932L 1503.4427 883.3932 Z"
                  stroke-width="2.5755" stroke="none"/>
            <path fill="none" stroke-width="2.5755"
                  d="M1457.781 907.2316 A51.5098 51.5098 0 0 0 1554.9525 883.3932L 1503.4427 883.3932 Z"/>
            <circle fill="none" stroke-width="2.5755" r="51.5098" cx="1503.4427"
                    cy="883.3932"/>
            <text x="1406.9517" xml:space="preserve" y="809.3735" stroke="none">A 0.038</text><text x="1406.9067"
                  xml:space="preserve" y="770.7411" stroke="none">E 0.538</text><text x="1404.9707"
                  xml:space="preserve" y="732.1088" stroke="none">C 0.423</text><path fill="none"
                  d="M2170 915.5868 L2169.8508 915.5868 L2165.9875 915.5868 C2159.5869 915.5868 2154.3979 920.7757 2154.3979 927.1765 L2154.3979 934.903 L2154.3979 968.3843 L2154.3979 976.1108 C2154.3979 982.5117 2159.5869 987.7006 2165.9875 987.7006 L2169.8508 987.7006 L2170 987.7006"
                  stroke-width="7.7265" stroke-linecap="butt"
                  stroke-linejoin="bevel"/>
            <path d="M2169.8508 911.7235 L2221.3606 911.7235 L2221.3606 919.45 L2169.8508 919.45 Z"
                  stroke="none"/>
            <text font-style="italic" x="2234.238" xml:space="preserve"
                  font-size="52" y="931.3931" stroke="none">Tolpis virgata E</text><path d="M2169.8508 983.8373 L2221.3606 983.8373 L2221.3606 991.5638 L2169.8508 991.5638 Z"
                  stroke="none"/>
            <text font-style="italic" x="2234.238" xml:space="preserve"
                  font-size="52" y="1003.5069" stroke="none">Tolpis barbata E</text><path d="M779.0859 1191.1643 L934 1191.1643 L934 1198.8909 L779.0859 1198.8909 Z"
                  stroke="none"/>
            <text x="791.9634" xml:space="preserve" y="1136.4608" stroke="none"></text>
            <circle fill="yellow" stroke-width="2.5755" r="51.5098"
                    cx="869.2281" cy="1126.777" stroke="none"/>
            <circle fill="none" stroke-width="2.5755" r="51.5098" cx="869.2281"
                    cy="1126.777"/>
            <text x="796.556" xml:space="preserve" y="1052.7573" stroke="none">C 1.000</text><path fill="none"
                  d="M953 1091.364 L952.9315 1091.364 L949.0683 1091.364 C942.6675 1091.364 937.4786 1096.5529 937.4786 1102.9537 L937.4786 1110.6802 L937.4786 1279.3748 L937.4786 1287.1013 C937.4786 1293.5021 942.6675 1298.691 949.0683 1298.691 L952.9315 1298.691 L953 1298.691"
                  stroke-width="7.7265" stroke-linecap="butt"
                  stroke-linejoin="bevel"/>
            <path d="M952.9315 1087.5007 L2221.3606 1087.5007 L2221.3606 1095.2273 L952.9315 1095.2273 Z"
                  stroke="none"/>
            <text font-style="italic" x="2234.238" xml:space="preserve"
                  font-size="52" y="1107.1704" stroke="none">Tolpis spnov G</text><path d="M952.9315 1294.8279 L1108 1294.8279 L1108 1302.5544 L952.9315 1302.5544 Z"
                  stroke="none"/>
            <text x="965.809" xml:space="preserve" y="1240.1244" stroke="none"></text>
            <circle fill="yellow" stroke-width="2.5755" r="51.5098"
                    cx="1043.0737" cy="1230.4406" stroke="none"/>
            <circle fill="none" stroke-width="2.5755" r="51.5098" cx="1043.0737"
                    cy="1230.4406"/>
            <text x="970.4016" xml:space="preserve" y="1156.4209" stroke="none">C 1.000</text><path fill="none"
                  d="M1127 1166.8582 L1126.7772 1166.8582 L1122.9139 1166.8582 C1116.5131 1166.8582 1111.3242 1172.047 1111.3242 1178.4479 L1111.3242 1186.1743 L1111.3242 1411.2078 L1111.3242 1418.9343 C1111.3242 1425.3351 1116.5131 1430.524 1122.9139 1430.524 L1126.7772 1430.524 L1127 1430.524"
                  stroke-width="7.7265" stroke-linecap="butt"
                  stroke-linejoin="bevel"/>
            <path d="M1126.7771 1162.9949 L2221.3606 1162.9949 L2221.3606 1170.7214 L1126.7771 1170.7214 Z"
                  stroke="none"/>
            <text font-style="italic" x="2234.238" xml:space="preserve"
                  font-size="52" y="1182.6646" stroke="none">Tolpis farinulosa C</text><path d="M1126.7771 1426.6606 L1282 1426.6606 L1282 1434.3872 L1126.7771 1434.3872 Z"
                  stroke="none"/>
            <text x="1139.6545" xml:space="preserve" y="1371.9573" stroke="none"></text>
            <circle fill="yellow" stroke-width="2.5755" r="51.5098"
                    cx="1216.9192" cy="1362.2735" stroke="none"/>
            <circle fill="none" stroke-width="2.5755" r="51.5098" cx="1216.9192"
                    cy="1362.2735"/>
            <text x="1144.2472" xml:space="preserve" y="1288.2538" stroke="none">C 1.000</text><path fill="none"
                  d="M1301 1238.9719 L1300.6228 1238.9719 L1296.7595 1238.9719 C1290.3586 1238.9719 1285.1698 1244.1608 1285.1698 1250.5616 L1285.1698 1258.2881 L1285.1698 1602.76 L1285.1698 1610.4865 C1285.1698 1616.8872 1290.3586 1622.0762 1296.7595 1622.0762 L1300.6228 1622.0762 L1301 1622.0762"
                  stroke-width="7.7265" stroke-linecap="butt"
                  stroke-linejoin="bevel"/>
            <path d="M1300.6227 1235.1086 L2221.3606 1235.1086 L2221.3606 1242.8352 L1300.6227 1242.8352 Z"
                  stroke="none"/>
            <text font-style="italic" x="2234.238" xml:space="preserve"
                  font-size="52" y="1254.7783" stroke="none">Tolpis laciniata PH</text><path d="M1300.6227 1618.213 L1456 1618.213 L1456 1625.9396 L1300.6227 1625.9396 Z"
                  stroke="none"/>
            <text x="1313.5002" xml:space="preserve" y="1563.5095" stroke="none"></text>
            <circle fill="yellow" stroke-width="2.5755" r="51.5098"
                    cx="1390.7649" cy="1553.8257" stroke="none"/>
            <circle fill="none" stroke-width="2.5755" r="51.5098" cx="1390.7649"
                    cy="1553.8257"/>
            <text x="1318.0929" xml:space="preserve" y="1479.8062" stroke="none">C 1.000</text><path fill="none"
                  d="M1475 1473.3417 L1474.4685 1473.3417 L1470.6052 1473.3417 C1464.2043 1473.3417 1459.0155 1478.5305 1459.0155 1484.9314 L1459.0155 1492.6578 L1459.0155 1751.4946 L1459.0155 1759.2212 C1459.0155 1765.6219 1464.2043 1770.8109 1470.6052 1770.8109 L1474.4685 1770.8109 L1475 1770.8109"
                  stroke-width="7.7265" stroke-linecap="butt"
                  stroke-linejoin="bevel"/>
            <path d="M1474.4684 1469.4784 L1629 1469.4784 L1629 1477.205 L1474.4684 1477.205 Z"
                  stroke="none"/>
            <text x="1487.3458" xml:space="preserve" y="1414.7749" stroke="none"></text>
            <circle fill="yellow" stroke-width="2.5755" r="51.5098"
                    cx="1564.6105" cy="1405.0911" stroke="none"/>
            <circle fill="none" stroke-width="2.5755" r="51.5098" cx="1564.6105"
                    cy="1405.0911"/>
            <text x="1491.9385" xml:space="preserve" y="1331.0715" stroke="none">C 1.000</text><path fill="none"
                  d="M1649 1311.0858 L1648.3141 1311.0858 L1644.4508 1311.0858 C1638.0499 1311.0858 1632.8611 1316.2747 1632.8611 1322.6755 L1632.8611 1330.402 L1632.8611 1616.2815 L1632.8611 1624.0079 C1632.8611 1630.4087 1638.0499 1635.5977 1644.4508 1635.5977 L1648.3141 1635.5977 L1649 1635.5977"
                  stroke-width="7.7265" stroke-linecap="butt"
                  stroke-linejoin="bevel"/>
            <path d="M1648.314 1307.2225 L2221.3606 1307.2225 L2221.3606 1314.9491 L1648.314 1314.9491 Z"
                  stroke="none"/>
            <text font-style="italic" x="2234.238" xml:space="preserve"
                  font-size="52" y="1326.8921" stroke="none">Tolpis crassiuscula T</text><path d="M1648.314 1631.7344 L1803 1631.7344 L1803 1639.4609 L1648.314 1639.4609 Z"
                  stroke="none"/>
            <text x="1661.1914" xml:space="preserve" y="1577.0309" stroke="none"></text>
            <circle fill="yellow" stroke-width="2.5755" r="51.5098"
                    cx="1738.4561" cy="1567.3471" stroke="none"/>
            <circle fill="none" stroke-width="2.5755" r="51.5098" cx="1738.4561"
                    cy="1567.3471"/>
            <text x="1665.7841" xml:space="preserve" y="1493.3275" stroke="none">C 1.000</text><path fill="none"
                  d="M1823 1572.498 L1822.1597 1572.498 L1818.2964 1572.498 C1811.8955 1572.498 1806.7067 1577.6869 1806.7067 1584.0878 L1806.7067 1591.8142 L1806.7067 1679.3809 L1806.7067 1687.1074 C1806.7067 1693.5082 1811.8955 1698.6971 1818.2964 1698.6971 L1822.1597 1698.6971 L1823 1698.6971"
                  stroke-width="7.7265" stroke-linecap="butt"
                  stroke-linejoin="bevel"/>
            <path d="M1822.1595 1568.6348 L1977 1568.6348 L1977 1576.3613 L1822.1595 1576.3613 Z"
                  stroke="none"/>
            <text x="1835.037" xml:space="preserve" y="1513.9314" stroke="none"></text>
            <circle fill="yellow" stroke-width="2.5755" r="51.5098"
                    cx="1912.3018" cy="1504.2476" stroke="none"/>
            <circle fill="none" stroke-width="2.5755" r="51.5098" cx="1912.3018"
                    cy="1504.2476"/>
            <text x="1839.6296" xml:space="preserve" y="1430.2279" stroke="none">C 1.000</text><path fill="none"
                  d="M1997 1518.4128 L1996.0052 1518.4128 L1992.142 1518.4128 C1985.7411 1518.4128 1980.5522 1523.6017 1980.5522 1530.0026 L1980.5522 1537.729 L1980.5522 1607.2672 L1980.5522 1614.9938 C1980.5522 1621.3945 1985.7411 1626.5835 1992.142 1626.5835 L1996.0052 1626.5835 L1997 1626.5835"
                  stroke-width="7.7265" stroke-linecap="butt"
                  stroke-linejoin="bevel"/>
            <path d="M1996.0052 1514.5496 L2151 1514.5496 L2151 1522.2761 L1996.0052 1522.2761 Z"
                  stroke="none"/>
            <text x="2008.8827" xml:space="preserve" y="1459.8461" stroke="none"></text>
            <circle fill="yellow" stroke-width="2.5755" r="51.5098"
                    cx="2086.1474" cy="1450.1623" stroke="none"/>
            <circle fill="none" stroke-width="2.5755" r="51.5098" cx="2086.1474"
                    cy="1450.1623"/>
            <text x="2013.4753" xml:space="preserve" y="1376.1427" stroke="none">C 1.000</text><path fill="none"
                  d="M2170 1482.356 L2169.8508 1482.356 L2165.9875 1482.356 C2159.5869 1482.356 2154.3979 1487.5448 2154.3979 1493.9457 L2154.3979 1501.6721 L2154.3979 1535.1534 L2154.3979 1542.88 C2154.3979 1549.2808 2159.5869 1554.4697 2165.9875 1554.4697 L2169.8508 1554.4697 L2170 1554.4697"
                  stroke-width="7.7265" stroke-linecap="butt"
                  stroke-linejoin="bevel"/>
            <path d="M2169.8508 1478.4927 L2221.3606 1478.4927 L2221.3606 1486.2192 L2169.8508 1486.2192 Z"
                  stroke="none"/>
            <text font-style="italic" x="2234.238" xml:space="preserve"
                  font-size="52" y="1498.1624" stroke="none">Tolpis webbii T</text><path d="M2169.8508 1550.6064 L2221.3606 1550.6064 L2221.3606 1558.333 L2169.8508 1558.333 Z"
                  stroke="none"/>
            <text font-style="italic" x="2234.238" xml:space="preserve"
                  font-size="52" y="1570.2761" stroke="none">Tolpis santosii P</text><path d="M1996.0052 1622.7202 L2221.3606 1622.7202 L2221.3606 1630.4468 L1996.0052 1630.4468 Z"
                  stroke="none"/>
            <text font-style="italic" x="2234.238" xml:space="preserve"
                  font-size="52" y="1642.3899" stroke="none">Tolpis lagopoda TR</text><path d="M1822.1595 1694.834 L2221.3606 1694.834 L2221.3606 1702.5605 L1822.1595 1702.5605 Z"
                  stroke="none"/>
            <text font-style="italic" x="2234.238" xml:space="preserve"
                  font-size="52" y="1714.5037" stroke="none">Tolpis glabrescens T</text><path d="M1474.4684 1766.9476 L2221.3606 1766.9476 L2221.3606 1774.6742 L1474.4684 1774.6742 Z"
                  stroke="none"/>
            <text font-style="italic" x="2234.238" xml:space="preserve"
                  font-size="52" y="1786.6173" stroke="none">Tolpis coronopifolia T</text>
        </g>
    </g>
</svg>
