<?xml version="1.0"?>
<!DOCTYPE svg PUBLIC '-//W3C//DTD SVG 1.0//EN'
    'http://www.w3.org/TR/2001/REC-SVG-20010904/DTD/svg10.dtd' >

<svg fill-opacity="1" xmlns:xlink="http://www.w3.org/1999/xlink"
     color-rendering="auto" color-interpolation="auto" text-rendering="auto"
     stroke="black" stroke-linecap="square" stroke-miterlimit="10"
     shape-rendering="auto" stroke-opacity="1" fill="black"
     stroke-dasharray="none" font-weight="normal" stroke-width="1"
     xmlns="http://www.w3.org/2000/svg" font-family="&apos;Dialog&apos;"
     font-style="normal" stroke-linejoin="miter" font-size="12"
     stroke-dashoffset="0" image-rendering="auto">
    <!--Generated by the Batik Graphics2D SVG Generator-->
    <defs id="genericDefs"/>
    <g>
        <g fill="white" stroke="white">
            <rect x="0" width="2835" height="1999" y="0" stroke="none"/>
            <path fill="black"
                  d="M31 380.9039 L220 380.9039 L220 390.3089 L31 390.3089 Z"
                  stroke="none"/>
        </g>
        <g font-family="&apos;Arial&apos;" font-size="38">
            <text x="47.0252" xml:space="preserve" y="314.016" stroke="none"></text>
            <path fill="rgb(141,211,199)"
                  d="M203.7757 302.5286 A62.7002 62.7002 0 0 0 99.3164 255.7579L 141.0755 302.5286 Z"
                  stroke-width="3.135" stroke="none"/>
            <path fill="none" stroke-width="3.135"
                  d="M203.7757 302.5286 A62.7002 62.7002 0 0 0 99.3164 255.7579L 141.0755 302.5286 Z"/>
            <path fill="rgb(255,255,179)"
                  d="M99.3164 255.7579 A62.7002 62.7002 0 0 0 84.0117 276.5471L 141.0755 302.5286 Z"
                  stroke-width="3.135" stroke="none"/>
            <path fill="none" stroke-width="3.135"
                  d="M99.3164 255.7579 A62.7002 62.7002 0 0 0 84.0117 276.5471L 141.0755 302.5286 Z"/>
            <path fill="rgb(190,186,218)"
                  d="M84.0117 276.5471 A62.7002 62.7002 0 0 0 99.9074 349.8203L 141.0755 302.5286 Z"
                  stroke-width="3.135" stroke="none"/>
            <path fill="none" stroke-width="3.135"
                  d="M84.0117 276.5471 A62.7002 62.7002 0 0 0 99.9074 349.8203L 141.0755 302.5286 Z"/>
            <path fill="rgb(251,128,114)"
                  d="M99.9074 349.8203 A62.7002 62.7002 0 0 0 203.7757 302.5286L 141.0755 302.5286 Z"
                  stroke-width="3.135" stroke="none"/>
            <path fill="none" stroke-width="3.135"
                  d="M99.9074 349.8203 A62.7002 62.7002 0 0 0 203.7757 302.5286L 141.0755 302.5286 Z"/>
            <circle fill="none" stroke-width="3.135" r="62.7002" cx="141.0755"
                    cy="302.5286"/>
            <text x="54.9997" xml:space="preserve" y="212.1281" stroke="none">A 0.366</text><text x="52.5608"
                  xml:space="preserve" y="165.103" stroke="none">C 0.066</text><text x="54.9997"
                  xml:space="preserve" y="118.0778" stroke="none">E 0.204</text><text x="53.1362"
                  xml:space="preserve" y="71.0526" stroke="none">M 0.364</text><path fill="none"
                  d="M243 166.1984 L242.9634 166.1984 L238.2608 166.1984 C230.4695 166.1984 224.1533 172.5146 224.1533 180.306 L224.1533 189.711 L224.1533 572.0967 L224.1533 581.5017 C224.1533 589.2931 230.4695 595.6093 238.2608 595.6093 L242.9634 595.6093 L243 595.6093"
                  stroke-width="9.405" stroke-linecap="butt"
                  stroke-linejoin="bevel"/>
            <path d="M242.9634 161.4959 L2421.7961 161.4959 L2421.7961 170.901 L242.9634 170.901 Z"
                  stroke="none"/>
            <text font-style="italic" x="2437.4712" xml:space="preserve"
                  font-size="63" y="184.0108" stroke="none">outgroup</text><path d="M242.9634 590.9067 L432 590.9067 L432 600.3118 L242.9634 600.3118 Z"
                  stroke="none"/>
            <text x="258.6384" xml:space="preserve" y="524.0189" stroke="none"></text>
            <path fill="rgb(141,211,199)"
                  d="M415.389 512.5315 A62.7002 62.7002 0 0 0 304.3774 472.5649L 352.6888 512.5315 Z"
                  stroke-width="3.135" stroke="none"/>
            <path fill="none" stroke-width="3.135"
                  d="M415.389 512.5315 A62.7002 62.7002 0 0 0 304.3774 472.5649L 352.6888 512.5315 Z"/>
            <path fill="rgb(255,255,179)"
                  d="M304.3774 472.5649 A62.7002 62.7002 0 0 0 297.935 481.9808L 352.6888 512.5315 Z"
                  stroke-width="3.135" stroke="none"/>
            <path fill="none" stroke-width="3.135"
                  d="M304.3774 472.5649 A62.7002 62.7002 0 0 0 297.935 481.9808L 352.6888 512.5315 Z"/>
            <path fill="rgb(190,186,218)"
                  d="M297.935 481.9808 A62.7002 62.7002 0 0 0 303.6327 551.5804L 352.6888 512.5315 Z"
                  stroke-width="3.135" stroke="none"/>
            <path fill="none" stroke-width="3.135"
                  d="M297.935 481.9808 A62.7002 62.7002 0 0 0 303.6327 551.5804L 352.6888 512.5315 Z"/>
            <path fill="rgb(251,128,114)"
                  d="M303.6327 551.5804 A62.7002 62.7002 0 0 0 415.389 512.5315L 352.6888 512.5315 Z"
                  stroke-width="3.135" stroke="none"/>
            <path fill="none" stroke-width="3.135"
                  d="M303.6327 551.5804 A62.7002 62.7002 0 0 0 415.389 512.5315L 352.6888 512.5315 Z"/>
            <circle fill="none" stroke-width="3.135" r="62.7002" cx="352.6888"
                    cy="512.5315"/>
            <text x="266.6678" xml:space="preserve" y="422.131" stroke="none">A 0.390</text><text x="264.1466"
                  xml:space="preserve" y="375.1059" stroke="none">C 0.029</text><text x="266.5308"
                  xml:space="preserve" y="328.0807" stroke="none">E 0.188</text><text x="264.6947"
                  xml:space="preserve" y="281.0555" stroke="none">M 0.393</text><path fill="none"
                  d="M455 253.9788 L454.5766 253.9788 L449.8741 253.9788 C442.0827 253.9788 435.7666 260.295 435.7666 268.0863 L435.7666 277.4914 L435.7666 913.7272 L435.7666 923.1322 C435.7666 930.9236 442.0827 937.2397 449.8741 937.2397 L454.5766 937.2397 L455 937.2397"
                  stroke-width="9.405" stroke-linecap="butt"
                  stroke-linejoin="bevel"/>
            <path d="M454.5766 249.2762 L2421.7961 249.2762 L2421.7961 258.6813 L454.5766 258.6813 Z"
                  stroke="none"/>
            <text font-style="italic" x="2437.4712" xml:space="preserve"
                  font-size="63" y="271.7911" stroke="none">taxonI</text><path d="M454.5766 932.5373 L643 932.5373 L643 941.9423 L454.5766 941.9423 Z"
                  stroke="none"/>
            <text x="470.2517" xml:space="preserve" y="865.6494" stroke="none"></text>
            <path fill="rgb(141,211,199)"
                  d="M627.0023 854.162 A62.7002 62.7002 0 0 0 544.9266 794.5306L 564.302 854.162 Z"
                  stroke-width="3.135" stroke="none"/>
            <path fill="none" stroke-width="3.135"
                  d="M627.0023 854.162 A62.7002 62.7002 0 0 0 544.9266 794.5306L 564.302 854.162 Z"/>
            <path fill="rgb(255,255,179)"
                  d="M544.9266 794.5306 A62.7002 62.7002 0 0 0 528.0881 802.9774L 564.302 854.162 Z"
                  stroke-width="3.135" stroke="none"/>
            <path fill="none" stroke-width="3.135"
                  d="M544.9266 794.5306 A62.7002 62.7002 0 0 0 528.0881 802.9774L 564.302 854.162 Z"/>
            <path fill="rgb(190,186,218)"
                  d="M528.0881 802.9774 A62.7002 62.7002 0 0 0 545.6775 914.0322L 564.302 854.162 Z"
                  stroke-width="3.135" stroke="none"/>
            <path fill="none" stroke-width="3.135"
                  d="M528.0881 802.9774 A62.7002 62.7002 0 0 0 545.6775 914.0322L 564.302 854.162 Z"/>
            <path fill="rgb(251,128,114)"
                  d="M545.6775 914.0322 A62.7002 62.7002 0 0 0 627.0023 854.162L 564.302 854.162 Z"
                  stroke-width="3.135" stroke="none"/>
            <path fill="none" stroke-width="3.135"
                  d="M545.6775 914.0322 A62.7002 62.7002 0 0 0 627.0023 854.162L 564.302 854.162 Z"/>
            <circle fill="none" stroke-width="3.135" r="62.7002" cx="564.302"
                    cy="854.162"/>
            <text x="478.281" xml:space="preserve" y="763.7615" stroke="none">A 0.300</text><text x="475.7599"
                  xml:space="preserve" y="716.7364" stroke="none">C 0.048</text><text x="478.2263"
                  xml:space="preserve" y="669.7112" stroke="none">E 0.354</text><text x="476.2805"
                  xml:space="preserve" y="622.686" stroke="none">M 0.298</text><path fill="none"
                  d="M667 619.2076 L666.1899 619.2076 L661.4874 619.2076 C653.696 619.2076 647.3798 625.5237 647.3798 633.3151 L647.3798 642.7202 L647.3798 1231.7594 L647.3798 1241.1644 C647.3798 1248.9558 653.696 1255.272 661.4874 1255.272 L666.1899 1255.272 L667 1255.272"
                  stroke-width="9.405" stroke-linecap="butt"
                  stroke-linejoin="bevel"/>
            <path d="M666.1899 614.5051 L2124 614.5051 L2124 623.9102 L666.1899 623.9102 Z"
                  stroke="none"/>
            <text x="1316.7047" xml:space="preserve" y="547.6172" stroke="none"></text>
            <path fill="rgb(141,211,199)"
                  d="M1473.4553 536.1298 A62.7002 62.7002 0 1 0 1349.7976 550.8101L 1410.755 536.1298 Z"
                  stroke-width="3.135" stroke="none"/>
            <path fill="none" stroke-width="3.135"
                  d="M1473.4553 536.1298 A62.7002 62.7002 0 1 0 1349.7976 550.8101L 1410.755 536.1298 Z"/>
            <path fill="rgb(251,128,114)"
                  d="M1349.7976 550.8101 A62.7002 62.7002 0 0 0 1473.4553 536.1298L 1410.755 536.1298 Z"
                  stroke-width="3.135" stroke="none"/>
            <path fill="none" stroke-width="3.135"
                  d="M1349.7976 550.8101 A62.7002 62.7002 0 0 0 1473.4553 536.1298L 1410.755 536.1298 Z"/>
            <circle fill="none" stroke-width="3.135" r="62.7002" cx="1410.755"
                    cy="536.1298"/>
            <text x="1324.6793" xml:space="preserve" y="445.7294" stroke="none">A 0.536</text><text x="1325.6658"
                  xml:space="preserve" y="398.7042" stroke="none">M 0.461</text><path fill="none"
                  d="M2148 553.3724 L2147.4832 553.3724 L2142.7805 553.3724 C2134.989 553.3724 2128.6729 559.6885 2128.6729 567.4799 L2128.6729 576.8849 L2128.6729 661.5303 L2128.6729 670.9353 C2128.6729 678.7267 2134.989 685.0428 2142.7805 685.0428 L2147.4832 685.0428 L2148 685.0428"
                  stroke-width="9.405" stroke-linecap="butt"
                  stroke-linejoin="bevel"/>
            <path d="M2147.4827 548.6699 L2336 548.6699 L2336 558.0749 L2147.4827 558.0749 Z"
                  stroke="none"/>
            <text x="2163.1577" xml:space="preserve" y="481.782" stroke="none"></text>
            <path fill="rgb(141,211,199)"
                  d="M2319.9083 470.2946 A62.7002 62.7002 0 1 0 2194.5091 470.6885L 2257.208 470.2946 Z"
                  stroke-width="3.135" stroke="none"/>
            <path fill="none" stroke-width="3.135"
                  d="M2319.9083 470.2946 A62.7002 62.7002 0 1 0 2194.5091 470.6885L 2257.208 470.2946 Z"/>
            <path fill="rgb(251,128,114)"
                  d="M2194.5091 470.6885 A62.7002 62.7002 0 0 0 2319.9083 470.2946L 2257.208 470.2946 Z"
                  stroke-width="3.135" stroke="none"/>
            <path fill="none" stroke-width="3.135"
                  d="M2194.5091 470.6885 A62.7002 62.7002 0 0 0 2319.9083 470.2946L 2257.208 470.2946 Z"/>
            <circle fill="none" stroke-width="3.135" r="62.7002" cx="2257.208"
                    cy="470.2946"/>
            <text x="2174.0374" xml:space="preserve" y="379.8941" stroke="none">A 0.501</text><text x="2169.1865"
                  xml:space="preserve" y="332.869" stroke="none">M 0.499</text><path fill="none"
                  d="M2360 509.4822 L2359.0964 509.4822 L2354.3938 509.4822 C2346.6023 509.4822 2340.2861 515.7984 2340.2861 523.5898 L2340.2861 532.9948 L2340.2861 573.7499 L2340.2861 583.155 C2340.2861 590.9464 2346.6023 597.2625 2354.3938 597.2625 L2359.0964 597.2625 L2360 597.2625"
                  stroke-width="9.405" stroke-linecap="butt"
                  stroke-linejoin="bevel"/>
            <path d="M2359.0959 504.7797 L2421.7961 504.7797 L2421.7961 514.1848 L2359.0959 514.1848 Z"
                  stroke="none"/>
            <text font-style="italic" x="2437.4712" xml:space="preserve"
                  font-size="63" y="527.2946" stroke="none">taxonL</text><path d="M2359.0959 592.56 L2421.7961 592.56 L2421.7961 601.965 L2359.0959 601.965 Z"
                  stroke="none"/>
            <text font-style="italic" x="2437.4712" xml:space="preserve"
                  font-size="63" y="615.0749" stroke="none">taxonM</text><path d="M2147.4827 680.3403 L2421.7961 680.3403 L2421.7961 689.7453 L2147.4827 689.7453 Z"
                  stroke="none"/>
            <text font-style="italic" x="2437.4712" xml:space="preserve"
                  font-size="63" y="702.8552" stroke="none">taxonA</text><path d="M666.1899 1250.5693 L855 1250.5693 L855 1259.9744 L666.1899 1259.9744 Z"
                  stroke="none"/>
            <text x="681.8649" xml:space="preserve" y="1183.6815" stroke="none"></text>
            <path fill="rgb(141,211,199)"
                  d="M838.6155 1172.1941 A62.7002 62.7002 0 0 0 837.6458 1161.2093L 775.9153 1172.1941 Z"
                  stroke-width="3.135" stroke="none"/>
            <path fill="none" stroke-width="3.135"
                  d="M838.6155 1172.1941 A62.7002 62.7002 0 0 0 837.6458 1161.2093L 775.9153 1172.1941 Z"/>
            <path fill="rgb(255,255,179)"
                  d="M837.6458 1161.2093 A62.7002 62.7002 0 0 0 783.6837 1109.977L 775.9153 1172.1941 Z"
                  stroke-width="3.135" stroke="none"/>
            <path fill="none" stroke-width="3.135"
                  d="M837.6458 1161.2093 A62.7002 62.7002 0 0 0 783.6837 1109.977L 775.9153 1172.1941 Z"/>
            <path fill="rgb(190,186,218)"
                  d="M783.6837 1109.977 A62.7002 62.7002 0 1 0 837.5027 1183.9546L 775.9153 1172.1941 Z"
                  stroke-width="3.135" stroke="none"/>
            <path fill="none" stroke-width="3.135"
                  d="M783.6837 1109.977 A62.7002 62.7002 0 1 0 837.5027 1183.9546L 775.9153 1172.1941 Z"/>
            <path fill="rgb(251,128,114)"
                  d="M837.5027 1183.9546 A62.7002 62.7002 0 0 0 838.6155 1172.1941L 775.9153 1172.1941 Z"
                  stroke-width="3.135" stroke="none"/>
            <path fill="none" stroke-width="3.135"
                  d="M837.5027 1183.9546 A62.7002 62.7002 0 0 0 838.6155 1172.1941L 775.9153 1172.1941 Z"/>
            <circle fill="none" stroke-width="3.135" r="62.7002" cx="775.9153"
                    cy="1172.1941"/>
            <text x="689.8121" xml:space="preserve" y="1081.7937" stroke="none">A 0.028</text><text x="687.5376"
                  xml:space="preserve" y="1034.7686" stroke="none">C 0.202</text><text x="689.7573"
                  xml:space="preserve" y="987.7433" stroke="none">E 0.739</text><text x="687.9761"
                  xml:space="preserve" y="940.7181" stroke="none">M 0.030</text><path fill="none"
                  d="M878 772.8231 L877.8032 772.8231 L873.1006 772.8231 C865.3093 772.8231 858.9931 779.1393 858.9931 786.9307 L858.9931 796.3357 L858.9931 1714.2083 L858.9931 1723.6133 C858.9931 1731.4047 865.3093 1737.7208 873.1006 1737.7208 L877.8032 1737.7208 L878 1737.7208"
                  stroke-width="9.405" stroke-linecap="butt"
                  stroke-linejoin="bevel"/>
            <path d="M877.8032 768.1207 L2421.7961 768.1207 L2421.7961 777.5257 L877.8032 777.5257 Z"
                  stroke="none"/>
            <text font-style="italic" x="2437.4712" xml:space="preserve"
                  font-size="63" y="790.6355" stroke="none">taxonB</text><path d="M877.8032 1733.0183 L1066 1733.0183 L1066 1742.4233 L877.8032 1742.4233 Z"
                  stroke="none"/>
            <text x="893.4782" xml:space="preserve" y="1666.1304" stroke="none"></text>
            <path fill="rgb(141,211,199)"
                  d="M1050.2288 1654.643 A62.7002 62.7002 0 0 0 1049.9122 1648.3503L 987.5285 1654.643 Z"
                  stroke-width="3.135" stroke="none"/>
            <path fill="none" stroke-width="3.135"
                  d="M1050.2288 1654.643 A62.7002 62.7002 0 0 0 1049.9122 1648.3503L 987.5285 1654.643 Z"/>
            <path fill="rgb(255,255,179)"
                  d="M1049.9122 1648.3503 A62.7002 62.7002 0 0 0 944.0363 1609.4794L 987.5285 1654.643 Z"
                  stroke-width="3.135" stroke="none"/>
            <path fill="none" stroke-width="3.135"
                  d="M1049.9122 1648.3503 A62.7002 62.7002 0 0 0 944.0363 1609.4794L 987.5285 1654.643 Z"/>
            <path fill="rgb(190,186,218)"
                  d="M944.0363 1609.4794 A62.7002 62.7002 0 1 0 1049.9122 1660.9357L 987.5285 1654.643 Z"
                  stroke-width="3.135" stroke="none"/>
            <path fill="none" stroke-width="3.135"
                  d="M944.0363 1609.4794 A62.7002 62.7002 0 1 0 1049.9122 1660.9357L 987.5285 1654.643 Z"/>
            <path fill="rgb(251,128,114)"
                  d="M1049.9122 1660.9357 A62.7002 62.7002 0 0 0 1050.2288 1654.643L 987.5285 1654.643 Z"
                  stroke-width="3.135" stroke="none"/>
            <path fill="none" stroke-width="3.135"
                  d="M1049.9122 1660.9357 A62.7002 62.7002 0 0 0 1050.2288 1654.643L 987.5285 1654.643 Z"/>
            <circle fill="none" stroke-width="3.135" r="62.7002" cx="987.5285"
                    cy="1654.643"/>
            <text x="901.4528" xml:space="preserve" y="1564.2426" stroke="none">A 0.016</text><text x="899.0138"
                  xml:space="preserve" y="1517.2174" stroke="none">C 0.356</text><text x="901.535"
                  xml:space="preserve" y="1470.1923" stroke="none">E 0.612</text><text x="899.5345"
                  xml:space="preserve" y="1423.1671" stroke="none">M 0.016</text><path fill="none"
                  d="M1090 1583.4196 L1089.4164 1583.4196 L1084.7139 1583.4196 C1076.9225 1583.4196 1070.6063 1589.7357 1070.6063 1597.5271 L1070.6063 1606.9321 L1070.6063 1868.5096 L1070.6063 1877.9147 C1070.6063 1885.7061 1076.9225 1892.0222 1084.7139 1892.0222 L1089.4164 1892.0222 L1090 1892.0222"
                  stroke-width="9.405" stroke-linecap="butt"
                  stroke-linejoin="bevel"/>
            <path d="M1089.4164 1578.7169 L1278 1578.7169 L1278 1588.1219 L1089.4164 1588.1219 Z"
                  stroke="none"/>
            <text x="1105.0914" xml:space="preserve" y="1511.8291" stroke="none"></text>
            <circle fill="rgb(255,255,179)" stroke-width="3.135" r="62.7002"
                    cx="1199.1419" cy="1500.3417" stroke="none"/>
            <circle fill="none" stroke-width="3.135" r="62.7002" cx="1199.1419"
                    cy="1500.3417"/>
            <text x="1110.5996" xml:space="preserve" y="1409.9413" stroke="none">C 0.999</text><path fill="none"
                  d="M1302 1362.5972 L1301.0297 1362.5972 L1296.3271 1362.5972 C1288.5358 1362.5972 1282.2196 1368.9133 1282.2196 1376.7047 L1282.2196 1386.1097 L1282.2196 1780.7294 L1282.2196 1790.1344 C1282.2196 1797.9258 1288.5358 1804.2419 1296.3271 1804.2419 L1301.0297 1804.2419 L1302 1804.2419"
                  stroke-width="9.405" stroke-linecap="butt"
                  stroke-linejoin="bevel"/>
            <path d="M1301.0297 1357.8945 L1490 1357.8945 L1490 1367.2996 L1301.0297 1367.2996 Z"
                  stroke="none"/>
            <text x="1316.7047" xml:space="preserve" y="1291.0067" stroke="none"></text>
            <circle fill="rgb(255,255,179)" stroke-width="3.135" r="62.7002"
                    cx="1410.755" cy="1279.5193" stroke="none"/>
            <circle fill="none" stroke-width="3.135" r="62.7002" cx="1410.755"
                    cy="1279.5193"/>
            <text x="1322.2952" xml:space="preserve" y="1189.1189" stroke="none">C 1.000</text><path fill="none"
                  d="M1513 1091.0269 L1512.6429 1091.0269 L1507.9404 1091.0269 C1500.149 1091.0269 1493.8329 1097.343 1493.8329 1105.1344 L1493.8329 1114.5394 L1493.8329 1610.655 L1493.8329 1620.0601 C1493.8329 1627.8514 1500.149 1634.1676 1507.9404 1634.1676 L1512.6429 1634.1676 L1513 1634.1676"
                  stroke-width="9.405" stroke-linecap="butt"
                  stroke-linejoin="bevel"/>
            <path d="M1512.6429 1086.3242 L2124 1086.3242 L2124 1095.7292 L1512.6429 1095.7292 Z"
                  stroke="none"/>
            <text x="1739.9313" xml:space="preserve" y="1019.4364" stroke="none"></text>
            <circle fill="rgb(255,255,179)" stroke-width="3.135" r="62.7002"
                    cx="1833.9816" cy="1007.949" stroke="none"/>
            <circle fill="none" stroke-width="3.135" r="62.7002" cx="1833.9816"
                    cy="1007.949"/>
            <text x="1745.5217" xml:space="preserve" y="917.5485" stroke="none">C 1.000</text><path fill="none"
                  d="M2148 1025.1917 L2147.4832 1025.1917 L2142.7805 1025.1917 C2134.989 1025.1917 2128.6729 1031.5078 2128.6729 1039.2992 L2128.6729 1048.7042 L2128.6729 1133.3495 L2128.6729 1142.7545 C2128.6729 1150.5459 2134.989 1156.8621 2142.7805 1156.8621 L2147.4832 1156.8621 L2148 1156.8621"
                  stroke-width="9.405" stroke-linecap="butt"
                  stroke-linejoin="bevel"/>
            <path d="M2147.4827 1020.4891 L2336 1020.4891 L2336 1029.8942 L2147.4827 1029.8942 Z"
                  stroke="none"/>
            <text x="2163.1577" xml:space="preserve" y="953.6012" stroke="none"></text>
            <circle fill="rgb(255,255,179)" stroke-width="3.135" r="62.7002"
                    cx="2257.208" cy="942.1138" stroke="none"/>
            <circle fill="none" stroke-width="3.135" r="62.7002" cx="2257.208"
                    cy="942.1138"/>
            <text x="2168.666" xml:space="preserve" y="851.7134" stroke="none">C 0.998</text><path fill="none"
                  d="M2360 981.3015 L2359.0964 981.3015 L2354.3938 981.3015 C2346.6023 981.3015 2340.2861 987.6177 2340.2861 995.4091 L2340.2861 1004.8141 L2340.2861 1045.5692 L2340.2861 1054.9742 C2340.2861 1062.7656 2346.6023 1069.0818 2354.3938 1069.0818 L2359.0964 1069.0818 L2360 1069.0818"
                  stroke-width="9.405" stroke-linecap="butt"
                  stroke-linejoin="bevel"/>
            <path d="M2359.0959 976.599 L2421.7961 976.599 L2421.7961 986.004 L2359.0959 986.004 Z"
                  stroke="none"/>
            <text font-style="italic" x="2437.4712" xml:space="preserve"
                  font-size="63" y="999.1139" stroke="none">taxonG</text><path d="M2359.0959 1064.3793 L2421.7961 1064.3793 L2421.7961 1073.7843 L2359.0959 1073.7843 Z"
                  stroke="none"/>
            <text font-style="italic" x="2437.4712" xml:space="preserve"
                  font-size="63" y="1086.8942" stroke="none">taxonE</text><path d="M2147.4827 1152.1595 L2421.7961 1152.1595 L2421.7961 1161.5646 L2147.4827 1161.5646 Z"
                  stroke="none"/>
            <text font-style="italic" x="2437.4712" xml:space="preserve"
                  font-size="63" y="1174.6744" stroke="none">taxonD</text><path d="M1512.6429 1629.465 L1701 1629.465 L1701 1638.87 L1512.6429 1638.87 Z"
                  stroke="none"/>
            <text x="1528.318" xml:space="preserve" y="1562.5771" stroke="none"></text>
            <circle fill="rgb(255,255,179)" stroke-width="3.135" r="62.7002"
                    cx="1622.3683" cy="1551.0898" stroke="none"/>
            <circle fill="none" stroke-width="3.135" r="62.7002" cx="1622.3683"
                    cy="1551.0898"/>
            <text x="1533.9084" xml:space="preserve" y="1460.6893" stroke="none">C 1.000</text><path fill="none"
                  d="M1725 1551.8735 L1724.2562 1551.8735 L1719.5537 1551.8735 C1711.7623 1551.8735 1705.4462 1558.1897 1705.4462 1565.9811 L1705.4462 1575.3861 L1705.4462 1692.9491 L1705.4462 1702.3541 C1705.4462 1710.1455 1711.7623 1716.4617 1719.5537 1716.4617 L1724.2562 1716.4617 L1725 1716.4617"
                  stroke-width="9.405" stroke-linecap="butt"
                  stroke-linejoin="bevel"/>
            <path d="M1724.2562 1547.1709 L1913 1547.1709 L1913 1556.5759 L1724.2562 1556.5759 Z"
                  stroke="none"/>
            <text x="1739.9313" xml:space="preserve" y="1480.2831" stroke="none"></text>
            <circle fill="rgb(255,255,179)" stroke-width="3.135" r="62.7002"
                    cx="1833.9816" cy="1468.7957" stroke="none"/>
            <circle fill="none" stroke-width="3.135" r="62.7002" cx="1833.9816"
                    cy="1468.7957"/>
            <text x="1745.5217" xml:space="preserve" y="1378.3953" stroke="none">C 1.000</text><path fill="none"
                  d="M1936 1475.0657 L1935.8695 1475.0657 L1931.167 1475.0657 C1923.3756 1475.0657 1917.0594 1481.3818 1917.0594 1489.1732 L1917.0594 1498.5782 L1917.0594 1605.1687 L1917.0594 1614.5737 C1917.0594 1622.3651 1923.3756 1628.6813 1931.167 1628.6813 L1935.8695 1628.6813 L1936 1628.6813"
                  stroke-width="9.405" stroke-linecap="butt"
                  stroke-linejoin="bevel"/>
            <path d="M1935.8695 1470.3632 L2124 1470.3632 L2124 1479.7682 L1935.8695 1479.7682 Z"
                  stroke="none"/>
            <text x="1951.5446" xml:space="preserve" y="1403.4753" stroke="none"></text>
            <circle fill="rgb(255,255,179)" stroke-width="3.135" r="62.7002"
                    cx="2045.5949" cy="1391.9878" stroke="none"/>
            <circle fill="none" stroke-width="3.135" r="62.7002" cx="2045.5949"
                    cy="1391.9878"/>
            <text x="1957.1349" xml:space="preserve" y="1301.5874" stroke="none">C 1.000</text><path fill="none"
                  d="M2148 1409.2306 L2147.4832 1409.2306 L2142.7805 1409.2306 C2134.989 1409.2306 2128.6729 1415.5468 2128.6729 1423.3381 L2128.6729 1432.7432 L2128.6729 1517.3884 L2128.6729 1526.7936 C2128.6729 1534.585 2134.989 1540.9011 2142.7805 1540.9011 L2147.4832 1540.9011 L2148 1540.9011"
                  stroke-width="9.405" stroke-linecap="butt"
                  stroke-linejoin="bevel"/>
            <path d="M2147.4827 1404.528 L2336 1404.528 L2336 1413.933 L2147.4827 1413.933 Z"
                  stroke="none"/>
            <text x="2163.1577" xml:space="preserve" y="1337.6401" stroke="none"></text>
            <circle fill="rgb(255,255,179)" stroke-width="3.135" r="62.7002"
                    cx="2257.208" cy="1326.1527" stroke="none"/>
            <circle fill="none" stroke-width="3.135" r="62.7002" cx="2257.208"
                    cy="1326.1527"/>
            <text x="2168.7483" xml:space="preserve" y="1235.7522" stroke="none">C 1.000</text><path fill="none"
                  d="M2360 1365.3403 L2359.0964 1365.3403 L2354.3938 1365.3403 C2346.6023 1365.3403 2340.2861 1371.6565 2340.2861 1379.4479 L2340.2861 1388.8529 L2340.2861 1429.608 L2340.2861 1439.0131 C2340.2861 1446.8044 2346.6023 1453.1206 2354.3938 1453.1206 L2359.0964 1453.1206 L2360 1453.1206"
                  stroke-width="9.405" stroke-linecap="butt"
                  stroke-linejoin="bevel"/>
            <path d="M2359.0959 1360.6378 L2421.7961 1360.6378 L2421.7961 1370.0428 L2359.0959 1370.0428 Z"
                  stroke="none"/>
            <text font-style="italic" x="2437.4712" xml:space="preserve"
                  font-size="63" y="1383.1526" stroke="none">taxonJ</text><path d="M2359.0959 1448.4182 L2421.7961 1448.4182 L2421.7961 1457.8232 L2359.0959 1457.8232 Z"
                  stroke="none"/>
            <text font-style="italic" x="2437.4712" xml:space="preserve"
                  font-size="63" y="1470.9331" stroke="none">taxonH</text><path d="M2147.4827 1536.1985 L2421.7961 1536.1985 L2421.7961 1545.6035 L2147.4827 1545.6035 Z"
                  stroke="none"/>
            <text font-style="italic" x="2437.4712" xml:space="preserve"
                  font-size="63" y="1558.7134" stroke="none">taxonO</text><path d="M1935.8695 1623.9788 L2421.7964 1623.9788 L2421.7964 1633.3838 L1935.8695 1633.3838 Z"
                  stroke="none"/>
            <text font-style="italic" x="2437.4712" xml:space="preserve"
                  font-size="63" y="1646.4937" stroke="none">taxonC</text><path d="M1724.2562 1711.7592 L2421.7964 1711.7592 L2421.7964 1721.1642 L1724.2562 1721.1642 Z"
                  stroke="none"/>
            <text font-style="italic" x="2437.4712" xml:space="preserve"
                  font-size="63" y="1734.274" stroke="none">taxonF</text><path d="M1301.0297 1799.5393 L2421.7961 1799.5393 L2421.7961 1808.9443 L1301.0297 1808.9443 Z"
                  stroke="none"/>
            <text font-style="italic" x="2437.4712" xml:space="preserve"
                  font-size="63" y="1822.0542" stroke="none">taxonK</text><path d="M1089.4164 1887.3197 L2421.7961 1887.3197 L2421.7961 1896.7247 L1089.4164 1896.7247 Z"
                  stroke="none"/>
            <text font-style="italic" x="2437.4712" xml:space="preserve"
                  font-size="63" y="1909.8346" stroke="none">taxonN</text>
        </g><g fill="rgb(190,186,218)" font-style="italic"
           stroke-width="47.0252" font-size="63" font-family="&apos;Arial&apos;"
           stroke="rgb(190,186,218)">
            <line y2="170.1172" fill="none" x1="2752.3521" x2="2752.3521"
                  y1="170.1172"/>
        </g>
        <g fill="white" font-size="75" font-family="&apos;Arial&apos;"
           stroke="white">
            <text x="2787.6206" xml:space="preserve" y="187.1733" stroke="none"></text>
        </g>
        <g fill="rgb(190,186,218)" font-size="75" stroke-width="47.0252"
           font-family="&apos;Arial&apos;" stroke="rgb(190,186,218)">
            <line y2="1895.941" fill="none" x1="2752.3521" x2="2752.3521"
                  y1="1895.941"/>
            <text fill="white" x="2787.6206" xml:space="preserve"
                  stroke-width="1" y="1912.9972" stroke="none"></text>
        </g>
        <g fill="rgb(255,255,179)" font-size="75" stroke-width="47.0252"
           font-family="&apos;Arial&apos;" stroke="rgb(255,255,179)">
            <line y2="1544.8197" fill="none" x1="2752.3521" x2="2752.3521"
                  y1="1544.8197"/>
            <text fill="white" x="2787.6206" xml:space="preserve"
                  stroke-width="1" y="1561.8757" stroke="none"></text>
        </g>
        <g fill="rgb(141,211,199)" font-size="75" stroke-width="47.0252"
           font-family="&apos;Arial&apos;" stroke="rgb(141,211,199)">
            <line y2="513.4009" fill="none" x1="2752.3521" x2="2752.3521"
                  y1="513.4009"/>
            <text fill="white" x="2787.6206" xml:space="preserve"
                  stroke-width="1" y="530.457" stroke="none"></text>
        </g>
        <g fill="rgb(251,128,114)" font-size="75" stroke-width="47.0252"
           font-family="&apos;Arial&apos;" stroke="rgb(251,128,114)">
            <line y2="601.1812" fill="none" x1="2752.3521" x2="2752.3521"
                  y1="601.1812"/>
            <text fill="white" x="2787.6206" xml:space="preserve"
                  stroke-width="1" y="618.2373" stroke="none"></text>
        </g>
        <g fill="rgb(255,255,179)" font-size="75" stroke-width="47.0252"
           font-family="&apos;Arial&apos;" stroke="rgb(255,255,179)">
            <line y2="1369.259" fill="none" x1="2752.3521" x2="2752.3521"
                  y1="1369.259"/>
            <text fill="white" x="2787.6206" xml:space="preserve"
                  stroke-width="1" y="1386.3152" stroke="none"></text>
        </g>
        <g fill="rgb(255,255,179)" font-size="75" stroke-width="47.0252"
           font-family="&apos;Arial&apos;" stroke="rgb(255,255,179)">
            <line y2="1808.1606" fill="none" x1="2752.3521" x2="2752.3521"
                  y1="1808.1606"/>
            <text fill="white" x="2787.6206" xml:space="preserve"
                  stroke-width="1" y="1825.2168" stroke="none"></text>
        </g>
        <g fill="rgb(255,255,179)" font-size="75" stroke-width="47.0252"
           font-family="&apos;Arial&apos;" stroke="rgb(255,255,179)">
            <line y2="1457.0394" fill="none" x1="2752.3521" x2="2752.3521"
                  y1="1457.0394"/>
            <text fill="white" x="2787.6206" xml:space="preserve"
                  stroke-width="1" y="1474.0956" stroke="none"></text>
        </g>
        <g fill="rgb(251,128,114)" font-size="75" stroke-width="47.0252"
           font-family="&apos;Arial&apos;" stroke="rgb(251,128,114)">
            <line y2="257.8975" fill="none" x1="2752.3521" x2="2752.3521"
                  y1="257.8975"/>
            <text fill="white" x="2787.6206" xml:space="preserve"
                  stroke-width="1" y="274.9536" stroke="none"></text>
        </g>
        <g fill="rgb(255,255,179)" font-size="75" stroke-width="47.0252"
           font-family="&apos;Arial&apos;" stroke="rgb(255,255,179)">
            <line y2="1720.3804" fill="none" x1="2752.3521" x2="2752.3521"
                  y1="1720.3804"/>
            <text fill="white" x="2787.6206" xml:space="preserve"
                  stroke-width="1" y="1737.4365" stroke="none"></text>
        </g>
        <g fill="rgb(255,255,179)" font-size="75" stroke-width="47.0252"
           font-family="&apos;Arial&apos;" stroke="rgb(255,255,179)">
            <line y2="985.2203" fill="none" x1="2752.3521" x2="2752.3521"
                  y1="985.2203"/>
            <text fill="white" x="2787.6206" xml:space="preserve"
                  stroke-width="1" y="1002.2762" stroke="none"></text>
        </g>
        <g fill="rgb(255,255,179)" font-size="75" stroke-width="47.0252"
           font-family="&apos;Arial&apos;" stroke="rgb(255,255,179)">
            <line y2="1160.7809" fill="none" x1="2752.3521" x2="2752.3521"
                  y1="1160.7809"/>
            <text fill="white" x="2787.6206" xml:space="preserve"
                  stroke-width="1" y="1177.8369" stroke="none"></text>
        </g>
        <g fill="rgb(255,255,179)" font-size="75" stroke-width="47.0252"
           font-family="&apos;Arial&apos;" stroke="rgb(255,255,179)">
            <line y2="1073.0005" fill="none" x1="2752.3521" x2="2752.3521"
                  y1="1073.0005"/>
            <text fill="white" x="2787.6206" xml:space="preserve"
                  stroke-width="1" y="1090.0566" stroke="none"></text>
        </g>
        <g fill="rgb(190,186,218)" font-size="75" stroke-width="47.0252"
           font-family="&apos;Arial&apos;" stroke="rgb(190,186,218)">
            <line y2="776.7419" fill="none" x1="2752.3521" x2="2752.3521"
                  y1="776.7419"/>
            <text fill="white" x="2787.6206" xml:space="preserve"
                  stroke-width="1" y="793.798" stroke="none"></text>
        </g>
        <g fill="rgb(255,255,179)" font-size="75" stroke-width="47.0252"
           font-family="&apos;Arial&apos;" stroke="rgb(255,255,179)">
            <line y2="1632.6" fill="none" x1="2752.3521" x2="2752.3521"
                  y1="1632.6"/>
            <text fill="white" x="2787.6206" xml:space="preserve"
                  stroke-width="1" y="1649.6561" stroke="none"></text>
        </g>
        <g fill="rgb(141,211,199)" font-size="75" stroke-width="47.0252"
           font-family="&apos;Arial&apos;" stroke="rgb(141,211,199)">
            <line y2="688.9615" fill="none" x1="2752.3521" x2="2752.3521"
                  y1="688.9615"/>
            <text fill="white" x="2787.6206" xml:space="preserve"
                  stroke-width="1" y="706.0176" stroke="none"></text>
        </g>
    </g>
</svg>
