<?xml version="1.0"?>
<!DOCTYPE svg PUBLIC '-//W3C//DTD SVG 1.0//EN'
    'http://www.w3.org/TR/2001/REC-SVG-20010904/DTD/svg10.dtd' >

<svg fill-opacity="1" xmlns:xlink="http://www.w3.org/1999/xlink"
     color-rendering="auto" color-interpolation="auto" text-rendering="auto"
     stroke="black" stroke-linecap="square" stroke-miterlimit="10"
     shape-rendering="auto" stroke-opacity="1" fill="black"
     stroke-dasharray="none" font-weight="normal" stroke-width="1"
     xmlns="http://www.w3.org/2000/svg" font-family="&apos;Dialog&apos;"
     font-style="normal" stroke-linejoin="miter" font-size="12"
     stroke-dashoffset="0" image-rendering="auto">
    <!--Generated by the Batik Graphics2D SVG Generator-->
    <defs id="genericDefs"/>
    <g>
        <g fill="white" stroke="white">
            <rect x="0" width="2835" height="2225" y="0" stroke="none"/>
            <path fill="black"
                  d="M33 410.6038 L218 410.6038 L218 420.7421 L33 420.7421 Z"
                  stroke="none"/>
            <path fill="rgb(141,211,199)"
                  d="M193.4029 326.1174 A67.5891 67.5891 0 0 0 125.8138 258.5283L 125.8138 326.1174 Z"
                  stroke-width="3.3795" stroke="none"/>
            <path fill="none"
                  d="M193.4029 326.1174 A67.5891 67.5891 0 0 0 125.8138 258.5283L 125.8138 326.1174 Z"
                  stroke-width="3.3795" stroke="black"/>
            <path fill="rgb(190,186,218)"
                  d="M125.8138 258.5283 A67.5891 67.5891 0 0 0 58.2247 326.1174L 125.8138 326.1174 Z"
                  stroke-width="3.3795" stroke="none"/>
            <path fill="none"
                  d="M125.8138 258.5283 A67.5891 67.5891 0 0 0 58.2247 326.1174L 125.8138 326.1174 Z"
                  stroke-width="3.3795" stroke="black"/>
            <path fill="rgb(251,128,114)"
                  d="M58.2247 326.1174 A67.5891 67.5891 0 0 0 125.8138 393.7065L 125.8138 326.1174 Z"
                  stroke-width="3.3795" stroke="none"/>
            <path fill="none"
                  d="M58.2247 326.1174 A67.5891 67.5891 0 0 0 125.8138 393.7065L 125.8138 326.1174 Z"
                  stroke-width="3.3795" stroke="black"/>
            <path fill="rgb(255,255,179)"
                  d="M125.8138 393.7065 A67.5891 67.5891 0 0 0 193.4029 326.1174L 125.8138 326.1174 Z"
                  stroke-width="3.3795" stroke="none"/>
            <path fill="none"
                  d="M125.8138 393.7065 A67.5891 67.5891 0 0 0 193.4029 326.1174L 125.8138 326.1174 Z"
                  stroke-width="3.3795" stroke="black"/>
            <circle fill="none" stroke-width="3.3795" r="67.5891" cx="125.8138"
                    cy="326.1174" stroke="black"/>
        </g>
        <g font-family="&apos;Arial&apos;" font-size="41">
            <text x="50.9577" xml:space="preserve" y="228.9392" stroke="none">0 0.250</text><text x="52.4938"
                  xml:space="preserve" y="178.2474" stroke="none">1 0.250</text><text x="50.6918"
                  xml:space="preserve" y="127.5555" stroke="none">2 0.250</text><text x="50.9577"
                  xml:space="preserve" y="76.8637" stroke="none">3 0.250</text><path fill="none"
                  d="M244 168.3853 L243.1788 168.3853 L238.1097 168.3853 C229.7108 168.3853 222.9021 175.194 222.9021 183.5928 L222.9021 193.7312 L222.9021 627.4763 L222.9021 637.6146 C222.9021 646.0135 229.7108 652.8222 238.1097 652.8222 L243.1788 652.8222 L244 652.8222"
                  stroke-width="10.1384" stroke-linecap="butt"
                  stroke-linejoin="bevel"/>
            <path d="M243.1788 163.3161 L2389.6055 163.3161 L2389.6055 173.4545 L243.1788 173.4545 Z"
                  stroke="none"/>
            <text font-style="italic" x="2406.5027" xml:space="preserve"
                  font-size="68" y="188.1421" stroke="none">outgroup</text><path d="M243.1788 647.7531 L428 647.7531 L428 657.8914 L243.1788 657.8914 Z"
                  stroke="none"/>
        </g>
        <g fill="rgb(141,211,199)" font-style="italic" stroke-width="3.3795"
           font-size="68" font-family="&apos;Arial&apos;"
           stroke="rgb(141,211,199)">
            <path d="M402.7873 563.2667 A67.5891 67.5891 0 0 0 335.1982 495.6776L 335.1982 563.2667 Z"
                  stroke="none"/>
            <path fill="none"
                  d="M402.7873 563.2667 A67.5891 67.5891 0 0 0 335.1982 495.6776L 335.1982 563.2667 Z"
                  stroke="black"/>
            <path fill="rgb(190,186,218)"
                  d="M335.1982 495.6776 A67.5891 67.5891 0 0 0 267.6091 563.2667L 335.1982 563.2667 Z"
                  stroke="none"/>
            <path fill="none"
                  d="M335.1982 495.6776 A67.5891 67.5891 0 0 0 267.6091 563.2667L 335.1982 563.2667 Z"
                  stroke="black"/>
            <path fill="rgb(251,128,114)"
                  d="M267.6091 563.2667 A67.5891 67.5891 0 0 0 335.1982 630.8558L 335.1982 563.2667 Z"
                  stroke="none"/>
            <path fill="none"
                  d="M267.6091 563.2667 A67.5891 67.5891 0 0 0 335.1982 630.8558L 335.1982 563.2667 Z"
                  stroke="black"/>
            <path fill="rgb(255,255,179)"
                  d="M335.1982 630.8558 A67.5891 67.5891 0 0 0 402.7873 563.2667L 335.1982 563.2667 Z"
                  stroke="none"/>
            <path fill="none"
                  d="M335.1982 630.8558 A67.5891 67.5891 0 0 0 402.7873 563.2667L 335.1982 563.2667 Z"
                  stroke="black"/>
            <circle fill="none" r="67.5891" cx="335.1982" cy="563.2667"
                    stroke="black"/>
        </g>
        <g font-family="&apos;Arial&apos;" font-size="41">
            <text x="260.342" xml:space="preserve" y="466.0885" stroke="none">0 0.250</text><text x="261.8782"
                  xml:space="preserve" y="415.3967" stroke="none">1 0.250</text><text x="260.0762"
                  xml:space="preserve" y="364.7048" stroke="none">2 0.250</text><text x="260.342"
                  xml:space="preserve" y="314.013" stroke="none">3 0.250</text><path fill="none"
                  d="M453 263.01 L452.5634 263.01 L447.4942 263.01 C439.0953 263.01 432.2867 269.8187 432.2867 278.2176 L432.2867 288.356 L432.2867 1017.2885 L432.2867 1027.4268 C432.2867 1035.8257 439.0953 1042.6343 447.4942 1042.6343 L452.5634 1042.6343 L453 1042.6343"
                  stroke-width="10.1384" stroke-linecap="butt"
                  stroke-linejoin="bevel"/>
            <path d="M452.5634 257.9409 L2389.6055 257.9409 L2389.6055 268.0792 L452.5634 268.0792 Z"
                  stroke="none"/>
            <text font-style="italic" x="2406.5027" xml:space="preserve"
                  font-size="68" y="282.7668" stroke="none">taxonI</text><path d="M452.5634 1037.5652 L637 1037.5652 L637 1047.7036 L452.5634 1047.7036 Z"
                  stroke="none"/>
        </g>
        <g fill="rgb(141,211,199)" font-style="italic" stroke-width="3.3795"
           font-size="68" font-family="&apos;Arial&apos;"
           stroke="rgb(141,211,199)">
            <path d="M612.1717 953.0788 A67.5891 67.5891 0 0 0 544.5826 885.4897L 544.5826 953.0788 Z"
                  stroke="none"/>
            <path fill="none"
                  d="M612.1717 953.0788 A67.5891 67.5891 0 0 0 544.5826 885.4897L 544.5826 953.0788 Z"
                  stroke="black"/>
            <path fill="rgb(190,186,218)"
                  d="M544.5826 885.4897 A67.5891 67.5891 0 0 0 476.9935 953.0788L 544.5826 953.0788 Z"
                  stroke="none"/>
            <path fill="none"
                  d="M544.5826 885.4897 A67.5891 67.5891 0 0 0 476.9935 953.0788L 544.5826 953.0788 Z"
                  stroke="black"/>
            <path fill="rgb(251,128,114)"
                  d="M476.9935 953.0788 A67.5891 67.5891 0 0 0 544.5826 1020.6679L 544.5826 953.0788 Z"
                  stroke="none"/>
            <path fill="none"
                  d="M476.9935 953.0788 A67.5891 67.5891 0 0 0 544.5826 1020.6679L 544.5826 953.0788 Z"
                  stroke="black"/>
            <path fill="rgb(255,255,179)"
                  d="M544.5826 1020.6679 A67.5891 67.5891 0 0 0 612.1717 953.0788L 544.5826 953.0788 Z"
                  stroke="none"/>
            <path fill="none"
                  d="M544.5826 1020.6679 A67.5891 67.5891 0 0 0 612.1717 953.0788L 544.5826 953.0788 Z"
                  stroke="black"/>
            <circle fill="none" r="67.5891" cx="544.5826" cy="953.0788"
                    stroke="black"/>
        </g>
        <g font-family="&apos;Arial&apos;" font-size="41">
            <text x="469.7265" xml:space="preserve" y="855.9007" stroke="none">0 0.250</text><text x="471.2626"
                  xml:space="preserve" y="805.2089" stroke="none">1 0.250</text><text x="469.4607"
                  xml:space="preserve" y="754.517" stroke="none">2 0.250</text><text x="469.7265"
                  xml:space="preserve" y="703.8252" stroke="none">3 0.250</text><path fill="none"
                  d="M662 687.1316 L661.9477 687.1316 L656.8785 687.1316 C648.4797 687.1316 641.671 693.9402 641.671 702.3391 L641.671 712.4775 L641.671 1372.7913 L641.671 1382.9297 C641.671 1391.3286 648.4797 1398.1372 656.8785 1398.1372 L661.9477 1398.1372 L662 1398.1372"
                  stroke-width="10.1384" stroke-linecap="butt"
                  stroke-linejoin="bevel"/>
            <path d="M661.9478 682.0624 L2069 682.0624 L2069 692.2007 L661.9478 692.2007 Z"
                  stroke="none"/>
            <path fill="rgb(141,211,199)"
                  d="M1432.8415 597.576 A67.5891 67.5891 0 0 0 1315.1188 552.245L 1365.2524 597.576 Z"
                  stroke-width="3.3795" stroke="none"/>
            <path fill="none" stroke-width="3.3795"
                  d="M1432.8415 597.576 A67.5891 67.5891 0 0 0 1315.1188 552.245L 1365.2524 597.576 Z"/>
            <path fill="rgb(190,186,218)"
                  d="M1315.1188 552.245 A67.5891 67.5891 0 0 0 1297.6633 597.576L 1365.2524 597.576 Z"
                  stroke-width="3.3795" stroke="none"/>
            <path fill="none" stroke-width="3.3795"
                  d="M1315.1188 552.245 A67.5891 67.5891 0 0 0 1297.6633 597.576L 1365.2524 597.576 Z"/>
            <path fill="rgb(251,128,114)"
                  d="M1297.6633 597.576 A67.5891 67.5891 0 0 0 1315.1188 642.9071L 1365.2524 597.576 Z"
                  stroke-width="3.3795" stroke="none"/>
            <path fill="none" stroke-width="3.3795"
                  d="M1297.6633 597.576 A67.5891 67.5891 0 0 0 1315.1188 642.9071L 1365.2524 597.576 Z"/>
            <path fill="rgb(255,255,179)"
                  d="M1315.1188 642.9071 A67.5891 67.5891 0 0 0 1432.8415 597.576L 1365.2524 597.576 Z"
                  stroke-width="3.3795" stroke="none"/>
            <path fill="none" stroke-width="3.3795"
                  d="M1315.1188 642.9071 A67.5891 67.5891 0 0 0 1432.8415 597.576L 1365.2524 597.576 Z"/>
            <circle fill="none" stroke-width="3.3795" r="67.5891" cx="1365.2524"
                    cy="597.576"/>
            <text x="1290.3372" xml:space="preserve" y="500.3979" stroke="none">0 0.383</text><text x="1291.8734"
                  xml:space="preserve" y="449.7061" stroke="none">1 0.117</text><text x="1290.0714"
                  xml:space="preserve" y="399.0142" stroke="none">2 0.117</text><text x="1290.3372"
                  xml:space="preserve" y="348.3224" stroke="none">3 0.383</text><path fill="none"
                  d="M2094 616.163 L2093.9031 616.163 L2088.834 616.163 C2080.4351 616.163 2073.6265 622.9717 2073.6265 631.3705 L2073.6265 641.5089 L2073.6265 732.7542 L2073.6265 742.8926 C2073.6265 751.2915 2080.4351 758.1002 2088.834 758.1002 L2093.9031 758.1002 L2094 758.1002"
                  stroke-width="10.1384" stroke-linecap="butt"
                  stroke-linejoin="bevel"/>
            <path d="M2093.9033 611.0939 L2297 611.0939 L2297 621.2322 L2093.9033 621.2322 Z"
                  stroke="none"/>
            <text x="2110.8005" xml:space="preserve" y="539.2616" stroke="none"></text>
            <path fill="rgb(141,211,199)"
                  d="M2279.7732 526.6075 A67.5891 67.5891 0 0 0 2144.595 526.6075L 2212.1841 526.6075 Z"
                  stroke-width="3.3795" stroke="none"/>
            <path fill="none" stroke-width="3.3795"
                  d="M2279.7732 526.6075 A67.5891 67.5891 0 0 0 2144.595 526.6075L 2212.1841 526.6075 Z"/>
            <path fill="rgb(255,255,179)"
                  d="M2144.595 526.6075 A67.5891 67.5891 0 0 0 2279.7732 526.6075L 2212.1841 526.6075 Z"
                  stroke-width="3.3795" stroke="none"/>
            <path fill="none" stroke-width="3.3795"
                  d="M2144.595 526.6075 A67.5891 67.5891 0 0 0 2279.7732 526.6075L 2212.1841 526.6075 Z"/>
            <circle fill="none" stroke-width="3.3795" r="67.5891" cx="2212.1841"
                    cy="526.6075"/>
            <text x="2120.4307" xml:space="preserve" y="429.4293" stroke="none">0 0.500</text><text x="2120.4307"
                  xml:space="preserve" y="378.7375" stroke="none">3 0.500</text><path fill="none"
                  d="M2323 568.8506 L2322.0161 568.8506 L2316.947 568.8506 C2308.5481 568.8506 2301.7395 575.6593 2301.7395 584.0582 L2301.7395 594.1965 L2301.7395 638.1295 L2301.7395 648.2678 C2301.7395 656.6667 2308.5481 663.4754 2316.947 663.4754 L2322.0161 663.4754 L2323 663.4754"
                  stroke-width="10.1384" stroke-linecap="butt"
                  stroke-linejoin="bevel"/>
            <path d="M2322.0164 563.7815 L2389.6055 563.7815 L2389.6055 573.9198 L2322.0164 573.9198 Z"
                  stroke="none"/>
            <text font-style="italic" x="2406.5027" xml:space="preserve"
                  font-size="68" y="588.6075" stroke="none">taxonL</text><path d="M2322.0164 658.4062 L2389.6055 658.4062 L2389.6055 668.5445 L2322.0164 668.5445 Z"
                  stroke="none"/>
            <text font-style="italic" x="2406.5027" xml:space="preserve"
                  font-size="68" y="683.2322" stroke="none">taxonM</text><path d="M2093.9033 753.0309 L2389.6057 753.0309 L2389.6057 763.1693 L2093.9033 763.1693 Z"
                  stroke="none"/>
            <text font-style="italic" x="2406.5027" xml:space="preserve"
                  font-size="68" y="777.8569" stroke="none">taxonA</text><path d="M661.9478 1393.068 L846 1393.068 L846 1403.2064 L661.9478 1403.2064 Z"
                  stroke="none"/>
        </g>
        <g fill="rgb(141,211,199)" font-style="italic" stroke-width="3.3795"
           font-size="68" font-family="&apos;Arial&apos;"
           stroke="rgb(141,211,199)">
            <path d="M821.5561 1308.5816 A67.5891 67.5891 0 0 0 753.967 1240.9926L 753.967 1308.5816 Z"
                  stroke="none"/>
            <path fill="none"
                  d="M821.5561 1308.5816 A67.5891 67.5891 0 0 0 753.967 1240.9926L 753.967 1308.5816 Z"
                  stroke="black"/>
            <path fill="rgb(190,186,218)"
                  d="M753.967 1240.9926 A67.5891 67.5891 0 0 0 686.3779 1308.5816L 753.967 1308.5816 Z"
                  stroke="none"/>
            <path fill="none"
                  d="M753.967 1240.9926 A67.5891 67.5891 0 0 0 686.3779 1308.5816L 753.967 1308.5816 Z"
                  stroke="black"/>
            <path fill="rgb(251,128,114)"
                  d="M686.3779 1308.5816 A67.5891 67.5891 0 0 0 753.967 1376.1707L 753.967 1308.5816 Z"
                  stroke="none"/>
            <path fill="none"
                  d="M686.3779 1308.5816 A67.5891 67.5891 0 0 0 753.967 1376.1707L 753.967 1308.5816 Z"
                  stroke="black"/>
            <path fill="rgb(255,255,179)"
                  d="M753.967 1376.1707 A67.5891 67.5891 0 0 0 821.5561 1308.5816L 753.967 1308.5816 Z"
                  stroke="none"/>
            <path fill="none"
                  d="M753.967 1376.1707 A67.5891 67.5891 0 0 0 821.5561 1308.5816L 753.967 1308.5816 Z"
                  stroke="black"/>
            <circle fill="none" r="67.5891" cx="753.967" cy="1308.5816"
                    stroke="black"/>
        </g>
        <g font-family="&apos;Arial&apos;" font-size="41">
            <text x="679.111" xml:space="preserve" y="1211.4034" stroke="none">0 0.250</text><text x="680.647"
                  xml:space="preserve" y="1160.7117" stroke="none">1 0.250</text><text x="678.8451"
                  xml:space="preserve" y="1110.0198" stroke="none">2 0.250</text><text x="679.111"
                  xml:space="preserve" y="1059.328" stroke="none">3 0.250</text><path fill="none"
                  d="M872 852.7249 L871.3322 852.7249 L866.263 852.7249 C857.8641 852.7249 851.0555 859.5335 851.0555 867.9324 L851.0555 878.0707 L851.0555 1918.2036 L851.0555 1928.342 C851.0555 1936.741 857.8641 1943.5496 866.263 1943.5496 L871.3322 1943.5496 L872 1943.5496"
                  stroke-width="10.1384" stroke-linecap="butt"
                  stroke-linejoin="bevel"/>
            <path d="M871.3322 847.6557 L2389.6055 847.6557 L2389.6055 857.794 L871.3322 857.794 Z"
                  stroke="none"/>
            <text font-style="italic" x="2406.5027" xml:space="preserve"
                  font-size="68" y="872.4817" stroke="none">taxonB</text><path d="M871.3322 1938.4803 L1056 1938.4803 L1056 1948.6188 L871.3322 1948.6188 Z"
                  stroke="none"/>
        </g>
        <g fill="rgb(141,211,199)" font-style="italic" stroke-width="3.3795"
           font-size="68" font-family="&apos;Arial&apos;"
           stroke="rgb(141,211,199)">
            <path d="M1030.852 1853.9939 A67.5891 67.5891 0 0 0 964.1122 1786.4101L 963.2629 1853.9939 Z"
                  stroke="none"/>
            <path fill="none"
                  d="M1030.852 1853.9939 A67.5891 67.5891 0 0 0 964.1122 1786.4101L 963.2629 1853.9939 Z"
                  stroke="black"/>
            <path fill="rgb(190,186,218)"
                  d="M964.1122 1786.4101 A67.5891 67.5891 0 0 0 895.6738 1853.9939L 963.2629 1853.9939 Z"
                  stroke="none"/>
            <path fill="none"
                  d="M964.1122 1786.4101 A67.5891 67.5891 0 0 0 895.6738 1853.9939L 963.2629 1853.9939 Z"
                  stroke="black"/>
            <path fill="rgb(251,128,114)"
                  d="M895.6738 1853.9939 A67.5891 67.5891 0 0 0 964.1122 1921.5776L 963.2629 1853.9939 Z"
                  stroke="none"/>
            <path fill="none"
                  d="M895.6738 1853.9939 A67.5891 67.5891 0 0 0 964.1122 1921.5776L 963.2629 1853.9939 Z"
                  stroke="black"/>
            <path fill="rgb(255,255,179)"
                  d="M964.1122 1921.5776 A67.5891 67.5891 0 0 0 1030.852 1853.9939L 963.2629 1853.9939 Z"
                  stroke="none"/>
            <path fill="none"
                  d="M964.1122 1921.5776 A67.5891 67.5891 0 0 0 1030.852 1853.9939L 963.2629 1853.9939 Z"
                  stroke="black"/>
            <circle fill="none" r="67.5891" cx="963.2629" cy="1853.9939"
                    stroke="black"/>
        </g>
        <g font-family="&apos;Arial&apos;" font-size="41">
            <text x="888.3181" xml:space="preserve" y="1756.8158" stroke="none">0 0.248</text><text x="890.0315"
                  xml:space="preserve" y="1706.1239" stroke="none">1 0.252</text><text x="888.2295"
                  xml:space="preserve" y="1655.4321" stroke="none">2 0.252</text><text x="888.3181"
                  xml:space="preserve" y="1604.7402" stroke="none">3 0.248</text><path fill="none"
                  d="M1081 1777.217 L1080.5394 1777.217 L1075.4702 1777.217 C1067.0713 1777.217 1060.2627 1784.0256 1060.2627 1792.4246 L1060.2627 1802.563 L1060.2627 2084.5361 L1060.2627 2094.6746 C1060.2627 2103.0735 1067.0713 2109.8821 1075.4702 2109.8821 L1080.5394 2109.8821 L1081 2109.8821"
                  stroke-width="10.1384" stroke-linecap="butt"
                  stroke-linejoin="bevel"/>
            <path d="M1080.5394 1772.1477 L1265 1772.1477 L1265 1782.2861 L1080.5394 1782.2861 Z"
                  stroke="none"/>
            <path fill="rgb(190,186,218)"
                  d="M1240.2069 1687.6614 A67.5891 67.5891 0 1 0 1225.7623 1729.4219L 1172.6178 1687.6614 Z"
                  stroke-width="3.3795" stroke="none"/>
            <path fill="none" stroke-width="3.3795"
                  d="M1240.2069 1687.6614 A67.5891 67.5891 0 1 0 1225.7623 1729.4219L 1172.6178 1687.6614 Z"/>
            <path fill="rgb(251,128,114)"
                  d="M1225.7623 1729.4219 A67.5891 67.5891 0 0 0 1236.4937 1709.7554L 1172.6178 1687.6614 Z"
                  stroke-width="3.3795" stroke="none"/>
            <path fill="none" stroke-width="3.3795"
                  d="M1225.7623 1729.4219 A67.5891 67.5891 0 0 0 1236.4937 1709.7554L 1172.6178 1687.6614 Z"/>
            <path fill="rgb(255,255,179)"
                  d="M1236.4937 1709.7554 A67.5891 67.5891 0 0 0 1240.2069 1687.6613L 1172.6178 1687.6614 Z"
                  stroke-width="3.3795" stroke="none"/>
            <path fill="none" stroke-width="3.3795"
                  d="M1236.4937 1709.7554 A67.5891 67.5891 0 0 0 1240.2069 1687.6613L 1172.6178 1687.6614 Z"/>
            <circle fill="none" stroke-width="3.3795" r="67.5891" cx="1172.6178"
                    cy="1687.6614"/>
            <text x="1099.2977" xml:space="preserve" y="1590.4832" stroke="none">1 0.894</text><text x="1097.4366"
                  xml:space="preserve" y="1539.7914" stroke="none">2 0.053</text><text x="1097.7025"
                  xml:space="preserve" y="1489.0996" stroke="none">3 0.053</text><path fill="none"
                  d="M1291 1539.1766 L1290.042 1539.1766 L1284.9728 1539.1766 C1276.5739 1539.1766 1269.7653 1545.9852 1269.7653 1554.3842 L1269.7653 1564.5226 L1269.7653 1989.9115 L1269.7653 2000.0498 C1269.7653 2008.4487 1276.5739 2015.2573 1284.9728 2015.2573 L1290.042 2015.2573 L1291 2015.2573"
                  stroke-width="10.1384" stroke-linecap="butt"
                  stroke-linejoin="bevel"/>
            <path d="M1290.042 1534.1074 L1474 1534.1074 L1474 1544.2458 L1290.042 1544.2458 Z"
                  stroke="none"/>
            <path fill="rgb(190,186,218)"
                  d="M1449.3845 1449.6211 A67.5891 67.5891 0 1 0 1444.4806 1474.8966L 1381.7954 1449.6211 Z"
                  stroke-width="3.3795" stroke="none"/>
            <path fill="none" stroke-width="3.3795"
                  d="M1449.3845 1449.6211 A67.5891 67.5891 0 1 0 1444.4806 1474.8966L 1381.7954 1449.6211 Z"/>
            <path fill="rgb(251,128,114)"
                  d="M1444.4806 1474.8966 A67.5891 67.5891 0 0 0 1448.8515 1458.0922L 1381.7954 1449.6211 Z"
                  stroke-width="3.3795" stroke="none"/>
            <path fill="none" stroke-width="3.3795"
                  d="M1444.4806 1474.8966 A67.5891 67.5891 0 0 0 1448.8515 1458.0922L 1381.7954 1449.6211 Z"/>
            <path fill="rgb(255,255,179)"
                  d="M1448.8515 1458.0923 A67.5891 67.5891 0 0 0 1449.3845 1449.6211L 1381.7954 1449.6211 Z"
                  stroke-width="3.3795" stroke="none"/>
            <path fill="none" stroke-width="3.3795"
                  d="M1448.8515 1458.0923 A67.5891 67.5891 0 0 0 1449.3845 1449.6211L 1381.7954 1449.6211 Z"/>
            <circle fill="none" stroke-width="3.3795" r="67.5891" cx="1381.7954"
                    cy="1449.6211"/>
            <text x="1308.3867" xml:space="preserve" y="1352.4429" stroke="none">1 0.939</text><text x="1309.7456"
                  xml:space="preserve" y="1301.751" stroke="none">2 0.041</text><text x="1306.9393"
                  xml:space="preserve" y="1251.0592" stroke="none">3 0.020</text><path fill="none"
                  d="M1499 1246.4313 L1498.8947 1246.4313 L1493.8254 1246.4313 C1485.4265 1246.4313 1478.6179 1253.2399 1478.6179 1261.6388 L1478.6179 1271.7772 L1478.6179 1806.5759 L1478.6179 1816.7144 C1478.6179 1825.1133 1485.4265 1831.9219 1493.8254 1831.9219 L1498.8947 1831.9219 L1499 1831.9219"
                  stroke-width="10.1384" stroke-linecap="butt"
                  stroke-linejoin="bevel"/>
            <path d="M1498.8947 1241.3621 L2088 1241.3621 L2088 1251.5005 L1498.8947 1251.5005 Z"
                  stroke="none"/>
            <circle fill="rgb(190,186,218)" stroke-width="3.3795" r="67.5891"
                    cx="1793.0314" cy="1156.8757" stroke="none"/>
            <circle fill="none" stroke-width="3.3795" r="67.5891" cx="1793.0314"
                    cy="1156.8757"/>
            <text x="1719.7113" xml:space="preserve" y="1059.6975" stroke="none">1 1.000</text><path fill="none"
                  d="M2113 1175.4628 L2112.5137 1175.4628 L2107.4446 1175.4628 C2099.0457 1175.4628 2092.2371 1182.2714 2092.2371 1190.6703 L2092.2371 1200.8087 L2092.2371 1292.054 L2092.2371 1302.1924 C2092.2371 1310.5913 2099.0457 1317.3999 2107.4446 1317.3999 L2112.5137 1317.3999 L2113 1317.3999"
                  stroke-width="10.1384" stroke-linecap="butt"
                  stroke-linejoin="bevel"/>
            <path d="M2112.5137 1170.3936 L2297 1170.3936 L2297 1180.532 L2112.5137 1180.532 Z"
                  stroke="none"/>
            <path fill="rgb(190,186,218)"
                  d="M2272.1811 1085.9072 A67.5891 67.5891 0 1 0 2265.1952 1115.8328L 2204.592 1085.9072 Z"
                  stroke-width="3.3795" stroke="none"/>
            <path fill="none" stroke-width="3.3795"
                  d="M2272.1811 1085.9072 A67.5891 67.5891 0 1 0 2265.1952 1115.8328L 2204.592 1085.9072 Z"/>
            <path fill="rgb(251,128,114)"
                  d="M2265.1952 1115.8328 A67.5891 67.5891 0 0 0 2272.1811 1085.9071L 2204.592 1085.9072 Z"
                  stroke-width="3.3795" stroke="none"/>
            <path fill="none" stroke-width="3.3795"
                  d="M2265.1952 1115.8328 A67.5891 67.5891 0 0 0 2272.1811 1085.9071L 2204.592 1085.9072 Z"/>
            <circle fill="none" stroke-width="3.3795" r="67.5891" cx="2204.592"
                    cy="1085.9072"/>
            <text x="2131.2131" xml:space="preserve" y="988.729" stroke="none">1 0.927</text><text x="2129.4111"
                  xml:space="preserve" y="938.0372" stroke="none">2 0.073</text><path fill="none"
                  d="M2323 1128.1504 L2322.0161 1128.1504 L2316.947 1128.1504 C2308.5481 1128.1504 2301.7395 1134.959 2301.7395 1143.3579 L2301.7395 1153.4963 L2301.7395 1197.4292 L2301.7395 1207.5675 C2301.7395 1215.9664 2308.5481 1222.775 2316.947 1222.775 L2322.0161 1222.775 L2323 1222.775"
                  stroke-width="10.1384" stroke-linecap="butt"
                  stroke-linejoin="bevel"/>
            <path d="M2322.0164 1123.0812 L2389.6055 1123.0812 L2389.6055 1133.2196 L2322.0164 1133.2196 Z"
                  stroke="none"/>
            <text font-style="italic" x="2406.5027" xml:space="preserve"
                  font-size="68" y="1147.9072" stroke="none">taxonG</text><path d="M2322.0164 1217.7059 L2389.6055 1217.7059 L2389.6055 1227.8444 L2322.0164 1227.8444 Z"
                  stroke="none"/>
            <text font-style="italic" x="2406.5027" xml:space="preserve"
                  font-size="68" y="1242.532" stroke="none">taxonE</text><path d="M2112.5137 1312.3307 L2389.6055 1312.3307 L2389.6055 1322.4691 L2112.5137 1322.4691 Z"
                  stroke="none"/>
            <text font-style="italic" x="2406.5027" xml:space="preserve"
                  font-size="68" y="1337.1567" stroke="none">taxonD</text><path d="M1498.8947 1826.8527 L1680 1826.8527 L1680 1836.9911 L1498.8947 1836.9911 Z"
                  stroke="none"/>
        </g>
        <g fill="rgb(190,186,218)" font-style="italic" stroke-width="3.3795"
           font-size="68" font-family="&apos;Arial&apos;"
           stroke="rgb(190,186,218)">
            <circle r="67.5891" cx="1589.1118" cy="1742.3662" stroke="none"/>
            <circle fill="none" r="67.5891" cx="1589.1118" cy="1742.3662"
                    stroke="black"/>
        </g>
        <g font-family="&apos;Arial&apos;" font-size="41">
            <text x="1515.7919" xml:space="preserve" y="1645.1881" stroke="none">1 1.000</text><path fill="none"
                  d="M1705 1743.2112 L1704.6752 1743.2112 L1699.606 1743.2112 C1691.207 1743.2112 1684.3984 1750.0198 1684.3984 1758.4187 L1684.3984 1768.5571 L1684.3984 1895.2867 L1684.3984 1905.425 C1684.3984 1913.824 1691.207 1920.6326 1699.606 1920.6326 L1704.6752 1920.6326 L1705 1920.6326"
                  stroke-width="10.1384" stroke-linecap="butt"
                  stroke-linejoin="bevel"/>
            <path d="M1704.675 1738.142 L1886 1738.142 L1886 1748.2804 L1704.675 1748.2804 Z"
                  stroke="none"/>
            <circle fill="rgb(190,186,218)" stroke-width="3.3795" r="67.5891"
                    cx="1794.8924" cy="1653.6555" stroke="none"/>
            <circle fill="none" stroke-width="3.3795" r="67.5891" cx="1794.8924"
                    cy="1653.6555"/>
            <text x="1721.5724" xml:space="preserve" y="1556.4774" stroke="none">1 1.000</text><path fill="none"
                  d="M1911 1660.4144 L1910.4556 1660.4144 L1905.3864 1660.4144 C1896.9874 1660.4144 1890.1788 1667.223 1890.1788 1675.6219 L1890.1788 1685.7604 L1890.1788 1800.6619 L1890.1788 1810.8002 C1890.1788 1819.1991 1896.9874 1826.0077 1905.3864 1826.0077 L1910.4556 1826.0077 L1911 1826.0077"
                  stroke-width="10.1384" stroke-linecap="butt"
                  stroke-linejoin="bevel"/>
            <path d="M1910.4556 1655.3452 L2091 1655.3452 L2091 1665.4836 L1910.4556 1665.4836 Z"
                  stroke="none"/>
            <circle fill="rgb(190,186,218)" stroke-width="3.3795" r="67.5891"
                    cx="2000.6727" cy="1570.8589" stroke="none"/>
            <circle fill="none" stroke-width="3.3795" r="67.5891" cx="2000.6727"
                    cy="1570.8589"/>
            <text x="1927.3528" xml:space="preserve" y="1473.6807" stroke="none">1 1.000</text><path fill="none"
                  d="M2117 1589.446 L2116.2358 1589.446 L2111.1667 1589.446 C2102.7678 1589.446 2095.9592 1596.2546 2095.9592 1604.6536 L2095.9592 1614.792 L2095.9592 1706.0374 L2095.9592 1716.1755 C2095.9592 1724.5745 2102.7678 1731.3831 2111.1667 1731.3831 L2116.2358 1731.3831 L2117 1731.3831"
                  stroke-width="10.1384" stroke-linecap="butt"
                  stroke-linejoin="bevel"/>
            <path d="M2116.2358 1584.3767 L2297 1584.3767 L2297 1594.5151 L2116.2358 1594.5151 Z"
                  stroke="none"/>
            <circle fill="rgb(190,186,218)" stroke-width="3.3795" r="67.5891"
                    cx="2206.4534" cy="1499.8904" stroke="none"/>
            <circle fill="none" stroke-width="3.3795" r="67.5891" cx="2206.4534"
                    cy="1499.8904"/>
            <text x="2133.1333" xml:space="preserve" y="1402.7122" stroke="none">1 1.000</text><path fill="none"
                  d="M2323 1542.1335 L2322.0161 1542.1335 L2316.947 1542.1335 C2308.5481 1542.1335 2301.7395 1548.9421 2301.7395 1557.3411 L2301.7395 1567.4795 L2301.7395 1611.4124 L2301.7395 1621.5507 C2301.7395 1629.9496 2308.5481 1636.7582 2316.947 1636.7582 L2322.0161 1636.7582 L2323 1636.7582"
                  stroke-width="10.1384" stroke-linecap="butt"
                  stroke-linejoin="bevel"/>
            <path d="M2322.0164 1537.0643 L2389.6055 1537.0643 L2389.6055 1547.2028 L2322.0164 1547.2028 Z"
                  stroke="none"/>
            <text font-style="italic" x="2406.5027" xml:space="preserve"
                  font-size="68" y="1561.8904" stroke="none">taxonJ</text><path d="M2322.0164 1631.6892 L2389.6055 1631.6892 L2389.6055 1641.8276 L2322.0164 1641.8276 Z"
                  stroke="none"/>
            <text font-style="italic" x="2406.5027" xml:space="preserve"
                  font-size="68" y="1656.5153" stroke="none">taxonH</text><path d="M2116.2358 1726.3138 L2389.6055 1726.3138 L2389.6055 1736.4523 L2116.2358 1736.4523 Z"
                  stroke="none"/>
            <text font-style="italic" x="2406.5027" xml:space="preserve"
                  font-size="68" y="1751.1399" stroke="none">taxonO</text><path d="M1910.4556 1820.9386 L2389.6055 1820.9386 L2389.6055 1831.077 L1910.4556 1831.077 Z"
                  stroke="none"/>
            <text font-style="italic" x="2406.5027" xml:space="preserve"
                  font-size="68" y="1845.7646" stroke="none">taxonC</text><path d="M1704.675 1915.5635 L2389.6055 1915.5635 L2389.6055 1925.7019 L1704.675 1925.7019 Z"
                  stroke="none"/>
            <text font-style="italic" x="2406.5027" xml:space="preserve"
                  font-size="68" y="1940.3894" stroke="none">taxonF</text><path d="M1290.042 2010.1881 L2389.6055 2010.1881 L2389.6055 2020.3265 L1290.042 2020.3265 Z"
                  stroke="none"/>
            <text font-style="italic" x="2406.5027" xml:space="preserve"
                  font-size="68" y="2035.0142" stroke="none">taxonK</text><path d="M1080.5394 2104.8127 L2389.6055 2104.8127 L2389.6055 2114.9509 L1080.5394 2114.9509 Z"
                  stroke="none"/>
            <text font-style="italic" x="2406.5027" xml:space="preserve"
                  font-size="68" y="2129.6387" stroke="none">taxonN</text>
        </g><g fill="rgb(190,186,218)" font-style="italic"
           stroke-width="50.6918" font-size="68" font-family="&apos;Arial&apos;"
           stroke="rgb(190,186,218)">
            <line y2="172.6096" fill="none" x1="2745.9351" x2="2745.9351"
                  y1="172.6096"/>
        </g>
        <g fill="white" font-size="81" font-family="&apos;Arial&apos;"
           stroke="white">
            <text x="2783.9541" xml:space="preserve" y="191.6935" stroke="none"></text>
        </g>
        <g fill="rgb(190,186,218)" font-size="81" stroke-width="50.6918"
           font-family="&apos;Arial&apos;" stroke="rgb(190,186,218)">
            <line y2="2114.1064" fill="none" x1="2745.9351" x2="2745.9351"
                  y1="2114.1064"/>
            <text fill="white" x="2783.9541" xml:space="preserve"
                  stroke-width="1" y="2133.1902" stroke="none"></text>
        </g>
        <g fill="rgb(255,255,179)" font-size="81" stroke-width="50.6918"
           font-family="&apos;Arial&apos;" stroke="rgb(255,255,179)">
            <line y2="1735.6074" fill="none" x1="2745.9351" x2="2745.9351"
                  y1="1735.6074"/>
            <text fill="white" x="2783.9541" xml:space="preserve"
                  stroke-width="1" y="1754.6912" stroke="none"></text>
        </g>
        <g fill="rgb(141,211,199)" font-size="81" stroke-width="50.6918"
           font-family="&apos;Arial&apos;" stroke="rgb(141,211,199)">
            <line y2="573.075" fill="none" x1="2745.9351" x2="2745.9351"
                  y1="573.075"/>
            <text fill="white" x="2783.9541" xml:space="preserve"
                  stroke-width="1" y="592.1589" stroke="none"></text>
        </g>
        <g fill="rgb(251,128,114)" font-size="81" stroke-width="50.6918"
           font-family="&apos;Arial&apos;" stroke="rgb(251,128,114)">
            <line y2="667.6997" fill="none" x1="2745.9351" x2="2745.9351"
                  y1="667.6997"/>
            <text fill="white" x="2783.9541" xml:space="preserve"
                  stroke-width="1" y="686.7836" stroke="none"></text>
        </g>
        <g fill="rgb(255,255,179)" font-size="81" stroke-width="50.6918"
           font-family="&apos;Arial&apos;" stroke="rgb(255,255,179)">
            <line y2="1546.3579" fill="none" x1="2745.9351" x2="2745.9351"
                  y1="1546.3579"/>
            <text fill="white" x="2783.9541" xml:space="preserve"
                  stroke-width="1" y="1565.4418" stroke="none"></text>
        </g>
        <g fill="rgb(255,255,179)" font-size="81" stroke-width="50.6918"
           font-family="&apos;Arial&apos;" stroke="rgb(255,255,179)">
            <line y2="2019.4817" fill="none" x1="2745.9351" x2="2745.9351"
                  y1="2019.4817"/>
            <text fill="white" x="2783.9541" xml:space="preserve"
                  stroke-width="1" y="2038.5654" stroke="none"></text>
        </g>
        <g fill="rgb(255,255,179)" font-size="81" stroke-width="50.6918"
           font-family="&apos;Arial&apos;" stroke="rgb(255,255,179)">
            <line y2="1640.9828" fill="none" x1="2745.9351" x2="2745.9351"
                  y1="1640.9828"/>
            <text fill="white" x="2783.9541" xml:space="preserve"
                  stroke-width="1" y="1660.0665" stroke="none"></text>
        </g>
        <g fill="rgb(251,128,114)" font-size="81" stroke-width="50.6918"
           font-family="&apos;Arial&apos;" stroke="rgb(251,128,114)">
            <line y2="267.2344" fill="none" x1="2745.9351" x2="2745.9351"
                  y1="267.2344"/>
            <text fill="white" x="2783.9541" xml:space="preserve"
                  stroke-width="1" y="286.3182" stroke="none"></text>
        </g>
        <g fill="rgb(255,255,179)" font-size="81" stroke-width="50.6918"
           font-family="&apos;Arial&apos;" stroke="rgb(255,255,179)">
            <line y2="1924.8571" fill="none" x1="2745.9351" x2="2745.9351"
                  y1="1924.8571"/>
            <text fill="white" x="2783.9541" xml:space="preserve"
                  stroke-width="1" y="1943.9408" stroke="none"></text>
        </g>
        <g fill="rgb(255,255,179)" font-size="81" stroke-width="50.6918"
           font-family="&apos;Arial&apos;" stroke="rgb(255,255,179)">
            <line y2="1132.3748" fill="none" x1="2745.9351" x2="2745.9351"
                  y1="1132.3748"/>
            <text fill="white" x="2783.9541" xml:space="preserve"
                  stroke-width="1" y="1151.4585" stroke="none"></text>
        </g>
        <g fill="rgb(255,255,179)" font-size="81" stroke-width="50.6918"
           font-family="&apos;Arial&apos;" stroke="rgb(255,255,179)">
            <line y2="1321.6243" fill="none" x1="2745.9351" x2="2745.9351"
                  y1="1321.6243"/>
            <text fill="white" x="2783.9541" xml:space="preserve"
                  stroke-width="1" y="1340.708" stroke="none"></text>
        </g>
        <g fill="rgb(255,255,179)" font-size="81" stroke-width="50.6918"
           font-family="&apos;Arial&apos;" stroke="rgb(255,255,179)">
            <line y2="1226.9995" fill="none" x1="2745.9351" x2="2745.9351"
                  y1="1226.9995"/>
            <text fill="white" x="2783.9541" xml:space="preserve"
                  stroke-width="1" y="1246.0834" stroke="none"></text>
        </g>
        <g fill="rgb(190,186,218)" font-size="81" stroke-width="50.6918"
           font-family="&apos;Arial&apos;" stroke="rgb(190,186,218)">
            <line y2="856.9492" fill="none" x1="2745.9351" x2="2745.9351"
                  y1="856.9492"/>
            <text fill="white" x="2783.9541" xml:space="preserve"
                  stroke-width="1" y="876.033" stroke="none"></text>
        </g>
        <g fill="rgb(255,255,179)" font-size="81" stroke-width="50.6918"
           font-family="&apos;Arial&apos;" stroke="rgb(255,255,179)">
            <line y2="1830.2322" fill="none" x1="2745.9351" x2="2745.9351"
                  y1="1830.2322"/>
            <text fill="white" x="2783.9541" xml:space="preserve"
                  stroke-width="1" y="1849.316" stroke="none"></text>
        </g>
        <g fill="rgb(141,211,199)" font-size="81" stroke-width="50.6918"
           font-family="&apos;Arial&apos;" stroke="rgb(141,211,199)">
            <line y2="762.3245" fill="none" x1="2745.9351" x2="2745.9351"
                  y1="762.3245"/>
            <text fill="white" x="2783.9541" xml:space="preserve"
                  stroke-width="1" y="781.4083" stroke="none"></text>
        </g>
    </g>
</svg>
