<?xml version="1.0"?>
<!DOCTYPE svg PUBLIC '-//W3C//DTD SVG 1.0//EN'
    'http://www.w3.org/TR/2001/REC-SVG-20010904/DTD/svg10.dtd' >

<svg fill-opacity="1" xmlns:xlink="http://www.w3.org/1999/xlink"
     color-rendering="auto" color-interpolation="auto" text-rendering="auto"
     stroke="black" stroke-linecap="square" stroke-miterlimit="10"
     shape-rendering="auto" stroke-opacity="1" fill="black"
     stroke-dasharray="none" font-weight="normal" stroke-width="1"
     xmlns="http://www.w3.org/2000/svg" font-family="&apos;Dialog&apos;"
     font-style="normal" stroke-linejoin="miter" font-size="12"
     stroke-dashoffset="0" image-rendering="auto">
    <!--Generated by the Batik Graphics2D SVG Generator-->
    <defs id="genericDefs"/>
    <g>
        <g fill="white" stroke="white">
            <rect x="0" width="2835" height="1689" y="0" stroke="none"/>
            <path fill="black"
                  d="M22 275.3902 L227 275.3902 L227 282.1899 L22 282.1899 Z"
                  stroke="none"/>
        </g>
        <g font-family="&apos;Arial&apos;" font-size="27">
            <text x="33.9988" xml:space="preserve" y="226.7261" stroke="none"></text>
            <text x="56.6646" xml:space="preserve" y="226.7261" stroke="none"></text>
            <text x="79.3305" xml:space="preserve" y="226.7261" stroke="none"></text>
            <text x="101.9964" xml:space="preserve" y="226.7261" stroke="none"></text>
            <path fill="blue"
                  d="M215.3257 218.7255 A45.3317 45.3317 0 0 0 169.9939 173.3938L 169.9939 218.7255 Z"
                  stroke-width="2.2666" stroke="none"/>
            <path fill="none" stroke-width="2.2666"
                  d="M215.3257 218.7255 A45.3317 45.3317 0 0 0 169.9939 173.3938L 169.9939 218.7255 Z"/>
            <path fill="yellow"
                  d="M169.9939 173.3938 A45.3317 45.3317 0 0 0 124.6631 218.4407L 169.9939 218.7255 Z"
                  stroke-width="2.2666" stroke="none"/>
            <path fill="none" stroke-width="2.2666"
                  d="M169.9939 173.3938 A45.3317 45.3317 0 0 0 124.6631 218.4407L 169.9939 218.7255 Z"/>
            <path fill="lime"
                  d="M124.6631 218.4407 A45.3317 45.3317 0 0 0 169.9939 264.0573L 169.9939 218.7255 Z"
                  stroke-width="2.2666" stroke="none"/>
            <path fill="none" stroke-width="2.2666"
                  d="M124.6631 218.4407 A45.3317 45.3317 0 0 0 169.9939 264.0573L 169.9939 218.7255 Z"/>
            <path fill="red"
                  d="M169.9939 264.0573 A45.3317 45.3317 0 0 0 215.3257 218.7255L 169.9939 218.7255 Z"
                  stroke-width="2.2666" stroke="none"/>
            <path fill="none" stroke-width="2.2666"
                  d="M169.9939 264.0573 A45.3317 45.3317 0 0 0 215.3257 218.7255L 169.9939 218.7255 Z"/>
            <circle fill="none" stroke-width="2.2666" r="45.3317" cx="169.9939"
                    cy="218.7255"/>
            <text x="73.8027" xml:space="preserve" y="153.0621" stroke="none">A 0.250</text><text x="71.9799"
                  xml:space="preserve" y="119.0633" stroke="none">C 0.249</text><text x="75.8236"
                  xml:space="preserve" y="85.0645" stroke="none">E 0.251</text><text x="72.4158"
                  xml:space="preserve" y="51.0657" stroke="none">M 0.250</text><path fill="none"
                  d="M244 91.2079 L243.658 91.2079 L240.2581 91.2079 C234.625 91.2079 230.0585 95.7745 230.0585 101.4076 L230.0585 108.2073 L230.0585 442.573 L230.0585 449.3728 C230.0585 455.0059 234.625 459.5724 240.2581 459.5724 L243.658 459.5724 L244 459.5724"
                  stroke-width="6.7998" stroke-linecap="butt"
                  stroke-linejoin="bevel"/>
            <path d="M243.658 87.8081 L2294.9182 87.8081 L2294.9182 94.6078 L243.658 94.6078 Z"
                  stroke="none"/>
            <text font-style="italic" x="2306.2512" xml:space="preserve"
                  font-size="45" y="103.8756" stroke="none">Arnoseris minima E</text><path d="M243.658 456.1725 L448 456.1725 L448 462.9723 L243.658 462.9723 Z"
                  stroke="none"/>
            <text x="254.9909" xml:space="preserve" y="407.5085" stroke="none"></text>
            <text x="277.6568" xml:space="preserve" y="407.5085" stroke="none"></text>
            <text x="300.3226" xml:space="preserve" y="407.5085" stroke="none"></text>
            <text x="322.9885" xml:space="preserve" y="407.5085" stroke="none"></text>
            <path fill="blue"
                  d="M436.3178 399.5079 A45.3317 45.3317 0 0 0 390.6297 354.1776L 390.9861 399.5079 Z"
                  stroke-width="2.2666" stroke="none"/>
            <path fill="none" stroke-width="2.2666"
                  d="M436.3178 399.5079 A45.3317 45.3317 0 0 0 390.6297 354.1776L 390.9861 399.5079 Z"/>
            <path fill="yellow"
                  d="M390.6297 354.1776 A45.3317 45.3317 0 0 0 345.6564 399.0802L 390.9861 399.5079 Z"
                  stroke-width="2.2666" stroke="none"/>
            <path fill="none" stroke-width="2.2666"
                  d="M390.6297 354.1776 A45.3317 45.3317 0 0 0 345.6564 399.0802L 390.9861 399.5079 Z"/>
            <path fill="lime"
                  d="M345.6564 399.0802 A45.3317 45.3317 0 0 0 390.6297 444.8382L 390.9861 399.5079 Z"
                  stroke-width="2.2666" stroke="none"/>
            <path fill="none" stroke-width="2.2666"
                  d="M345.6564 399.0802 A45.3317 45.3317 0 0 0 390.6297 444.8382L 390.9861 399.5079 Z"/>
            <path fill="red"
                  d="M390.6297 444.8382 A45.3317 45.3317 0 0 0 436.3178 399.5079L 390.9861 399.5079 Z"
                  stroke-width="2.2666" stroke="none"/>
            <path fill="none" stroke-width="2.2666"
                  d="M390.6297 444.8382 A45.3317 45.3317 0 0 0 436.3178 399.5079L 390.9861 399.5079 Z"/>
            <circle fill="none" stroke-width="2.2666" r="45.3317" cx="390.9861"
                    cy="399.5079"/>
            <text x="296.8554" xml:space="preserve" y="333.8445" stroke="none">A 0.251</text><text x="292.9919"
                  xml:space="preserve" y="299.8457" stroke="none">C 0.247</text><text x="294.7552"
                  xml:space="preserve" y="265.8469" stroke="none">E 0.250</text><text x="295.4685"
                  xml:space="preserve" y="231.8481" stroke="none">M 0.251</text><path fill="none"
                  d="M465 154.6723 L464.6501 154.6723 L461.2502 154.6723 C455.6171 154.6723 451.0506 159.2389 451.0506 164.872 L451.0506 171.6717 L451.0506 747.4731 L451.0506 754.2729 C451.0506 759.906 455.6171 764.4725 461.2502 764.4725 L464.6501 764.4725 L465 764.4725"
                  stroke-width="6.7998" stroke-linecap="butt"
                  stroke-linejoin="bevel"/>
            <path d="M464.6501 151.2725 L2294.9182 151.2725 L2294.9182 158.0722 L464.6501 158.0722 Z"
                  stroke="none"/>
            <text font-style="italic" x="2306.2512" xml:space="preserve"
                  font-size="45" y="167.34" stroke="none">Tolpis macrorhiza M</text><path d="M464.6501 761.0726 L669 761.0726 L669 767.8724 L464.6501 767.8724 Z"
                  stroke="none"/>
            <text x="475.983" xml:space="preserve" y="712.4085" stroke="none"></text>
            <text x="498.6489" xml:space="preserve" y="712.4085" stroke="none"></text>
            <text x="521.3148" xml:space="preserve" y="712.4085" stroke="none"></text>
            <text x="543.9806" xml:space="preserve" y="712.4085" stroke="none"></text>
            <path fill="blue"
                  d="M657.3099 704.4079 A45.3317 45.3317 0 0 0 611.1238 659.0842L 611.9782 704.4079 Z"
                  stroke-width="2.2666" stroke="none"/>
            <path fill="none" stroke-width="2.2666"
                  d="M657.3099 704.4079 A45.3317 45.3317 0 0 0 611.1238 659.0842L 611.9782 704.4079 Z"/>
            <path fill="yellow"
                  d="M611.1238 659.0842 A45.3317 45.3317 0 0 0 566.6545 705.2623L 611.9782 704.4079 Z"
                  stroke-width="2.2666" stroke="none"/>
            <path fill="none" stroke-width="2.2666"
                  d="M611.1238 659.0842 A45.3317 45.3317 0 0 0 566.6545 705.2623L 611.9782 704.4079 Z"/>
            <path fill="lime"
                  d="M566.6545 705.2623 A45.3317 45.3317 0 0 0 613.6868 749.7074L 611.9782 704.4079 Z"
                  stroke-width="2.2666" stroke="none"/>
            <path fill="none" stroke-width="2.2666"
                  d="M566.6545 705.2623 A45.3317 45.3317 0 0 0 613.6868 749.7074L 611.9782 704.4079 Z"/>
            <path fill="red"
                  d="M613.6868 749.7074 A45.3317 45.3317 0 0 0 657.3099 704.4079L 611.9782 704.4079 Z"
                  stroke-width="2.2666" stroke="none"/>
            <path fill="none" stroke-width="2.2666"
                  d="M613.6868 749.7074 A45.3317 45.3317 0 0 0 657.3099 704.4079L 611.9782 704.4079 Z"/>
            <circle fill="none" stroke-width="2.2666" r="45.3317" cx="611.9782"
                    cy="704.4079"/>
            <text x="515.7474" xml:space="preserve" y="638.7444" stroke="none">A 0.253</text><text x="514.0236"
                  xml:space="preserve" y="604.7457" stroke="none">C 0.250</text><text x="515.7078"
                  xml:space="preserve" y="570.7469" stroke="none">E 0.253</text><text x="514.4001"
                  xml:space="preserve" y="536.7481" stroke="none">M 0.244</text><path fill="none"
                  d="M686 486.7272 L685.6423 486.7272 L682.2424 486.7272 C676.6093 486.7272 672.0427 491.2937 672.0427 496.9268 L672.0427 503.7266 L672.0427 1025.2185 L672.0427 1032.0182 C672.0427 1037.6514 676.6093 1042.2179 682.2424 1042.2179 L685.6423 1042.2179 L686 1042.2179"
                  stroke-width="6.7998" stroke-linecap="butt"
                  stroke-linejoin="bevel"/>
            <path d="M685.6422 483.3273 L2012 483.3273 L2012 490.1271 L685.6422 490.1271 Z"
                  stroke="none"/>
            <text x="1257.9552" xml:space="preserve" y="434.6633" stroke="none"></text>
            <text x="1280.6211" xml:space="preserve" y="434.6633" stroke="none"></text>
            <text x="1303.2869" xml:space="preserve" y="434.6633" stroke="none"></text>
            <text x="1325.9528" xml:space="preserve" y="434.6633" stroke="none"></text>
            <path fill="blue"
                  d="M1439.2821 426.6627 A45.3317 45.3317 0 1 0 1349.9729 437.6601L 1393.9504 426.6627 Z"
                  stroke-width="2.2666" stroke="none"/>
            <path fill="none" stroke-width="2.2666"
                  d="M1439.2821 426.6627 A45.3317 45.3317 0 1 0 1349.9729 437.6601L 1393.9504 426.6627 Z"/>
            <path fill="yellow"
                  d="M1349.9729 437.6601 A45.3317 45.3317 0 0 0 1361.1006 457.9014L 1393.9504 426.6627 Z"
                  stroke-width="2.2666" stroke="none"/>
            <path fill="none" stroke-width="2.2666"
                  d="M1349.9729 437.6601 A45.3317 45.3317 0 0 0 1361.1006 457.9014L 1393.9504 426.6627 Z"/>
            <path fill="lime"
                  d="M1361.1006 457.9014 A45.3317 45.3317 0 0 0 1391.6727 471.9371L 1393.9504 426.6627 Z"
                  stroke-width="2.2666" stroke="none"/>
            <path fill="none" stroke-width="2.2666"
                  d="M1361.1006 457.9014 A45.3317 45.3317 0 0 0 1391.6727 471.9371L 1393.9504 426.6627 Z"/>
            <path fill="red"
                  d="M1391.6727 471.9371 A45.3317 45.3317 0 0 0 1439.2821 426.6627L 1393.9504 426.6627 Z"
                  stroke-width="2.2666" stroke="none"/>
            <path fill="none" stroke-width="2.2666"
                  d="M1391.6727 471.9371 A45.3317 45.3317 0 0 0 1439.2821 426.6627L 1393.9504 426.6627 Z"/>
            <circle fill="none" stroke-width="2.2666" r="45.3317" cx="1393.9504"
                    cy="426.6627"/>
            <text x="1297.6996" xml:space="preserve" y="360.9992" stroke="none">A 0.539</text><text x="1296.0553"
                  xml:space="preserve" y="327.0005" stroke="none">C 0.082</text><text x="1299.78"
                  xml:space="preserve" y="293.0017" stroke="none">E 0.121</text><text x="1296.3127"
                  xml:space="preserve" y="259.0029" stroke="none">M 0.258</text><path fill="none"
                  d="M2029 439.1289 L2028.5944 439.1289 L2025.1945 439.1289 C2019.5614 439.1289 2014.9949 443.6954 2014.9949 449.3285 L2014.9949 456.1283 L2014.9949 517.3261 L2014.9949 524.1259 C2014.9949 529.759 2019.5614 534.3255 2025.1945 534.3255 L2028.5944 534.3255 L2029 534.3255"
                  stroke-width="6.7998" stroke-linecap="butt"
                  stroke-linejoin="bevel"/>
            <path d="M2028.5944 435.729 L2233 435.729 L2233 442.5287 L2028.5944 442.5287 Z"
                  stroke="none"/>
            <text x="2039.9274" xml:space="preserve" y="387.065" stroke="none"></text>
            <text x="2062.5933" xml:space="preserve" y="387.065" stroke="none"></text>
            <text x="2085.259" xml:space="preserve" y="387.065" stroke="none"></text>
            <text x="2107.9248" xml:space="preserve" y="387.065" stroke="none"></text>
            <path fill="blue"
                  d="M2221.2543 379.0644 A45.3317 45.3317 0 0 0 2132.4711 366.144L 2175.9225 379.0644 Z"
                  stroke-width="2.2666" stroke="none"/>
            <path fill="none" stroke-width="2.2666"
                  d="M2221.2543 379.0644 A45.3317 45.3317 0 0 0 2132.4711 366.144L 2175.9225 379.0644 Z"/>
            <path fill="yellow"
                  d="M2132.4711 366.144 A45.3317 45.3317 0 0 0 2130.6633 376.5023L 2175.9225 379.0644 Z"
                  stroke-width="2.2666" stroke="none"/>
            <path fill="none" stroke-width="2.2666"
                  d="M2132.4711 366.144 A45.3317 45.3317 0 0 0 2130.6633 376.5023L 2175.9225 379.0644 Z"/>
            <path fill="lime"
                  d="M2130.6633 376.5023 A45.3317 45.3317 0 0 0 2133.2708 394.42L 2175.9225 379.0644 Z"
                  stroke-width="2.2666" stroke="none"/>
            <path fill="none" stroke-width="2.2666"
                  d="M2130.6633 376.5023 A45.3317 45.3317 0 0 0 2133.2708 394.42L 2175.9225 379.0644 Z"/>
            <path fill="red"
                  d="M2133.2708 394.42 A45.3317 45.3317 0 0 0 2221.2543 379.0644L 2175.9225 379.0644 Z"
                  stroke-width="2.2666" stroke="none"/>
            <path fill="none" stroke-width="2.2666"
                  d="M2133.2708 394.42 A45.3317 45.3317 0 0 0 2221.2543 379.0644L 2175.9225 379.0644 Z"/>
            <circle fill="none" stroke-width="2.2666" r="45.3317" cx="2175.9225"
                    cy="379.0644"/>
            <text x="2079.7312" xml:space="preserve" y="313.4009" stroke="none">A 0.454</text><text x="2077.9282"
                  xml:space="preserve" y="279.4022" stroke="none">C 0.037</text><text x="2079.6917"
                  xml:space="preserve" y="245.4034" stroke="none">E 0.064</text><text x="2078.2253"
                  xml:space="preserve" y="211.4046" stroke="none">M 0.445</text><path fill="none"
                  d="M2250 407.3967 L2249.5867 407.3967 L2246.1868 407.3967 C2240.5537 407.3967 2235.9871 411.9632 2235.9871 417.5963 L2235.9871 424.3961 L2235.9871 453.8617 L2235.9871 460.6615 C2235.9871 466.2946 2240.5537 470.8611 2246.1868 470.8611 L2249.5867 470.8611 L2250 470.8611"
                  stroke-width="6.7998" stroke-linecap="butt"
                  stroke-linejoin="bevel"/>
            <path d="M2249.5864 403.9968 L2294.9182 403.9968 L2294.9182 410.7966 L2249.5864 410.7966 Z"
                  stroke="none"/>
            <text font-style="italic" x="2306.2512" xml:space="preserve"
                  font-size="45" y="420.0644" stroke="none">Tolpis succulenta A</text><path d="M2249.5864 467.4612 L2294.9182 467.4612 L2294.9182 474.261 L2249.5864 474.261 Z"
                  stroke="none"/>
            <text font-style="italic" x="2306.2512" xml:space="preserve"
                  font-size="45" y="483.5287" stroke="none">Tolpis succulenta M</text><path d="M2028.5944 530.9256 L2294.9182 530.9256 L2294.9182 537.7254 L2028.5944 537.7254 Z"
                  stroke="none"/>
            <text font-style="italic" x="2306.2512" xml:space="preserve"
                  font-size="45" y="546.9932" stroke="none">Tolpis azorica A</text><path d="M685.6422 1038.818 L890 1038.818 L890 1045.6178 L685.6422 1045.6178 Z"
                  stroke="none"/>
            <text x="696.9752" xml:space="preserve" y="990.1539" stroke="none"></text>
            <text x="719.6411" xml:space="preserve" y="990.1539" stroke="none"></text>
            <text x="742.3069" xml:space="preserve" y="990.1539" stroke="none"></text>
            <text x="764.9728" xml:space="preserve" y="990.1539" stroke="none"></text>
            <path fill="blue"
                  d="M878.302 982.1533 A45.3317 45.3317 0 0 0 843.4143 938.0411L 832.9703 982.1533 Z"
                  stroke-width="2.2666" stroke="none"/>
            <path fill="none" stroke-width="2.2666"
                  d="M878.302 982.1533 A45.3317 45.3317 0 0 0 843.4143 938.0411L 832.9703 982.1533 Z"/>
            <path fill="yellow"
                  d="M843.4143 938.0411 A45.3317 45.3317 0 0 0 787.7674 985.568L 832.9703 982.1533 Z"
                  stroke-width="2.2666" stroke="none"/>
            <path fill="none" stroke-width="2.2666"
                  d="M843.4143 938.0411 A45.3317 45.3317 0 0 0 787.7674 985.568L 832.9703 982.1533 Z"/>
            <path fill="lime"
                  d="M787.7674 985.568 A45.3317 45.3317 0 0 0 842.581 1026.4546L 832.9703 982.1533 Z"
                  stroke-width="2.2666" stroke="none"/>
            <path fill="none" stroke-width="2.2666"
                  d="M787.7674 985.568 A45.3317 45.3317 0 0 0 842.581 1026.4546L 832.9703 982.1533 Z"/>
            <path fill="red"
                  d="M842.581 1026.4546 A45.3317 45.3317 0 0 0 878.302 982.1533L 832.9703 982.1533 Z"
                  stroke-width="2.2666" stroke="none"/>
            <path fill="none" stroke-width="2.2666"
                  d="M842.581 1026.4546 A45.3317 45.3317 0 0 0 878.302 982.1533L 832.9703 982.1533 Z"/>
            <circle fill="none" stroke-width="2.2666" r="45.3317" cx="832.9703"
                    cy="982.1533"/>
            <text x="736.7395" xml:space="preserve" y="916.4899" stroke="none">A 0.213</text><text x="734.9563"
                  xml:space="preserve" y="882.4911" stroke="none">C 0.299</text><text x="736.7989"
                  xml:space="preserve" y="848.4923" stroke="none">E 0.272</text><text x="735.3527"
                  xml:space="preserve" y="814.4935" stroke="none">M 0.216</text><path fill="none"
                  d="M907 597.7899 L906.6344 597.7899 L903.2345 597.7899 C897.6014 597.7899 893.0349 602.3564 893.0349 607.9896 L893.0349 614.7893 L893.0349 1469.6465 L893.0349 1476.4462 C893.0349 1482.0793 897.6014 1486.6459 903.2345 1486.6459 L906.6344 1486.6459 L907 1486.6459"
                  stroke-width="6.7998" stroke-linecap="butt"
                  stroke-linejoin="bevel"/>
            <path d="M906.6344 594.39 L2294.9185 594.39 L2294.9185 601.1898 L906.6344 601.1898 Z"
                  stroke="none"/>
            <text font-style="italic" x="2306.2512" xml:space="preserve"
                  font-size="45" y="610.4576" stroke="none">Tolpis barbata E</text><path d="M906.6344 1483.246 L1111 1483.246 L1111 1490.0458 L906.6344 1490.0458 Z"
                  stroke="none"/>
            <text x="917.9673" xml:space="preserve" y="1434.5819" stroke="none"></text>
            <text x="940.6332" xml:space="preserve" y="1434.5819" stroke="none"></text>
            <text x="963.299" xml:space="preserve" y="1434.5819" stroke="none"></text>
            <text x="985.9649" xml:space="preserve" y="1434.5819" stroke="none"></text>
            <path fill="blue"
                  d="M1099.2942 1426.5812 A45.3317 45.3317 0 0 0 1073.5211 1385.6859L 1053.9625 1426.5812 Z"
                  stroke-width="2.2666" stroke="none"/>
            <path fill="none" stroke-width="2.2666"
                  d="M1099.2942 1426.5812 A45.3317 45.3317 0 0 0 1073.5211 1385.6859L 1053.9625 1426.5812 Z"/>
            <path fill="yellow"
                  d="M1073.5211 1385.6859 A45.3317 45.3317 0 0 0 1014.5155 1448.9174L 1053.9625 1426.5812 Z"
                  stroke-width="2.2666" stroke="none"/>
            <path fill="none" stroke-width="2.2666"
                  d="M1073.5211 1385.6859 A45.3317 45.3317 0 0 0 1014.5155 1448.9174L 1053.9625 1426.5812 Z"/>
            <path fill="lime"
                  d="M1014.5155 1448.9174 A45.3317 45.3317 0 0 0 1071.9659 1468.1846L 1053.9625 1426.5812 Z"
                  stroke-width="2.2666" stroke="none"/>
            <path fill="none" stroke-width="2.2666"
                  d="M1014.5155 1448.9174 A45.3317 45.3317 0 0 0 1071.9659 1468.1846L 1053.9625 1426.5812 Z"/>
            <path fill="red"
                  d="M1071.9658 1468.1846 A45.3317 45.3317 0 0 0 1099.2942 1426.5812L 1053.9625 1426.5812 Z"
                  stroke-width="2.2666" stroke="none"/>
            <path fill="none" stroke-width="2.2666"
                  d="M1071.9658 1468.1846 A45.3317 45.3317 0 0 0 1099.2942 1426.5812L 1053.9625 1426.5812 Z"/>
            <circle fill="none" stroke-width="2.2666" r="45.3317" cx="1053.9625"
                    cy="1426.5812"/>
            <text x="957.7119" xml:space="preserve" y="1360.9178" stroke="none">A 0.179</text><text x="955.9683"
                  xml:space="preserve" y="1326.9191" stroke="none">C 0.403</text><text x="957.692"
                  xml:space="preserve" y="1292.9203" stroke="none">E 0.233</text><text x="956.2655"
                  xml:space="preserve" y="1258.9215" stroke="none">M 0.185</text><path fill="none"
                  d="M1128 1362.3378 L1127.6265 1362.3378 L1124.2266 1362.3378 C1118.5935 1362.3378 1114.027 1366.9043 1114.027 1372.5374 L1114.027 1379.3372 L1114.027 1593.9546 L1114.027 1600.7543 C1114.027 1606.3875 1118.5935 1610.954 1124.2266 1610.954 L1127.6265 1610.954 L1128 1610.954"
                  stroke-width="6.7998" stroke-linecap="butt"
                  stroke-linejoin="bevel"/>
            <path d="M1127.6265 1358.9379 L1332 1358.9379 L1332 1365.7377 L1127.6265 1365.7377 Z"
                  stroke="none"/>
            <text x="1138.9595" xml:space="preserve" y="1310.2738" stroke="none"></text>
            <text x="1161.6252" xml:space="preserve" y="1310.2738" stroke="none"></text>
            <text x="1184.2911" xml:space="preserve" y="1310.2738" stroke="none"></text>
            <text x="1206.957" xml:space="preserve" y="1310.2738" stroke="none"></text>
            <path fill="blue"
                  d="M1320.2862 1302.2732 A45.3317 45.3317 0 0 0 1320.0574 1297.7237L 1274.9545 1302.2732 Z"
                  stroke-width="2.2666" stroke="none"/>
            <path fill="none" stroke-width="2.2666"
                  d="M1320.2862 1302.2732 A45.3317 45.3317 0 0 0 1320.0574 1297.7237L 1274.9545 1302.2732 Z"/>
            <path fill="yellow"
                  d="M1320.0574 1297.7237 A45.3317 45.3317 0 1 0 1319.373 1311.3264L 1274.9545 1302.2732 Z"
                  stroke-width="2.2666" stroke="none"/>
            <path fill="none" stroke-width="2.2666"
                  d="M1320.0574 1297.7237 A45.3317 45.3317 0 1 0 1319.373 1311.3264L 1274.9545 1302.2732 Z"/>
            <path fill="lime"
                  d="M1319.373 1311.3264 A45.3317 45.3317 0 0 0 1320.0279 1307.1061L 1274.9545 1302.2732 Z"
                  stroke-width="2.2666" stroke="none"/>
            <path fill="none" stroke-width="2.2666"
                  d="M1319.373 1311.3264 A45.3317 45.3317 0 0 0 1320.0279 1307.1061L 1274.9545 1302.2732 Z"/>
            <path fill="red"
                  d="M1320.0279 1307.1061 A45.3317 45.3317 0 0 0 1320.2862 1302.2732L 1274.9545 1302.2732 Z"
                  stroke-width="2.2666" stroke="none"/>
            <path fill="none" stroke-width="2.2666"
                  d="M1320.0279 1307.1061 A45.3317 45.3317 0 0 0 1320.2862 1302.2732L 1274.9545 1302.2732 Z"/>
            <circle fill="none" stroke-width="2.2666" r="45.3317" cx="1274.9545"
                    cy="1302.2732"/>
            <text x="1178.7238" xml:space="preserve" y="1236.6097" stroke="none">A 0.016</text><text x="1177.0594"
                  xml:space="preserve" y="1202.611" stroke="none">C 0.952</text><text x="1178.6049"
                  xml:space="preserve" y="1168.6122" stroke="none">E 0.015</text><text x="1177.3368"
                  xml:space="preserve" y="1134.6134" stroke="none">M 0.017</text><path fill="none"
                  d="M1349 1177.1859 L1348.6187 1177.1859 L1345.2188 1177.1859 C1339.5857 1177.1859 1335.0192 1181.7524 1335.0192 1187.3855 L1335.0192 1194.1853 L1335.0192 1530.49 L1335.0192 1537.2897 C1335.0192 1542.9229 1339.5857 1547.4894 1345.2188 1547.4894 L1348.6187 1547.4894 L1349 1547.4894"
                  stroke-width="6.7998" stroke-linecap="butt"
                  stroke-linejoin="bevel"/>
            <path d="M1348.6187 1173.786 L1485 1173.786 L1485 1180.5858 L1348.6187 1180.5858 Z"
                  stroke="none"/>
            <text x="1359.9515" xml:space="preserve" y="1125.1219" stroke="none"></text>
            <circle fill="yellow" stroke-width="2.2666" r="45.3317"
                    cx="1427.9492" cy="1117.1214" stroke="none"/>
            <circle fill="none" stroke-width="2.2666" r="45.3317" cx="1427.9492"
                    cy="1117.1214"/>
            <text x="1363.9537" xml:space="preserve" y="1051.4579" stroke="none">C 0.977</text><path fill="none"
                  d="M1502 929.8448 L1501.6132 929.8448 L1498.2133 929.8448 C1492.5802 929.8448 1488.0137 934.4113 1488.0137 940.0444 L1488.0137 946.8442 L1488.0137 1407.5278 L1488.0137 1414.3275 C1488.0137 1419.9607 1492.5802 1424.5272 1498.2133 1424.5272 L1501.6132 1424.5272 L1502 1424.5272"
                  stroke-width="6.7998" stroke-linecap="butt"
                  stroke-linejoin="bevel"/>
            <path d="M1501.6132 926.4449 L2012 926.4449 L2012 933.2447 L1501.6132 933.2447 Z"
                  stroke="none"/>
            <text x="1665.9407" xml:space="preserve" y="877.7808" stroke="none"></text>
            <text x="1688.6066" xml:space="preserve" y="877.7808" stroke="none"></text>
            <text x="1711.2723" xml:space="preserve" y="877.7808" stroke="none"></text>
            <text x="1733.9382" xml:space="preserve" y="877.7808" stroke="none"></text>
            <path fill="blue"
                  d="M1847.2676 869.7802 A45.3317 45.3317 0 0 0 1846.8352 863.5339L 1801.9358 869.7802 Z"
                  stroke-width="2.2666" stroke="none"/>
            <path fill="none" stroke-width="2.2666"
                  d="M1847.2676 869.7802 A45.3317 45.3317 0 0 0 1846.8352 863.5339L 1801.9358 869.7802 Z"/>
            <path fill="yellow"
                  d="M1846.8352 863.5339 A45.3317 45.3317 0 1 0 1845.6231 881.8793L 1801.9358 869.7802 Z"
                  stroke-width="2.2666" stroke="none"/>
            <path fill="none" stroke-width="2.2666"
                  d="M1846.8352 863.5339 A45.3317 45.3317 0 1 0 1845.6231 881.8793L 1801.9358 869.7802 Z"/>
            <path fill="lime"
                  d="M1845.6231 881.8793 A45.3317 45.3317 0 0 0 1846.795 876.3085L 1801.9358 869.7802 Z"
                  stroke-width="2.2666" stroke="none"/>
            <path fill="none" stroke-width="2.2666"
                  d="M1845.6231 881.8793 A45.3317 45.3317 0 0 0 1846.795 876.3085L 1801.9358 869.7802 Z"/>
            <path fill="red"
                  d="M1846.795 876.3085 A45.3317 45.3317 0 0 0 1847.2676 869.7802L 1801.9358 869.7802 Z"
                  stroke-width="2.2666" stroke="none"/>
            <path fill="none" stroke-width="2.2666"
                  d="M1846.795 876.3085 A45.3317 45.3317 0 0 0 1847.2676 869.7802L 1801.9358 869.7802 Z"/>
            <circle fill="none" stroke-width="2.2666" r="45.3317" cx="1801.9358"
                    cy="869.7802"/>
            <text x="1705.8041" xml:space="preserve" y="804.1168" stroke="none">A 0.022</text><text x="1703.8624"
                  xml:space="preserve" y="770.118" stroke="none">C 0.935</text><text x="1705.705"
                  xml:space="preserve" y="736.1192" stroke="none">E 0.020</text><text x="1704.3181"
                  xml:space="preserve" y="702.1204" stroke="none">M 0.023</text><path fill="none"
                  d="M2029 882.2465 L2028.5944 882.2465 L2025.1945 882.2465 C2019.5614 882.2465 2014.9949 886.813 2014.9949 892.4462 L2014.9949 899.2459 L2014.9949 960.4437 L2014.9949 967.2435 C2014.9949 972.8766 2019.5614 977.4432 2025.1945 977.4432 L2028.5944 977.4432 L2029 977.4432"
                  stroke-width="6.7998" stroke-linecap="butt"
                  stroke-linejoin="bevel"/>
            <path d="M2028.5944 878.8466 L2233 878.8466 L2233 885.6464 L2028.5944 885.6464 Z"
                  stroke="none"/>
            <text x="2039.9274" xml:space="preserve" y="830.1826" stroke="none"></text>
            <text x="2062.5933" xml:space="preserve" y="830.1826" stroke="none"></text>
            <text x="2085.259" xml:space="preserve" y="830.1826" stroke="none"></text>
            <text x="2107.9248" xml:space="preserve" y="830.1826" stroke="none"></text>
            <path fill="blue"
                  d="M2221.2543 822.1819 A45.3317 45.3317 0 0 0 2220.0995 812.0154L 2175.9225 822.1819 Z"
                  stroke-width="2.2666" stroke="none"/>
            <path fill="none" stroke-width="2.2666"
                  d="M2221.2543 822.1819 A45.3317 45.3317 0 0 0 2220.0995 812.0154L 2175.9225 822.1819 Z"/>
            <path fill="yellow"
                  d="M2220.0995 812.0154 A45.3317 45.3317 0 1 0 2216.9399 841.4832L 2175.9225 822.1819 Z"
                  stroke-width="2.2666" stroke="none"/>
            <path fill="none" stroke-width="2.2666"
                  d="M2220.0995 812.0154 A45.3317 45.3317 0 1 0 2216.9399 841.4832L 2175.9225 822.1819 Z"/>
            <path fill="lime"
                  d="M2216.9399 841.4833 A45.3317 45.3317 0 0 0 2220.0348 832.6259L 2175.9225 822.1819 Z"
                  stroke-width="2.2666" stroke="none"/>
            <path fill="none" stroke-width="2.2666"
                  d="M2216.9399 841.4833 A45.3317 45.3317 0 0 0 2220.0348 832.6259L 2175.9225 822.1819 Z"/>
            <path fill="red"
                  d="M2220.0348 832.6259 A45.3317 45.3317 0 0 0 2221.2543 822.1819L 2175.9225 822.1819 Z"
                  stroke-width="2.2666" stroke="none"/>
            <path fill="none" stroke-width="2.2666"
                  d="M2220.0348 832.6259 A45.3317 45.3317 0 0 0 2221.2543 822.1819L 2175.9225 822.1819 Z"/>
            <circle fill="none" stroke-width="2.2666" r="45.3317" cx="2175.9225"
                    cy="822.1819"/>
            <text x="2079.6917" xml:space="preserve" y="756.5185" stroke="none">A 0.036</text><text x="2077.968"
                  xml:space="preserve" y="722.5197" stroke="none">C 0.894</text><text x="2079.6521"
                  xml:space="preserve" y="688.5209" stroke="none">E 0.033</text><text x="2078.3047"
                  xml:space="preserve" y="654.5222" stroke="none">M 0.037</text><path fill="none"
                  d="M2250 850.5143 L2249.5867 850.5143 L2246.1868 850.5143 C2240.5537 850.5143 2235.9871 855.0808 2235.9871 860.7139 L2235.9871 867.5137 L2235.9871 896.9793 L2235.9871 903.7791 C2235.9871 909.4122 2240.5537 913.9787 2246.1868 913.9787 L2249.5867 913.9787 L2250 913.9787"
                  stroke-width="6.7998" stroke-linecap="butt"
                  stroke-linejoin="bevel"/>
            <path d="M2249.5864 847.1144 L2294.9182 847.1144 L2294.9182 853.9142 L2249.5864 853.9142 Z"
                  stroke="none"/>
            <text font-style="italic" x="2306.2512" xml:space="preserve"
                  font-size="45" y="863.1819" stroke="none">Tolpis laciniata PH</text><path d="M2249.5864 910.5789 L2294.9182 910.5789 L2294.9182 917.3787 L2249.5864 917.3787 Z"
                  stroke="none"/>
            <text font-style="italic" x="2306.2512" xml:space="preserve"
                  font-size="45" y="926.6464" stroke="none">Tolpis farinulosa C</text><path d="M2028.5944 974.0432 L2294.9182 974.0432 L2294.9182 980.843 L2028.5944 980.843 Z"
                  stroke="none"/>
            <text font-style="italic" x="2306.2512" xml:space="preserve"
                  font-size="45" y="990.1108" stroke="none">Tolpis crassiuscula T</text><path d="M1501.6132 1421.1272 L1706 1421.1272 L1706 1427.927 L1501.6132 1427.927 Z"
                  stroke="none"/>
            <text x="1512.946" xml:space="preserve" y="1372.4633" stroke="none"></text>
            <text x="1535.6119" xml:space="preserve" y="1372.4633" stroke="none"></text>
            <text x="1558.2778" xml:space="preserve" y="1372.4633" stroke="none"></text>
            <text x="1580.9437" xml:space="preserve" y="1372.4633" stroke="none"></text>
            <path fill="blue"
                  d="M1694.2729 1364.4626 A45.3317 45.3317 0 0 0 1694.1218 1360.7639L 1648.9412 1364.4626 Z"
                  stroke-width="2.2666" stroke="none"/>
            <path fill="none" stroke-width="2.2666"
                  d="M1694.2729 1364.4626 A45.3317 45.3317 0 0 0 1694.1218 1360.7639L 1648.9412 1364.4626 Z"/>
            <path fill="yellow"
                  d="M1694.1218 1360.7639 A45.3317 45.3317 0 1 0 1693.7148 1371.554L 1648.9412 1364.4626 Z"
                  stroke-width="2.2666" stroke="none"/>
            <path fill="none" stroke-width="2.2666"
                  d="M1694.1218 1360.7639 A45.3317 45.3317 0 1 0 1693.7148 1371.554L 1648.9412 1364.4626 Z"/>
            <path fill="lime"
                  d="M1693.7148 1371.554 A45.3317 45.3317 0 0 0 1694.1218 1368.1612L 1648.9412 1364.4626 Z"
                  stroke-width="2.2666" stroke="none"/>
            <path fill="none" stroke-width="2.2666"
                  d="M1693.7148 1371.554 A45.3317 45.3317 0 0 0 1694.1218 1368.1612L 1648.9412 1364.4626 Z"/>
            <path fill="red"
                  d="M1694.1218 1368.1612 A45.3317 45.3317 0 0 0 1694.2729 1364.4626L 1648.9412 1364.4626 Z"
                  stroke-width="2.2666" stroke="none"/>
            <path fill="none" stroke-width="2.2666"
                  d="M1694.1218 1368.1612 A45.3317 45.3317 0 0 0 1694.2729 1364.4626L 1648.9412 1364.4626 Z"/>
            <circle fill="none" stroke-width="2.2666" r="45.3317" cx="1648.9412"
                    cy="1364.4626"/>
            <text x="1552.7104" xml:space="preserve" y="1298.7992" stroke="none">A 0.013</text><text x="1551.0461"
                  xml:space="preserve" y="1264.8004" stroke="none">C 0.962</text><text x="1552.7699"
                  xml:space="preserve" y="1230.8016" stroke="none">E 0.012</text><text x="1551.3236"
                  xml:space="preserve" y="1196.8029" stroke="none">M 0.013</text><path fill="none"
                  d="M1723 1365.0293 L1722.6053 1365.0293 L1719.2054 1365.0293 C1713.5724 1365.0293 1709.0059 1369.5958 1709.0059 1375.2289 L1709.0059 1382.0287 L1709.0059 1467.0256 L1709.0059 1473.8254 C1709.0059 1479.4586 1713.5724 1484.0251 1719.2054 1484.0251 L1722.6053 1484.0251 L1723 1484.0251"
                  stroke-width="6.7998" stroke-linecap="butt"
                  stroke-linejoin="bevel"/>
            <path d="M1722.6053 1361.6294 L1859 1361.6294 L1859 1368.4292 L1722.6053 1368.4292 Z"
                  stroke="none"/>
            <text x="1733.9382" xml:space="preserve" y="1312.9653" stroke="none"></text>
            <circle fill="yellow" stroke-width="2.2666" r="45.3317"
                    cx="1801.9358" cy="1304.9648" stroke="none"/>
            <circle fill="none" stroke-width="2.2666" r="45.3317" cx="1801.9358"
                    cy="1304.9648"/>
            <text x="1737.8612" xml:space="preserve" y="1239.3013" stroke="none">C 0.975</text><path fill="none"
                  d="M1876 1309.4979 L1875.5999 1309.4979 L1872.2 1309.4979 C1866.5669 1309.4979 1862.0004 1314.0645 1862.0004 1319.6975 L1862.0004 1326.4973 L1862.0004 1403.5613 L1862.0004 1410.361 C1862.0004 1415.9941 1866.5669 1420.5607 1872.2 1420.5607 L1875.5999 1420.5607 L1876 1420.5607"
                  stroke-width="6.7998" stroke-linecap="butt"
                  stroke-linejoin="bevel"/>
            <path d="M1875.5999 1306.098 L2012 1306.098 L2012 1312.8978 L1875.5999 1312.8978 Z"
                  stroke="none"/>
            <text x="1886.9327" xml:space="preserve" y="1257.434" stroke="none"></text>
            <circle fill="yellow" stroke-width="2.2666" r="45.3317"
                    cx="1954.9304" cy="1249.4334" stroke="none"/>
            <circle fill="none" stroke-width="2.2666" r="45.3317" cx="1954.9304"
                    cy="1249.4334"/>
            <text x="1890.9152" xml:space="preserve" y="1183.7699" stroke="none">C 0.978</text><path fill="none"
                  d="M2029 1261.8997 L2028.5944 1261.8997 L2025.1945 1261.8997 C2019.5614 1261.8997 2014.9949 1266.4662 2014.9949 1272.0992 L2014.9949 1278.899 L2014.9949 1340.0969 L2014.9949 1346.8966 C2014.9949 1352.5298 2019.5614 1357.0963 2025.1945 1357.0963 L2028.5944 1357.0963 L2029 1357.0963"
                  stroke-width="6.7998" stroke-linecap="butt"
                  stroke-linejoin="bevel"/>
            <path d="M2028.5944 1258.4998 L2233 1258.4998 L2233 1265.2996 L2028.5944 1265.2996 Z"
                  stroke="none"/>
            <text x="2039.9274" xml:space="preserve" y="1209.8357" stroke="none"></text>
            <text x="2062.5933" xml:space="preserve" y="1209.8357" stroke="none"></text>
            <text x="2085.259" xml:space="preserve" y="1209.8357" stroke="none"></text>
            <text x="2107.9248" xml:space="preserve" y="1209.8357" stroke="none"></text>
            <path fill="blue"
                  d="M2221.2543 1201.8351 A45.3317 45.3317 0 0 0 2221.1648 1198.9887L 2175.9225 1201.8351 Z"
                  stroke-width="2.2666" stroke="none"/>
            <path fill="none" stroke-width="2.2666"
                  d="M2221.2543 1201.8351 A45.3317 45.3317 0 0 0 2221.1648 1198.9887L 2175.9225 1201.8351 Z"/>
            <path fill="yellow"
                  d="M2221.1648 1198.9887 A45.3317 45.3317 0 1 0 2220.8602 1207.7992L 2175.9225 1201.8351 Z"
                  stroke-width="2.2666" stroke="none"/>
            <path fill="none" stroke-width="2.2666"
                  d="M2221.1648 1198.9887 A45.3317 45.3317 0 1 0 2220.8602 1207.7992L 2175.9225 1201.8351 Z"/>
            <path fill="lime"
                  d="M2220.8602 1207.7992 A45.3317 45.3317 0 0 0 2221.146 1204.9657L 2175.9225 1201.8351 Z"
                  stroke-width="2.2666" stroke="none"/>
            <path fill="none" stroke-width="2.2666"
                  d="M2220.8602 1207.7992 A45.3317 45.3317 0 0 0 2221.146 1204.9657L 2175.9225 1201.8351 Z"/>
            <path fill="red"
                  d="M2221.146 1204.9657 A45.3317 45.3317 0 0 0 2221.2543 1201.8351L 2175.9225 1201.8351 Z"
                  stroke-width="2.2666" stroke="none"/>
            <path fill="none" stroke-width="2.2666"
                  d="M2221.146 1204.9657 A45.3317 45.3317 0 0 0 2221.2543 1201.8351L 2175.9225 1201.8351 Z"/>
            <circle fill="none" stroke-width="2.2666" r="45.3317" cx="2175.9225"
                    cy="1201.8351"/>
            <text x="2079.7312" xml:space="preserve" y="1136.1716" stroke="none">A 0.010</text><text x="2077.9084"
                  xml:space="preserve" y="1102.1729" stroke="none">C 0.969</text><text x="2079.6917"
                  xml:space="preserve" y="1068.1741" stroke="none">E 0.010</text><text x="2080.405"
                  xml:space="preserve" y="1034.1753" stroke="none">M 0.011</text><path fill="none"
                  d="M2250 1230.1674 L2249.5867 1230.1674 L2246.1868 1230.1674 C2240.5537 1230.1674 2235.9871 1234.7339 2235.9871 1240.3669 L2235.9871 1247.1667 L2235.9871 1276.6323 L2235.9871 1283.4321 C2235.9871 1289.0653 2240.5537 1293.6318 2246.1868 1293.6318 L2249.5867 1293.6318 L2250 1293.6318"
                  stroke-width="6.7998" stroke-linecap="butt"
                  stroke-linejoin="bevel"/>
            <path d="M2249.5864 1226.7675 L2294.9182 1226.7675 L2294.9182 1233.5673 L2249.5864 1233.5673 Z"
                  stroke="none"/>
            <text font-style="italic" x="2306.2512" xml:space="preserve"
                  font-size="45" y="1242.8351" stroke="none">Tolpis santosii P</text><path d="M2249.5864 1290.2319 L2294.9182 1290.2319 L2294.9182 1297.0317 L2249.5864 1297.0317 Z"
                  stroke="none"/>
            <text font-style="italic" x="2306.2512" xml:space="preserve"
                  font-size="45" y="1306.2996" stroke="none">Tolpis lagopoda TR</text><path d="M2028.5944 1353.6964 L2294.9182 1353.6964 L2294.9182 1360.4962 L2028.5944 1360.4962 Z"
                  stroke="none"/>
            <text font-style="italic" x="2306.2512" xml:space="preserve"
                  font-size="45" y="1369.7639" stroke="none">Tolpis webbii T</text><path d="M1875.5999 1417.1608 L2294.9182 1417.1608 L2294.9182 1423.9606 L1875.5999 1423.9606 Z"
                  stroke="none"/>
            <text font-style="italic" x="2306.2512" xml:space="preserve"
                  font-size="45" y="1433.2283" stroke="none">Tolpis coronopifolia T</text><path d="M1722.6053 1480.6252 L2294.9182 1480.6252 L2294.9182 1487.425 L1722.6053 1487.425 Z"
                  stroke="none"/>
            <text font-style="italic" x="2306.2512" xml:space="preserve"
                  font-size="45" y="1496.6927" stroke="none">Tolpis glabrescens T</text><path d="M1348.6187 1544.0895 L2294.9182 1544.0895 L2294.9182 1550.8893 L1348.6187 1550.8893 Z"
                  stroke="none"/>
            <text font-style="italic" x="2306.2512" xml:space="preserve"
                  font-size="45" y="1560.1571" stroke="none">Tolpis spnov G</text><path d="M1127.6265 1607.554 L2294.9182 1607.554 L2294.9182 1614.3538 L1127.6265 1614.3538 Z"
                  stroke="none"/>
            <text font-style="italic" x="2306.2512" xml:space="preserve"
                  font-size="45" y="1623.6216" stroke="none">Tolpis virgata E</text>
        </g>
    </g>
</svg>
