<?xml version="1.0"?>
<!DOCTYPE svg PUBLIC '-//W3C//DTD SVG 1.0//EN'
    'http://www.w3.org/TR/2001/REC-SVG-20010904/DTD/svg10.dtd' >

<svg fill-opacity="1" xmlns:xlink="http://www.w3.org/1999/xlink"
     color-rendering="auto" color-interpolation="auto" text-rendering="auto"
     stroke="black" stroke-linecap="square" stroke-miterlimit="10"
     shape-rendering="auto" stroke-opacity="1" fill="black"
     stroke-dasharray="none" font-weight="normal" stroke-width="1"
     xmlns="http://www.w3.org/2000/svg" font-family="&apos;Dialog&apos;"
     font-style="normal" stroke-linejoin="miter" font-size="12"
     stroke-dashoffset="0" image-rendering="auto">
    <!--Generated by the Batik Graphics2D SVG Generator-->
    <defs id="genericDefs"/>
    <g>
        <g fill="white" stroke="white">
            <rect x="0" width="2835" height="1558" y="0" stroke="none"/>
            <path fill="black"
                  d="M24 296.7452 L245 296.7452 L245 304.0722 L24 304.0722 Z"
                  stroke="none"/>
        </g>
        <g font-family="&apos;Arial&apos;" font-size="29">
            <text x="36.6352" xml:space="preserve" y="244.3689" stroke="none"></text>
            <text x="61.0587" xml:space="preserve" y="244.3689" stroke="none"></text>
            <text x="85.4822" xml:space="preserve" y="244.3689" stroke="none"></text>
            <text x="109.9056" xml:space="preserve" y="244.3689" stroke="none"></text>
            <path fill="blue"
                  d="M232.023 235.6865 A48.8469 48.8469 0 0 0 151.5693 198.4435L 183.176 235.6865 Z"
                  stroke-width="2.4423" stroke="none"/>
            <path fill="none" stroke-width="2.4423"
                  d="M232.023 235.6865 A48.8469 48.8469 0 0 0 151.5693 198.4435L 183.176 235.6865 Z"/>
            <path fill="yellow"
                  d="M151.5693 198.4435 A48.8469 48.8469 0 0 0 138.4693 216.0058L 183.176 235.6865 Z"
                  stroke-width="2.4423" stroke="none"/>
            <path fill="none" stroke-width="2.4423"
                  d="M151.5693 198.4435 A48.8469 48.8469 0 0 0 138.4693 216.0058L 183.176 235.6865 Z"/>
            <path fill="lime"
                  d="M138.4693 216.0058 A48.8469 48.8469 0 0 0 152.0398 273.3237L 183.176 235.6865 Z"
                  stroke-width="2.4423" stroke="none"/>
            <path fill="none" stroke-width="2.4423"
                  d="M138.4693 216.0058 A48.8469 48.8469 0 0 0 152.0398 273.3237L 183.176 235.6865 Z"/>
            <path fill="red"
                  d="M152.0398 273.3237 A48.8469 48.8469 0 0 0 232.023 235.6865L 183.176 235.6865 Z"
                  stroke-width="2.4423" stroke="none"/>
            <path fill="none" stroke-width="2.4423"
                  d="M152.0398 273.3237 A48.8469 48.8469 0 0 0 232.023 235.6865L 183.176 235.6865 Z"/>
            <circle fill="none" stroke-width="2.4423" r="48.8469" cx="183.176"
                    cy="235.6865"/>
            <text x="79.5898" xml:space="preserve" y="164.9926" stroke="none">A 0.362</text><text x="77.6897"
                  xml:space="preserve" y="128.3574" stroke="none">C 0.072</text><text x="79.4403"
                  xml:space="preserve" y="91.7222" stroke="none">E 0.206</text><text x="78.0313"
                  xml:space="preserve" y="55.087" stroke="none">M 0.360</text><path fill="none"
                  d="M263 129.4778 L262.5523 129.4778 L258.8888 129.4778 C252.8189 129.4778 247.8983 134.3984 247.8983 140.4684 L247.8983 147.7954 L247.8983 445.695 L247.8983 453.0221 C247.8983 459.092 252.8189 464.0126 258.8888 464.0126 L262.5523 464.0126 L263 464.0126"
                  stroke-width="7.327" stroke-linecap="butt"
                  stroke-linejoin="bevel"/>
            <path d="M262.5523 125.8143 L2253.0654 125.8143 L2253.0654 133.1413 L262.5523 133.1413 Z"
                  stroke="none"/>
            <text font-style="italic" x="2265.2771" xml:space="preserve"
                  font-size="49" y="143.9485" stroke="none">Arnoseris minima E</text><path d="M262.5523 460.3491 L483 460.3491 L483 467.6761 L262.5523 467.6761 Z"
                  stroke="none"/>
            <text x="274.7641" xml:space="preserve" y="407.9728" stroke="none"></text>
            <text x="299.1876" xml:space="preserve" y="407.9728" stroke="none"></text>
            <text x="323.611" xml:space="preserve" y="407.9728" stroke="none"></text>
            <text x="348.0345" xml:space="preserve" y="407.9728" stroke="none"></text>
            <path fill="blue"
                  d="M470.1519 399.2904 A48.8469 48.8469 0 0 0 384.0619 367.6837L 421.3049 399.2904 Z"
                  stroke-width="2.4423" stroke="none"/>
            <path fill="none" stroke-width="2.4423"
                  d="M470.1519 399.2904 A48.8469 48.8469 0 0 0 384.0619 367.6837L 421.3049 399.2904 Z"/>
            <path fill="yellow"
                  d="M384.0619 367.6837 A48.8469 48.8469 0 0 0 378.5 375.7582L 421.3049 399.2904 Z"
                  stroke-width="2.4423" stroke="none"/>
            <path fill="none" stroke-width="2.4423"
                  d="M384.0619 367.6837 A48.8469 48.8469 0 0 0 378.5 375.7582L 421.3049 399.2904 Z"/>
            <path fill="lime"
                  d="M378.5 375.7582 A48.8469 48.8469 0 0 0 383.6677 430.4266L 421.3049 399.2904 Z"
                  stroke-width="2.4423" stroke="none"/>
            <path fill="none" stroke-width="2.4423"
                  d="M378.5 375.7582 A48.8469 48.8469 0 0 0 383.6677 430.4266L 421.3049 399.2904 Z"/>
            <path fill="red"
                  d="M383.6677 430.4266 A48.8469 48.8469 0 0 0 470.1519 399.2904L 421.3049 399.2904 Z"
                  stroke-width="2.4423" stroke="none"/>
            <path fill="none" stroke-width="2.4423"
                  d="M383.6677 430.4266 A48.8469 48.8469 0 0 0 470.1519 399.2904L 421.3049 399.2904 Z"/>
            <circle fill="none" stroke-width="2.4423" r="48.8469" cx="421.3049"
                    cy="399.2904"/>
            <text x="317.5905" xml:space="preserve" y="328.5965" stroke="none">A 0.388</text><text x="315.8186"
                  xml:space="preserve" y="291.9613" stroke="none">C 0.032</text><text x="317.6119"
                  xml:space="preserve" y="255.3261" stroke="none">E 0.190</text><text x="316.1602"
                  xml:space="preserve" y="218.6909" stroke="none">M 0.390</text><path fill="none"
                  d="M501 197.8635 L500.6812 197.8635 L497.0177 197.8635 C490.9478 197.8635 486.0271 202.7842 486.0271 208.8541 L486.0271 216.1811 L486.0271 711.8441 L486.0271 719.1711 C486.0271 725.241 490.9478 730.1617 497.0177 730.1617 L500.6812 730.1617 L501 730.1617"
                  stroke-width="7.327" stroke-linecap="butt"
                  stroke-linejoin="bevel"/>
            <path d="M500.6812 194.2 L2253.0654 194.2 L2253.0654 201.5271 L500.6812 201.5271 Z"
                  stroke="none"/>
            <text font-style="italic" x="2265.2771" xml:space="preserve"
                  font-size="49" y="212.3342" stroke="none">Tolpis macrorhiza M</text><path d="M500.6812 726.4982 L721 726.4982 L721 733.8252 L500.6812 733.8252 Z"
                  stroke="none"/>
            <text x="512.8929" xml:space="preserve" y="674.1219" stroke="none"></text>
            <text x="537.3164" xml:space="preserve" y="674.1219" stroke="none"></text>
            <text x="561.7399" xml:space="preserve" y="674.1219" stroke="none"></text>
            <text x="586.1633" xml:space="preserve" y="674.1219" stroke="none"></text>
            <path fill="blue"
                  d="M708.2807 665.4395 A48.8469 48.8469 0 0 0 646.989 618.2044L 659.4338 665.4395 Z"
                  stroke-width="2.4423" stroke="none"/>
            <path fill="none" stroke-width="2.4423"
                  d="M708.2807 665.4395 A48.8469 48.8469 0 0 0 646.989 618.2044L 659.4338 665.4395 Z"/>
            <path fill="yellow"
                  d="M646.989 618.2044 A48.8469 48.8469 0 0 0 632.4876 624.6973L 659.4338 665.4395 Z"
                  stroke-width="2.4423" stroke="none"/>
            <path fill="none" stroke-width="2.4423"
                  d="M646.989 618.2044 A48.8469 48.8469 0 0 0 632.4876 624.6973L 659.4338 665.4395 Z"/>
            <path fill="lime"
                  d="M632.4876 624.6973 A48.8469 48.8469 0 0 0 644.3393 711.8957L 659.4338 665.4395 Z"
                  stroke-width="2.4423" stroke="none"/>
            <path fill="none" stroke-width="2.4423"
                  d="M632.4876 624.6973 A48.8469 48.8469 0 0 0 644.3393 711.8957L 659.4338 665.4395 Z"/>
            <path fill="red"
                  d="M644.3393 711.8957 A48.8469 48.8469 0 0 0 708.2807 665.4395L 659.4338 665.4395 Z"
                  stroke-width="2.4423" stroke="none"/>
            <path fill="none" stroke-width="2.4423"
                  d="M644.3393 711.8957 A48.8469 48.8469 0 0 0 708.2807 665.4395L 659.4338 665.4395 Z"/>
            <circle fill="none" stroke-width="2.4423" r="48.8469" cx="659.4338"
                    cy="665.4395"/>
            <text x="558.0038" xml:space="preserve" y="594.7456" stroke="none">A 0.291</text><text x="553.9474"
                  xml:space="preserve" y="558.1104" stroke="none">C 0.052</text><text x="555.6981"
                  xml:space="preserve" y="521.4752" stroke="none">E 0.357</text><text x="554.2891"
                  xml:space="preserve" y="484.84" stroke="none">M 0.300</text><path fill="none"
                  d="M739 482.397 L738.8101 482.397 L735.1465 482.397 C729.0767 482.397 724.156 487.3177 724.156 493.3876 L724.156 500.7146 L724.156 959.6088 L724.156 966.9358 C724.156 973.0057 729.0767 977.9264 735.1465 977.9264 L738.8101 977.9264 L739 977.9264"
                  stroke-width="7.327" stroke-linecap="butt"
                  stroke-linejoin="bevel"/>
            <path d="M738.8101 478.7335 L1997 478.7335 L1997 486.0605 L738.8101 486.0605 Z"
                  stroke="none"/>
            <text x="1294.4441" xml:space="preserve" y="426.3572" stroke="none"></text>
            <text x="1318.8676" xml:space="preserve" y="426.3572" stroke="none"></text>
            <path fill="blue"
                  d="M1440.9849 417.6748 A48.8469 48.8469 0 1 0 1344.6878 429.2726L 1392.138 417.6748 Z"
                  stroke-width="2.4423" stroke="none"/>
            <path fill="none" stroke-width="2.4423"
                  d="M1440.9849 417.6748 A48.8469 48.8469 0 1 0 1344.6878 429.2726L 1392.138 417.6748 Z"/>
            <path fill="red"
                  d="M1344.6878 429.2726 A48.8469 48.8469 0 0 0 1440.9849 417.6748L 1392.138 417.6748 Z"
                  stroke-width="2.4423" stroke="none"/>
            <path fill="none" stroke-width="2.4423"
                  d="M1344.6878 429.2726 A48.8469 48.8469 0 0 0 1440.9849 417.6748L 1392.138 417.6748 Z"/>
            <circle fill="none" stroke-width="2.4423" r="48.8469" cx="1392.138"
                    cy="417.6748"/>
            <text x="1312.8684" xml:space="preserve" y="346.9809" stroke="none">A 0.536</text><text x="1311.4167"
                  xml:space="preserve" y="310.3457" stroke="none">M 0.460</text><path fill="none"
                  d="M2015 431.1077 L2014.9366 431.1077 L2011.2731 431.1077 C2005.2031 431.1077 2000.2825 436.0284 2000.2825 442.0983 L2000.2825 449.4253 L2000.2825 515.3687 L2000.2825 522.6957 C2000.2825 528.7656 2005.2031 533.6863 2011.2731 533.6863 L2014.9366 533.6863 L2015 533.6863"
                  stroke-width="7.327" stroke-linecap="butt"
                  stroke-linejoin="bevel"/>
            <path d="M2014.9365 427.4442 L2186 427.4442 L2186 434.7712 L2014.9365 434.7712 Z"
                  stroke="none"/>
            <text x="2027.1483" xml:space="preserve" y="375.0679" stroke="none"></text>
            <text x="2051.5718" xml:space="preserve" y="375.0679" stroke="none"></text>
            <path fill="blue"
                  d="M2173.689 366.3855 A48.8469 48.8469 0 1 0 2075.9973 366.8463L 2124.8421 366.3855 Z"
                  stroke-width="2.4423" stroke="none"/>
            <path fill="none" stroke-width="2.4423"
                  d="M2173.689 366.3855 A48.8469 48.8469 0 1 0 2075.9973 366.8463L 2124.8421 366.3855 Z"/>
            <path fill="red"
                  d="M2075.9973 366.8463 A48.8469 48.8469 0 0 0 2173.689 366.3855L 2124.8421 366.3855 Z"
                  stroke-width="2.4423" stroke="none"/>
            <path fill="none" stroke-width="2.4423"
                  d="M2075.9973 366.8463 A48.8469 48.8469 0 0 0 2173.689 366.3855L 2124.8421 366.3855 Z"/>
            <circle fill="none" stroke-width="2.4423" r="48.8469" cx="2124.8421"
                    cy="366.3855"/>
            <text x="2047.8357" xml:space="preserve" y="295.6916" stroke="none">A 0.501</text><text x="2044.0568"
                  xml:space="preserve" y="259.0564" stroke="none">M 0.498</text><path fill="none"
                  d="M2205 396.9149 L2204.2185 396.9149 L2200.5549 396.9149 C2194.4851 396.9149 2189.5645 401.8355 2189.5645 407.9054 L2189.5645 415.2325 L2189.5645 446.983 L2189.5645 454.31 C2189.5645 460.3799 2194.4851 465.3006 2200.5549 465.3006 L2204.2185 465.3006 L2205 465.3006"
                  stroke-width="7.327" stroke-linecap="butt"
                  stroke-linejoin="bevel"/>
            <path d="M2204.2185 393.2513 L2253.0654 393.2513 L2253.0654 400.5784 L2204.2185 400.5784 Z"
                  stroke="none"/>
            <text font-style="italic" x="2265.2771" xml:space="preserve"
                  font-size="49" y="411.3855" stroke="none">Tolpis succulenta A</text><path d="M2204.2185 461.637 L2253.0654 461.637 L2253.0654 468.9641 L2204.2185 468.9641 Z"
                  stroke="none"/>
            <text font-style="italic" x="2265.2771" xml:space="preserve"
                  font-size="49" y="479.7712" stroke="none">Tolpis succulenta M</text><path d="M2014.9365 530.0228 L2253.0654 530.0228 L2253.0654 537.3498 L2014.9365 537.3498 Z"
                  stroke="none"/>
            <text font-style="italic" x="2265.2771" xml:space="preserve"
                  font-size="49" y="548.1569" stroke="none">Tolpis azorica A</text><path d="M738.8101 974.2628 L959 974.2628 L959 981.5898 L738.8101 981.5898 Z"
                  stroke="none"/>
            <text x="751.0218" xml:space="preserve" y="921.8865" stroke="none"></text>
            <text x="775.4453" xml:space="preserve" y="921.8865" stroke="none"></text>
            <text x="799.8688" xml:space="preserve" y="921.8865" stroke="none"></text>
            <text x="824.2922" xml:space="preserve" y="921.8865" stroke="none"></text>
            <path fill="blue"
                  d="M946.4096 913.2041 A48.8469 48.8469 0 0 0 945.6556 904.6547L 897.5626 913.2041 Z"
                  stroke-width="2.4423" stroke="none"/>
            <path fill="none" stroke-width="2.4423"
                  d="M946.4096 913.2041 A48.8469 48.8469 0 0 0 945.6556 904.6547L 897.5626 913.2041 Z"/>
            <path fill="yellow"
                  d="M945.6556 904.6547 A48.8469 48.8469 0 0 0 896.0283 864.3812L 897.5626 913.2041 Z"
                  stroke-width="2.4423" stroke="none"/>
            <path fill="none" stroke-width="2.4423"
                  d="M945.6556 904.6547 A48.8469 48.8469 0 0 0 896.0283 864.3812L 897.5626 913.2041 Z"/>
            <path fill="lime"
                  d="M896.0283 864.3812 A48.8469 48.8469 0 1 0 945.5444 922.3571L 897.5626 913.2041 Z"
                  stroke-width="2.4423" stroke="none"/>
            <path fill="none" stroke-width="2.4423"
                  d="M896.0283 864.3812 A48.8469 48.8469 0 1 0 945.5444 922.3571L 897.5626 913.2041 Z"/>
            <path fill="red"
                  d="M945.5444 922.3571 A48.8469 48.8469 0 0 0 946.4096 913.2041L 897.5626 913.2041 Z"
                  stroke-width="2.4423" stroke="none"/>
            <path fill="none" stroke-width="2.4423"
                  d="M945.5444 922.3571 A48.8469 48.8469 0 0 0 946.4096 913.2041L 897.5626 913.2041 Z"/>
            <circle fill="none" stroke-width="2.4423" r="48.8469" cx="897.5626"
                    cy="913.2041"/>
            <text x="793.8482" xml:space="preserve" y="842.5102" stroke="none">A 0.028</text><text x="791.9696"
                  xml:space="preserve" y="805.875" stroke="none">C 0.227</text><text x="793.7416"
                  xml:space="preserve" y="769.2397" stroke="none">E 0.715</text><text x="792.4179"
                  xml:space="preserve" y="732.6046" stroke="none">M 0.030</text><path fill="none"
                  d="M977 602.072 L976.9389 602.072 L973.2754 602.072 C967.2055 602.072 962.2849 606.9927 962.2849 613.0626 L962.2849 620.3896 L962.2849 1335.4631 L962.2849 1342.7903 C962.2849 1348.8601 967.2055 1353.7808 973.2754 1353.7808 L976.9389 1353.7808 L977 1353.7808"
                  stroke-width="7.327" stroke-linecap="butt"
                  stroke-linejoin="bevel"/>
            <path d="M976.939 598.4085 L2253.0654 598.4085 L2253.0654 605.7355 L976.939 605.7355 Z"
                  stroke="none"/>
            <text font-style="italic" x="2265.2771" xml:space="preserve"
                  font-size="49" y="616.5427" stroke="none">Tolpis barbata E</text><path d="M976.939 1350.1172 L1197 1350.1172 L1197 1357.4443 L976.939 1357.4443 Z"
                  stroke="none"/>
            <text x="989.1507" xml:space="preserve" y="1297.7408" stroke="none"></text>
            <text x="1013.5742" xml:space="preserve" y="1297.7408" stroke="none"></text>
            <text x="1037.9976" xml:space="preserve" y="1297.7408" stroke="none"></text>
            <text x="1062.4211" xml:space="preserve" y="1297.7408" stroke="none"></text>
            <path fill="blue"
                  d="M1184.5385 1289.0585 A48.8469 48.8469 0 0 0 1184.3217 1284.4616L 1135.6916 1289.0585 Z"
                  stroke-width="2.4423" stroke="none"/>
            <path fill="none" stroke-width="2.4423"
                  d="M1184.5385 1289.0585 A48.8469 48.8469 0 0 0 1184.3217 1284.4616L 1135.6916 1289.0585 Z"/>
            <path fill="yellow"
                  d="M1184.3217 1284.4616 A48.8469 48.8469 0 0 0 1099.8743 1255.8448L 1135.6916 1289.0585 Z"
                  stroke-width="2.4423" stroke="none"/>
            <path fill="none" stroke-width="2.4423"
                  d="M1184.3217 1284.4616 A48.8469 48.8469 0 0 0 1099.8743 1255.8448L 1135.6916 1289.0585 Z"/>
            <path fill="lime"
                  d="M1099.8743 1255.8449 A48.8469 48.8469 0 1 0 1184.2601 1294.2661L 1135.6916 1289.0585 Z"
                  stroke-width="2.4423" stroke="none"/>
            <path fill="none" stroke-width="2.4423"
                  d="M1099.8743 1255.8449 A48.8469 48.8469 0 1 0 1184.2601 1294.2661L 1135.6916 1289.0585 Z"/>
            <path fill="red"
                  d="M1184.2601 1294.2661 A48.8469 48.8469 0 0 0 1184.5385 1289.0585L 1135.6916 1289.0585 Z"
                  stroke-width="2.4423" stroke="none"/>
            <path fill="none" stroke-width="2.4423"
                  d="M1184.2601 1294.2661 A48.8469 48.8469 0 0 0 1184.5385 1289.0585L 1135.6916 1289.0585 Z"/>
            <circle fill="none" stroke-width="2.4423" r="48.8469" cx="1135.6916"
                    cy="1289.0585"/>
            <text x="1031.9131" xml:space="preserve" y="1218.3646" stroke="none">A 0.015</text><text x="1030.0984"
                  xml:space="preserve" y="1181.7294" stroke="none">C 0.366</text><text x="1032.0625"
                  xml:space="preserve" y="1145.0942" stroke="none">E 0.602</text><text x="1030.504"
                  xml:space="preserve" y="1108.459" stroke="none">M 0.017</text><path fill="none"
                  d="M1216 1233.5714 L1215.068 1233.5714 L1211.4044 1233.5714 C1205.3345 1233.5714 1200.4138 1238.4921 1200.4138 1244.562 L1200.4138 1251.889 L1200.4138 1455.6724 L1200.4138 1462.9994 C1200.4138 1469.0692 1205.3345 1473.9899 1211.4044 1473.9899 L1215.068 1473.9899 L1216 1473.9899"
                  stroke-width="7.327" stroke-linecap="butt"
                  stroke-linejoin="bevel"/>
            <path d="M1215.0677 1229.908 L1362 1229.908 L1362 1237.2351 L1215.0677 1237.2351 Z"
                  stroke="none"/>
            <text x="1227.2795" xml:space="preserve" y="1177.5316" stroke="none"></text>
            <circle fill="yellow" stroke-width="2.4423" r="48.8469"
                    cx="1300.5499" cy="1168.8493" stroke="none"/>
            <circle fill="none" stroke-width="2.4423" r="48.8469" cx="1300.5499"
                    cy="1168.8493"/>
            <text x="1231.5707" xml:space="preserve" y="1098.1553" stroke="none">C 0.999</text><path fill="none"
                  d="M1380 1061.5386 L1379.9264 1061.5386 L1376.2628 1061.5386 C1370.1929 1061.5386 1365.2722 1066.4592 1365.2722 1072.5292 L1365.2722 1079.8562 L1365.2722 1387.2866 L1365.2722 1394.6138 C1365.2722 1400.6836 1370.1929 1405.6042 1376.2628 1405.6042 L1379.9264 1405.6042 L1380 1405.6042"
                  stroke-width="7.327" stroke-linecap="butt"
                  stroke-linejoin="bevel"/>
            <path d="M1379.9263 1057.875 L1527 1057.875 L1527 1065.2021 L1379.9263 1065.2021 Z"
                  stroke="none"/>
            <text x="1392.1379" xml:space="preserve" y="1005.4988" stroke="none"></text>
            <circle fill="yellow" stroke-width="2.4423" r="48.8469"
                    cx="1465.4083" cy="996.8164" stroke="none"/>
            <circle fill="none" stroke-width="2.4423" r="48.8469" cx="1465.4083"
                    cy="996.8164"/>
            <text x="1396.4932" xml:space="preserve" y="926.1225" stroke="none">C 1.000</text><path fill="none"
                  d="M1545 849.9703 L1544.7848 849.9703 L1541.1212 849.9703 C1535.0513 849.9703 1530.1306 854.8909 1530.1306 860.9608 L1530.1306 868.2879 L1530.1306 1254.7893 L1530.1306 1262.1165 C1530.1306 1268.1863 1535.0513 1273.1069 1541.1212 1273.1069 L1544.7848 1273.1069 L1545 1273.1069"
                  stroke-width="7.327" stroke-linecap="butt"
                  stroke-linejoin="bevel"/>
            <path d="M1544.7847 846.3068 L2022 846.3068 L2022 853.6338 L1544.7847 853.6338 Z"
                  stroke="none"/>
            <text x="1721.8549" xml:space="preserve" y="793.9305" stroke="none"></text>
            <circle fill="yellow" stroke-width="2.4423" r="48.8469"
                    cx="1795.1253" cy="785.2481" stroke="none"/>
            <circle fill="none" stroke-width="2.4423" r="48.8469" cx="1795.1253"
                    cy="785.2481"/>
            <text x="1726.2101" xml:space="preserve" y="714.5541" stroke="none">C 1.000</text><path fill="none"
                  d="M2040 798.681 L2039.3602 798.681 L2035.6967 798.681 C2029.6267 798.681 2024.7061 803.6017 2024.7061 809.6716 L2024.7061 816.9987 L2024.7061 882.942 L2024.7061 890.269 C2024.7061 896.339 2029.6267 901.2596 2035.6967 901.2596 L2039.3602 901.2596 L2040 901.2596"
                  stroke-width="7.327" stroke-linecap="butt"
                  stroke-linejoin="bevel"/>
            <path d="M2039.36 795.0175 L2186 795.0175 L2186 802.3445 L2039.36 802.3445 Z"
                  stroke="none"/>
            <text x="2051.5718" xml:space="preserve" y="742.6412" stroke="none"></text>
            <circle fill="yellow" stroke-width="2.4423" r="48.8469"
                    cx="2124.8421" cy="733.9588" stroke="none"/>
            <circle fill="none" stroke-width="2.4423" r="48.8469" cx="2124.8421"
                    cy="733.9588"/>
            <text x="2055.8628" xml:space="preserve" y="663.2649" stroke="none">C 0.998</text><path fill="none"
                  d="M2205 764.4882 L2204.2185 764.4882 L2200.5549 764.4882 C2194.4851 764.4882 2189.5645 769.4089 2189.5645 775.4788 L2189.5645 782.8058 L2189.5645 814.5564 L2189.5645 821.8834 C2189.5645 827.9533 2194.4851 832.874 2200.5549 832.874 L2204.2185 832.874 L2205 832.874"
                  stroke-width="7.327" stroke-linecap="butt"
                  stroke-linejoin="bevel"/>
            <path d="M2204.2185 760.8247 L2253.0654 760.8247 L2253.0654 768.1517 L2204.2185 768.1517 Z"
                  stroke="none"/>
            <text font-style="italic" x="2265.2771" xml:space="preserve"
                  font-size="49" y="778.9589" stroke="none">Tolpis laciniata PH</text><path d="M2204.2185 829.2104 L2253.0654 829.2104 L2253.0654 836.5374 L2204.2185 836.5374 Z"
                  stroke="none"/>
            <text font-style="italic" x="2265.2771" xml:space="preserve"
                  font-size="49" y="847.3445" stroke="none">Tolpis farinulosa C</text><path d="M2039.36 897.5961 L2253.0654 897.5961 L2253.0654 904.9231 L2039.36 904.9231 Z"
                  stroke="none"/>
            <text font-style="italic" x="2265.2771" xml:space="preserve"
                  font-size="49" y="915.7303" stroke="none">Tolpis crassiuscula T</text><path d="M1544.7847 1269.4435 L1692 1269.4435 L1692 1276.7706 L1544.7847 1276.7706 Z"
                  stroke="none"/>
            <text x="1556.9965" xml:space="preserve" y="1217.0671" stroke="none"></text>
            <circle fill="yellow" stroke-width="2.4423" r="48.8469"
                    cx="1630.2669" cy="1208.3848" stroke="none"/>
            <circle fill="none" stroke-width="2.4423" r="48.8469" cx="1630.2669"
                    cy="1208.3848"/>
            <text x="1561.3517" xml:space="preserve" y="1137.6909" stroke="none">C 1.000</text><path fill="none"
                  d="M1710 1208.9954 L1709.6433 1208.9954 L1705.9797 1208.9954 C1699.9098 1208.9954 1694.9891 1213.916 1694.9891 1219.986 L1694.9891 1227.313 L1694.9891 1318.901 L1694.9891 1326.2281 C1694.9891 1332.298 1699.9098 1337.2186 1705.9797 1337.2186 L1709.6433 1337.2186 L1710 1337.2186"
                  stroke-width="7.327" stroke-linecap="butt"
                  stroke-linejoin="bevel"/>
            <path d="M1709.6432 1205.3318 L1857 1205.3318 L1857 1212.6589 L1709.6432 1212.6589 Z"
                  stroke="none"/>
            <text x="1721.8549" xml:space="preserve" y="1152.9556" stroke="none"></text>
            <circle fill="yellow" stroke-width="2.4423" r="48.8469"
                    cx="1795.1253" cy="1144.2731" stroke="none"/>
            <circle fill="none" stroke-width="2.4423" r="48.8469" cx="1795.1253"
                    cy="1144.2731"/>
            <text x="1726.2101" xml:space="preserve" y="1073.5792" stroke="none">C 1.000</text><path fill="none"
                  d="M1875 1149.1578 L1874.5017 1149.1578 L1870.8381 1149.1578 C1864.7682 1149.1578 1859.8475 1154.0785 1859.8475 1160.1484 L1859.8475 1167.4755 L1859.8475 1250.5153 L1859.8475 1257.8424 C1859.8475 1263.9122 1864.7682 1268.8329 1870.8381 1268.8329 L1874.5017 1268.8329 L1875 1268.8329"
                  stroke-width="7.327" stroke-linecap="butt"
                  stroke-linejoin="bevel"/>
            <path d="M1874.5016 1145.4943 L2022 1145.4943 L2022 1152.8214 L1874.5016 1152.8214 Z"
                  stroke="none"/>
            <text x="1886.7133" xml:space="preserve" y="1093.118" stroke="none"></text>
            <circle fill="yellow" stroke-width="2.4423" r="48.8469"
                    cx="1959.9838" cy="1084.4356" stroke="none"/>
            <circle fill="none" stroke-width="2.4423" r="48.8469" cx="1959.9838"
                    cy="1084.4356"/>
            <text x="1891.0686" xml:space="preserve" y="1013.7417" stroke="none">C 1.000</text><path fill="none"
                  d="M2040 1097.8687 L2039.3602 1097.8687 L2035.6967 1097.8687 C2029.6267 1097.8687 2024.7061 1102.7893 2024.7061 1108.8593 L2024.7061 1116.1863 L2024.7061 1182.1296 L2024.7061 1189.4567 C2024.7061 1195.5265 2029.6267 1200.4471 2035.6967 1200.4471 L2039.3602 1200.4471 L2040 1200.4471"
                  stroke-width="7.327" stroke-linecap="butt"
                  stroke-linejoin="bevel"/>
            <path d="M2039.36 1094.2051 L2186 1094.2051 L2186 1101.5322 L2039.36 1101.5322 Z"
                  stroke="none"/>
            <text x="2051.5718" xml:space="preserve" y="1041.8287" stroke="none"></text>
            <circle fill="yellow" stroke-width="2.4423" r="48.8469"
                    cx="2124.8421" cy="1033.1463" stroke="none"/>
            <circle fill="none" stroke-width="2.4423" r="48.8469" cx="2124.8421"
                    cy="1033.1463"/>
            <text x="2055.927" xml:space="preserve" y="962.4525" stroke="none">C 1.000</text><path fill="none"
                  d="M2205 1063.6757 L2204.2185 1063.6757 L2200.5549 1063.6757 C2194.4851 1063.6757 2189.5645 1068.5963 2189.5645 1074.6663 L2189.5645 1081.9933 L2189.5645 1113.7438 L2189.5645 1121.0709 C2189.5645 1127.1407 2194.4851 1132.0614 2200.5549 1132.0614 L2204.2185 1132.0614 L2205 1132.0614"
                  stroke-width="7.327" stroke-linecap="butt"
                  stroke-linejoin="bevel"/>
            <path d="M2204.2185 1060.0121 L2253.0654 1060.0121 L2253.0654 1067.3392 L2204.2185 1067.3392 Z"
                  stroke="none"/>
            <text font-style="italic" x="2265.2771" xml:space="preserve"
                  font-size="49" y="1078.1464" stroke="none">Tolpis santosii P</text><path d="M2204.2185 1128.3979 L2253.0654 1128.3979 L2253.0654 1135.7251 L2204.2185 1135.7251 Z"
                  stroke="none"/>
            <text font-style="italic" x="2265.2771" xml:space="preserve"
                  font-size="49" y="1146.5322" stroke="none">Tolpis lagopoda TR</text><path d="M2039.36 1196.7837 L2253.0654 1196.7837 L2253.0654 1204.1108 L2039.36 1204.1108 Z"
                  stroke="none"/>
            <text font-style="italic" x="2265.2771" xml:space="preserve"
                  font-size="49" y="1214.9178" stroke="none">Tolpis webbii T</text><path d="M1874.5016 1265.1693 L2253.0654 1265.1693 L2253.0654 1272.4965 L1874.5016 1272.4965 Z"
                  stroke="none"/>
            <text font-style="italic" x="2265.2771" xml:space="preserve"
                  font-size="49" y="1283.3036" stroke="none">Tolpis coronopifolia T</text><path d="M1709.6432 1333.5552 L2253.0654 1333.5552 L2253.0654 1340.8823 L1709.6432 1340.8823 Z"
                  stroke="none"/>
            <text font-style="italic" x="2265.2771" xml:space="preserve"
                  font-size="49" y="1351.6893" stroke="none">Tolpis glabrescens T</text><path d="M1379.9263 1401.9408 L2253.0654 1401.9408 L2253.0654 1409.2679 L1379.9263 1409.2679 Z"
                  stroke="none"/>
            <text font-style="italic" x="2265.2771" xml:space="preserve"
                  font-size="49" y="1420.075" stroke="none">Tolpis spnov G</text><path d="M1215.0677 1470.3265 L2253.0654 1470.3265 L2253.0654 1477.6537 L1215.0677 1477.6537 Z"
                  stroke="none"/>
            <text font-style="italic" x="2265.2771" xml:space="preserve"
                  font-size="49" y="1488.4608" stroke="none">Tolpis virgata E</text>
        </g>
    </g>
</svg>
