<?xml version="1.0"?>
<!DOCTYPE svg PUBLIC '-//W3C//DTD SVG 1.0//EN'
    'http://www.w3.org/TR/2001/REC-SVG-20010904/DTD/svg10.dtd' >

<svg fill-opacity="1" xmlns:xlink="http://www.w3.org/1999/xlink"
     color-rendering="auto" color-interpolation="auto" text-rendering="auto"
     stroke="black" stroke-linecap="square" stroke-miterlimit="10"
     shape-rendering="auto" stroke-opacity="1" fill="black"
     stroke-dasharray="none" font-weight="normal" stroke-width="1"
     xmlns="http://www.w3.org/2000/svg" font-family="&apos;Dialog&apos;"
     font-style="normal" stroke-linejoin="miter" font-size="12"
     stroke-dashoffset="0" image-rendering="auto">
    <!--Generated by the Batik Graphics2D SVG Generator-->
    <defs id="genericDefs"/>
    <g>
        <g fill="white" stroke="white">
            <rect x="0" width="2835" height="1752" y="0" stroke="none"/>
            <path fill="black"
                  d="M27 333.8304 L275 333.8304 L275 342.0731 L27 342.0731 Z"
                  stroke="none"/>
        </g>
        <g font-family="&apos;Arial&apos;" font-size="33">
            <text x="41.2136" xml:space="preserve" y="274.5342" stroke="none"></text>
            <text x="68.6894" xml:space="preserve" y="274.5342" stroke="none"></text>
            <text x="96.1651" xml:space="preserve" y="274.5342" stroke="none"></text>
            <text x="123.6409" xml:space="preserve" y="274.5342" stroke="none"></text>
            <path fill="blue"
                  d="M261.0196 265.141 A54.9515 54.9515 0 0 0 206.0681 210.1895L 206.0681 265.141 Z"
                  stroke-width="2.7476" stroke="none"/>
            <path fill="none" stroke-width="2.7476"
                  d="M261.0196 265.141 A54.9515 54.9515 0 0 0 206.0681 210.1895L 206.0681 265.141 Z"/>
            <path fill="lime"
                  d="M206.0681 210.1895 A54.9515 54.9515 0 0 0 151.1166 265.141L 206.0681 265.141 Z"
                  stroke-width="2.7476" stroke="none"/>
            <path fill="none" stroke-width="2.7476"
                  d="M206.0681 210.1895 A54.9515 54.9515 0 0 0 151.1166 265.141L 206.0681 265.141 Z"/>
            <path fill="red"
                  d="M151.1166 265.141 A54.9515 54.9515 0 0 0 206.0681 320.0925L 206.0681 265.141 Z"
                  stroke-width="2.7476" stroke="none"/>
            <path fill="none" stroke-width="2.7476"
                  d="M151.1166 265.141 A54.9515 54.9515 0 0 0 206.0681 320.0925L 206.0681 265.141 Z"/>
            <path fill="yellow"
                  d="M206.0681 320.0925 A54.9515 54.9515 0 0 0 261.0196 265.141L 206.0681 265.141 Z"
                  stroke-width="2.7476" stroke="none"/>
            <path fill="none" stroke-width="2.7476"
                  d="M206.0681 320.0925 A54.9515 54.9515 0 0 0 261.0196 265.141L 206.0681 265.141 Z"/>
            <circle fill="none" stroke-width="2.7476" r="54.9515" cx="206.0681"
                    cy="265.141"/>
            <text x="90.2569" xml:space="preserve" y="185.238" stroke="none">0 0.250</text><text x="91.5058"
                  xml:space="preserve" y="144.0244" stroke="none">1 0.250</text><text x="90.0407"
                  xml:space="preserve" y="102.8107" stroke="none">2 0.250</text><text x="90.2569"
                  xml:space="preserve" y="61.5971" stroke="none">3 0.250</text><path fill="none"
                  d="M296 145.659 L295.3643 145.659 L291.243 145.659 C284.4145 145.659 278.8789 151.1946 278.8789 158.0231 L278.8789 166.2658 L278.8789 501.3949 L278.8789 509.6376 C278.8789 516.4661 284.4145 522.0016 291.243 522.0016 L295.3643 522.0016 L296 522.0016"
                  stroke-width="8.2427" stroke-linecap="butt"
                  stroke-linejoin="bevel"/>
            <path d="M295.3643 141.5377 L2534.6379 141.5377 L2534.6379 149.7804 L295.3643 149.7804 Z"
                  stroke="none"/>
            <text font-style="italic" x="2548.3757" xml:space="preserve"
                  font-size="55" y="161.3143" stroke="none">outgroup</text><path d="M295.3643 517.8803 L543 517.8803 L543 526.123 L295.3643 526.123 Z"
                  stroke="none"/>
            <text x="309.1022" xml:space="preserve" y="458.5841" stroke="none"></text>
            <text x="336.5779" xml:space="preserve" y="458.5841" stroke="none"></text>
            <text x="364.0537" xml:space="preserve" y="458.5841" stroke="none"></text>
            <text x="391.5294" xml:space="preserve" y="458.5841" stroke="none"></text>
            <path fill="blue"
                  d="M528.9082 449.1909 A54.9515 54.9515 0 0 0 473.9567 394.2394L 473.9567 449.1909 Z"
                  stroke-width="2.7476" stroke="none"/>
            <path fill="none" stroke-width="2.7476"
                  d="M528.9082 449.1909 A54.9515 54.9515 0 0 0 473.9567 394.2394L 473.9567 449.1909 Z"/>
            <path fill="lime"
                  d="M473.9567 394.2394 A54.9515 54.9515 0 0 0 419.0052 449.1909L 473.9567 449.1909 Z"
                  stroke-width="2.7476" stroke="none"/>
            <path fill="none" stroke-width="2.7476"
                  d="M473.9567 394.2394 A54.9515 54.9515 0 0 0 419.0052 449.1909L 473.9567 449.1909 Z"/>
            <path fill="red"
                  d="M419.0052 449.1909 A54.9515 54.9515 0 0 0 473.9567 504.1424L 473.9567 449.1909 Z"
                  stroke-width="2.7476" stroke="none"/>
            <path fill="none" stroke-width="2.7476"
                  d="M419.0052 449.1909 A54.9515 54.9515 0 0 0 473.9567 504.1424L 473.9567 449.1909 Z"/>
            <path fill="yellow"
                  d="M473.9567 504.1424 A54.9515 54.9515 0 0 0 528.9082 449.1909L 473.9567 449.1909 Z"
                  stroke-width="2.7476" stroke="none"/>
            <path fill="none" stroke-width="2.7476"
                  d="M473.9567 504.1424 A54.9515 54.9515 0 0 0 528.9082 449.1909L 473.9567 449.1909 Z"/>
            <circle fill="none" stroke-width="2.7476" r="54.9515" cx="473.9567"
                    cy="449.1909"/>
            <text x="358.1454" xml:space="preserve" y="369.2879" stroke="none">0 0.250</text><text x="359.3943"
                  xml:space="preserve" y="328.0743" stroke="none">1 0.250</text><text x="357.9293"
                  xml:space="preserve" y="286.8607" stroke="none">2 0.250</text><text x="358.1454"
                  xml:space="preserve" y="245.6471" stroke="none">3 0.250</text><path fill="none"
                  d="M564 222.5911 L563.2528 222.5911 L559.1315 222.5911 C552.303 222.5911 546.7674 228.1267 546.7674 234.9552 L546.7674 243.198 L546.7674 800.8054 L546.7674 809.0482 C546.7674 815.8766 552.303 821.4122 559.1315 821.4122 L563.2528 821.4122 L564 821.4122"
                  stroke-width="8.2427" stroke-linecap="butt"
                  stroke-linejoin="bevel"/>
            <path d="M563.2529 218.4698 L2534.6379 218.4698 L2534.6379 226.7125 L563.2529 226.7125 Z"
                  stroke="none"/>
            <text font-style="italic" x="2548.3757" xml:space="preserve"
                  font-size="55" y="238.2464" stroke="none">taxonI</text><path d="M563.2529 817.2909 L811 817.2909 L811 825.5336 L563.2529 825.5336 Z"
                  stroke="none"/>
            <text x="576.9907" xml:space="preserve" y="757.9947" stroke="none"></text>
            <text x="604.4665" xml:space="preserve" y="757.9947" stroke="none"></text>
            <text x="631.9423" xml:space="preserve" y="757.9947" stroke="none"></text>
            <text x="659.418" xml:space="preserve" y="757.9947" stroke="none"></text>
            <path fill="blue"
                  d="M796.7967 748.6015 A54.9515 54.9515 0 0 0 741.8452 693.65L 741.8452 748.6015 Z"
                  stroke-width="2.7476" stroke="none"/>
            <path fill="none" stroke-width="2.7476"
                  d="M796.7967 748.6015 A54.9515 54.9515 0 0 0 741.8452 693.65L 741.8452 748.6015 Z"/>
            <path fill="lime"
                  d="M741.8452 693.65 A54.9515 54.9515 0 0 0 686.8937 748.6015L 741.8452 748.6015 Z"
                  stroke-width="2.7476" stroke="none"/>
            <path fill="none" stroke-width="2.7476"
                  d="M741.8452 693.65 A54.9515 54.9515 0 0 0 686.8937 748.6015L 741.8452 748.6015 Z"/>
            <path fill="red"
                  d="M686.8937 748.6015 A54.9515 54.9515 0 0 0 741.8452 803.553L 741.8452 748.6015 Z"
                  stroke-width="2.7476" stroke="none"/>
            <path fill="none" stroke-width="2.7476"
                  d="M686.8937 748.6015 A54.9515 54.9515 0 0 0 741.8452 803.553L 741.8452 748.6015 Z"/>
            <path fill="yellow"
                  d="M741.8452 803.553 A54.9515 54.9515 0 0 0 796.7967 748.6015L 741.8452 748.6015 Z"
                  stroke-width="2.7476" stroke="none"/>
            <path fill="none" stroke-width="2.7476"
                  d="M741.8452 803.553 A54.9515 54.9515 0 0 0 796.7967 748.6015L 741.8452 748.6015 Z"/>
            <circle fill="none" stroke-width="2.7476" r="54.9515" cx="741.8452"
                    cy="748.6015"/>
            <text x="626.034" xml:space="preserve" y="668.6985" stroke="none">0 0.250</text><text x="627.2829"
                  xml:space="preserve" y="627.4849" stroke="none">1 0.250</text><text x="625.8179"
                  xml:space="preserve" y="586.2712" stroke="none">2 0.250</text><text x="626.034"
                  xml:space="preserve" y="545.0576" stroke="none">3 0.250</text><path fill="none"
                  d="M832 542.6837 L831.1414 542.6837 L827.02 542.6837 C820.1915 542.6837 814.6559 548.2192 814.6559 555.0477 L814.6559 563.2905 L814.6559 1079.5341 L814.6559 1087.7769 C814.6559 1094.6053 820.1915 1100.1409 827.02 1100.1409 L831.1414 1100.1409 L832 1100.1409"
                  stroke-width="8.2427" stroke-linecap="butt"
                  stroke-linejoin="bevel"/>
            <path d="M831.1414 538.5623 L2247 538.5623 L2247 546.8049 L831.1414 546.8049 Z"
                  stroke="none"/>
            <text x="1456.2147" xml:space="preserve" y="479.2661" stroke="none"></text>
            <text x="1483.6906" xml:space="preserve" y="479.2661" stroke="none"></text>
            <path fill="blue"
                  d="M1621.0693 469.8729 A54.9515 54.9515 0 1 0 1573.3474 524.3468L 1566.1178 469.8729 Z"
                  stroke-width="2.7476" stroke="none"/>
            <path fill="none" stroke-width="2.7476"
                  d="M1621.0693 469.8729 A54.9515 54.9515 0 1 0 1573.3474 524.3468L 1566.1178 469.8729 Z"/>
            <path fill="yellow"
                  d="M1573.3474 524.3468 A54.9515 54.9515 0 0 0 1621.0693 469.8729L 1566.1178 469.8729 Z"
                  stroke-width="2.7476" stroke="none"/>
            <path fill="none" stroke-width="2.7476"
                  d="M1573.3474 524.3468 A54.9515 54.9515 0 0 0 1621.0693 469.8729L 1566.1178 469.8729 Z"/>
            <circle fill="none" stroke-width="2.7476" r="54.9515" cx="1566.1178"
                    cy="469.8729"/>
            <text x="1480.28" xml:space="preserve" y="389.9699" stroke="none">0 0.771</text><text x="1477.7102"
                  xml:space="preserve" y="348.7563" stroke="none">3 0.229</text><path fill="none"
                  d="M2267 484.9846 L2266.7493 484.9846 L2262.6279 484.9846 C2255.7996 484.9846 2250.2639 490.5201 2250.2639 497.3486 L2250.2639 505.5914 L2250.2639 579.7759 L2250.2639 588.0186 C2250.2639 594.8471 2255.7996 600.3827 2262.6279 600.3827 L2266.7493 600.3827 L2267 600.3827"
                  stroke-width="8.2427" stroke-linecap="butt"
                  stroke-linejoin="bevel"/>
            <path d="M2266.7493 480.8632 L2460 480.8632 L2460 489.1059 L2266.7493 489.1059 Z"
                  stroke="none"/>
            <text x="2280.4873" xml:space="preserve" y="421.567" stroke="none"></text>
            <text x="2307.9629" xml:space="preserve" y="421.567" stroke="none"></text>
            <path fill="blue"
                  d="M2445.3417 412.1738 A54.9515 54.9515 0 1 0 2341.2723 436.8132L 2390.3902 412.1738 Z"
                  stroke-width="2.7476" stroke="none"/>
            <path fill="none" stroke-width="2.7476"
                  d="M2445.3417 412.1738 A54.9515 54.9515 0 1 0 2341.2723 436.8132L 2390.3902 412.1738 Z"/>
            <path fill="yellow"
                  d="M2341.2723 436.8132 A54.9515 54.9515 0 0 0 2445.3417 412.1738L 2390.3902 412.1738 Z"
                  stroke-width="2.7476" stroke="none"/>
            <path fill="none" stroke-width="2.7476"
                  d="M2341.2723 436.8132 A54.9515 54.9515 0 0 0 2445.3417 412.1738L 2390.3902 412.1738 Z"/>
            <circle fill="none" stroke-width="2.7476" r="54.9515" cx="2390.3902"
                    cy="412.1738"/>
            <text x="2302.0547" xml:space="preserve" y="332.2708" stroke="none">0 0.574</text><text x="2302.0068"
                  xml:space="preserve" y="291.0572" stroke="none">3 0.426</text><path fill="none"
                  d="M2480 446.5185 L2479.6863 446.5185 L2475.5649 446.5185 C2468.7366 446.5185 2463.2009 452.0541 2463.2009 458.8826 L2463.2009 467.1253 L2463.2009 502.8438 L2463.2009 511.0865 C2463.2009 517.915 2468.7366 523.4506 2475.5649 523.4506 L2479.6863 523.4506 L2480 523.4506"
                  stroke-width="8.2427" stroke-linecap="butt"
                  stroke-linejoin="bevel"/>
            <path d="M2479.6865 442.3972 L2534.6379 442.3972 L2534.6379 450.6399 L2479.6865 450.6399 Z"
                  stroke="none"/>
            <text font-style="italic" x="2548.3757" xml:space="preserve"
                  font-size="55" y="462.1738" stroke="none">taxonL</text><path d="M2479.6865 519.3292 L2534.6379 519.3292 L2534.6379 527.5719 L2479.6865 527.5719 Z"
                  stroke="none"/>
            <text font-style="italic" x="2548.3757" xml:space="preserve"
                  font-size="55" y="539.106" stroke="none">taxonM</text><path d="M2266.7493 596.2613 L2534.6377 596.2613 L2534.6377 604.504 L2266.7493 604.504 Z"
                  stroke="none"/>
            <text font-style="italic" x="2548.3757" xml:space="preserve"
                  font-size="55" y="616.038" stroke="none">taxonA</text><path d="M831.1414 1096.0194 L1079 1096.0194 L1079 1104.2621 L831.1414 1104.2621 Z"
                  stroke="none"/>
            <text x="844.8793" xml:space="preserve" y="1036.7231" stroke="none"></text>
            <text x="872.355" xml:space="preserve" y="1036.7231" stroke="none"></text>
            <text x="899.8308" xml:space="preserve" y="1036.7231" stroke="none"></text>
            <text x="927.3066" xml:space="preserve" y="1036.7231" stroke="none"></text>
            <path fill="blue"
                  d="M1064.6853 1027.33 A54.9515 54.9515 0 0 0 1003.5322 972.7296L 1009.7338 1027.33 Z"
                  stroke-width="2.7476" stroke="none"/>
            <path fill="none" stroke-width="2.7476"
                  d="M1064.6853 1027.33 A54.9515 54.9515 0 0 0 1003.5322 972.7296L 1009.7338 1027.33 Z"/>
            <path fill="lime"
                  d="M1003.5322 972.7296 A54.9515 54.9515 0 0 0 957.5795 1044.639L 1009.7338 1027.33 Z"
                  stroke-width="2.7476" stroke="none"/>
            <path fill="none" stroke-width="2.7476"
                  d="M1003.5322 972.7296 A54.9515 54.9515 0 0 0 957.5795 1044.639L 1009.7338 1027.33 Z"/>
            <path fill="red"
                  d="M957.5795 1044.639 A54.9515 54.9515 0 0 0 1037.4086 1074.8039L 1009.7338 1027.33 Z"
                  stroke-width="2.7476" stroke="none"/>
            <path fill="none" stroke-width="2.7476"
                  d="M957.5795 1044.639 A54.9515 54.9515 0 0 0 1037.4086 1074.8039L 1009.7338 1027.33 Z"/>
            <path fill="yellow"
                  d="M1037.4086 1074.8039 A54.9515 54.9515 0 0 0 1064.6853 1027.3301L 1009.7338 1027.33 Z"
                  stroke-width="2.7476" stroke="none"/>
            <path fill="none" stroke-width="2.7476"
                  d="M1037.4086 1074.8039 A54.9515 54.9515 0 0 0 1064.6853 1027.3301L 1009.7338 1027.33 Z"/>
            <circle fill="none" stroke-width="2.7476" r="54.9515" cx="1009.7338"
                    cy="1027.33"/>
            <text x="893.8505" xml:space="preserve" y="947.427" stroke="none">0 0.268</text><text x="895.1234"
                  xml:space="preserve" y="906.2134" stroke="none">1 0.283</text><text x="893.6583"
                  xml:space="preserve" y="864.9998" stroke="none">2 0.283</text><text x="893.8746"
                  xml:space="preserve" y="823.7861" stroke="none">3 0.166</text><path fill="none"
                  d="M1100 677.3148 L1099.03 677.3148 L1094.9087 677.3148 C1088.0802 677.3148 1082.5446 682.8504 1082.5446 689.6789 L1082.5446 697.9216 L1082.5446 1502.3601 L1082.5446 1510.6029 C1082.5446 1517.4314 1088.0802 1522.9669 1094.9087 1522.9669 L1099.03 1522.9669 L1100 1522.9669"
                  stroke-width="8.2427" stroke-linecap="butt"
                  stroke-linejoin="bevel"/>
            <path d="M1099.03 673.1934 L2534.6379 673.1934 L2534.6379 681.4361 L1099.03 681.4361 Z"
                  stroke="none"/>
            <text font-style="italic" x="2548.3757" xml:space="preserve"
                  font-size="55" y="692.9701" stroke="none">taxonB</text><path d="M1099.03 1518.8455 L1347 1518.8455 L1347 1527.0881 L1099.03 1527.0881 Z"
                  stroke="none"/>
            <text x="1112.7678" xml:space="preserve" y="1459.5493" stroke="none"></text>
            <text x="1140.2437" xml:space="preserve" y="1459.5493" stroke="none"></text>
            <text x="1167.7194" xml:space="preserve" y="1459.5493" stroke="none"></text>
            <text x="1195.1951" xml:space="preserve" y="1459.5493" stroke="none"></text>
            <path fill="blue"
                  d="M1332.5739 1450.1561 A54.9515 54.9515 0 0 0 1282.7938 1395.4485L 1277.6224 1450.1561 Z"
                  stroke-width="2.7476" stroke="none"/>
            <path fill="none" stroke-width="2.7476"
                  d="M1332.5739 1450.1561 A54.9515 54.9515 0 0 0 1282.7938 1395.4485L 1277.6224 1450.1561 Z"/>
            <path fill="lime"
                  d="M1282.7938 1395.4485 A54.9515 54.9515 0 0 0 1228.5045 1474.7954L 1277.6224 1450.1561 Z"
                  stroke-width="2.7476" stroke="none"/>
            <path fill="none" stroke-width="2.7476"
                  d="M1282.7938 1395.4485 A54.9515 54.9515 0 0 0 1228.5045 1474.7954L 1277.6224 1450.1561 Z"/>
            <path fill="red"
                  d="M1228.5045 1474.7954 A54.9515 54.9515 0 0 0 1324.5662 1478.7208L 1277.6224 1450.1561 Z"
                  stroke-width="2.7476" stroke="none"/>
            <path fill="none" stroke-width="2.7476"
                  d="M1228.5045 1474.7954 A54.9515 54.9515 0 0 0 1324.5662 1478.7208L 1277.6224 1450.1561 Z"/>
            <path fill="yellow"
                  d="M1324.5662 1478.7208 A54.9515 54.9515 0 0 0 1332.5739 1450.1561L 1277.6224 1450.1561 Z"
                  stroke-width="2.7476" stroke="none"/>
            <path fill="none" stroke-width="2.7476"
                  d="M1324.5662 1478.7208 A54.9515 54.9515 0 0 0 1332.5739 1450.1561L 1277.6224 1450.1561 Z"/>
            <circle fill="none" stroke-width="2.7476" r="54.9515" cx="1277.6224"
                    cy="1450.1561"/>
            <text x="1161.667" xml:space="preserve" y="1370.2531" stroke="none">0 0.235</text><text x="1162.9879"
                  xml:space="preserve" y="1329.0394" stroke="none">1 0.339</text><text x="1161.5229"
                  xml:space="preserve" y="1287.8258" stroke="none">2 0.339</text><text x="1161.7632"
                  xml:space="preserve" y="1246.6122" stroke="none">3 0.087</text><path fill="none"
                  d="M1367 1387.7347 L1366.9186 1387.7347 L1362.7972 1387.7347 C1355.9688 1387.7347 1350.4331 1393.2704 1350.4331 1400.0989 L1350.4331 1408.3416 L1350.4331 1637.5923 L1350.4331 1645.8351 C1350.4331 1652.6636 1355.9688 1658.1991 1362.7972 1658.1991 L1366.9186 1658.1991 L1367 1658.1991"
                  stroke-width="8.2427" stroke-linecap="butt"
                  stroke-linejoin="bevel"/>
            <path d="M1366.9186 1383.6133 L1532 1383.6133 L1532 1391.856 L1366.9186 1391.856 Z"
                  stroke="none"/>
            <text x="1380.6565" xml:space="preserve" y="1324.3171" stroke="none"></text>
            <circle fill="lime" stroke-width="2.7476" r="54.9515" cx="1463.0837"
                    cy="1314.9239" stroke="none"/>
            <circle fill="none" stroke-width="2.7476" r="54.9515" cx="1463.0837"
                    cy="1314.9239"/>
            <text x="1389.735" xml:space="preserve" y="1235.0209" stroke="none">1 1.000</text><path fill="none"
                  d="M1553 1194.2024 L1552.3799 1194.2024 L1548.2585 1194.2024 C1541.4301 1194.2024 1535.8944 1199.738 1535.8944 1206.5665 L1535.8944 1214.8092 L1535.8944 1560.6603 L1535.8944 1568.903 C1535.8944 1575.7314 1541.4301 1581.267 1548.2585 1581.267 L1552.3799 1581.267 L1553 1581.267"
                  stroke-width="8.2427" stroke-linecap="butt"
                  stroke-linejoin="bevel"/>
            <path d="M1552.3799 1190.0809 L1718 1190.0809 L1718 1198.3236 L1552.3799 1198.3236 Z"
                  stroke="none"/>
            <text x="1566.1178" xml:space="preserve" y="1130.7848" stroke="none"></text>
            <circle fill="lime" stroke-width="2.7476" r="54.9515" cx="1648.545"
                    cy="1121.3916" stroke="none"/>
            <circle fill="none" stroke-width="2.7476" r="54.9515" cx="1648.545"
                    cy="1121.3916"/>
            <text x="1575.1963" xml:space="preserve" y="1041.4885" stroke="none">1 1.000</text><path fill="none"
                  d="M1738 956.1937 L1737.8412 956.1937 L1733.7198 956.1937 C1726.8914 956.1937 1721.3557 961.7293 1721.3557 968.5578 L1721.3557 976.8005 L1721.3557 1411.6042 L1721.3557 1419.847 C1721.3557 1426.6755 1726.8914 1432.2111 1733.7198 1432.2111 L1737.8412 1432.2111 L1738 1432.2111"
                  stroke-width="8.2427" stroke-linecap="butt"
                  stroke-linejoin="bevel"/>
            <path d="M1737.8412 952.0723 L2274 952.0723 L2274 960.315 L1737.8412 960.315 Z"
                  stroke="none"/>
            <text x="1937.0404" xml:space="preserve" y="892.7761" stroke="none"></text>
            <circle fill="lime" stroke-width="2.7476" r="54.9515" cx="2019.4676"
                    cy="883.3829" stroke="none"/>
            <circle fill="none" stroke-width="2.7476" r="54.9515" cx="2019.4676"
                    cy="883.3829"/>
            <text x="1946.1189" xml:space="preserve" y="803.4799" stroke="none">1 1.000</text><path fill="none"
                  d="M2295 898.4947 L2294.2251 898.4947 L2290.1038 898.4947 C2283.2754 898.4947 2277.7397 904.0303 2277.7397 910.8588 L2277.7397 919.1015 L2277.7397 993.286 L2277.7397 1001.5287 C2277.7397 1008.3572 2283.2754 1013.8928 2290.1038 1013.8928 L2294.2251 1013.8928 L2295 1013.8928"
                  stroke-width="8.2427" stroke-linecap="butt"
                  stroke-linejoin="bevel"/>
            <path d="M2294.2251 894.3733 L2460 894.3733 L2460 902.616 L2294.2251 902.616 Z"
                  stroke="none"/>
            <text x="2307.9629" xml:space="preserve" y="835.0771" stroke="none"></text>
            <circle fill="lime" stroke-width="2.7476" r="54.9515" cx="2390.3902"
                    cy="825.6839" stroke="none"/>
            <circle fill="none" stroke-width="2.7476" r="54.9515" cx="2390.3902"
                    cy="825.6839"/>
            <text x="2317.0415" xml:space="preserve" y="745.7809" stroke="none">1 1.000</text><path fill="none"
                  d="M2480 860.0286 L2479.6863 860.0286 L2475.5649 860.0286 C2468.7366 860.0286 2463.2009 865.5642 2463.2009 872.3927 L2463.2009 880.6354 L2463.2009 916.3539 L2463.2009 924.5966 C2463.2009 931.4251 2468.7366 936.9607 2475.5649 936.9607 L2479.6863 936.9607 L2480 936.9607"
                  stroke-width="8.2427" stroke-linecap="butt"
                  stroke-linejoin="bevel"/>
            <path d="M2479.6865 855.9073 L2534.6379 855.9073 L2534.6379 864.15 L2479.6865 864.15 Z"
                  stroke="none"/>
            <text font-style="italic" x="2548.3757" xml:space="preserve"
                  font-size="55" y="875.684" stroke="none">taxonG</text><path d="M2479.6865 932.8394 L2534.6379 932.8394 L2534.6379 941.082 L2479.6865 941.082 Z"
                  stroke="none"/>
            <text font-style="italic" x="2548.3757" xml:space="preserve"
                  font-size="55" y="952.616" stroke="none">taxonE</text><path d="M2294.2251 1009.7714 L2534.6379 1009.7714 L2534.6379 1018.0141 L2294.2251 1018.0141 Z"
                  stroke="none"/>
            <text font-style="italic" x="2548.3757" xml:space="preserve"
                  font-size="55" y="1029.5481" stroke="none">taxonD</text><path d="M1737.8412 1428.0897 L1903 1428.0897 L1903 1436.3324 L1737.8412 1436.3324 Z"
                  stroke="none"/>
            <text x="1751.5791" xml:space="preserve" y="1368.7935" stroke="none"></text>
            <circle fill="lime" stroke-width="2.7476" r="54.9515" cx="1834.0063"
                    cy="1359.4004" stroke="none"/>
            <circle fill="none" stroke-width="2.7476" r="54.9515" cx="1834.0063"
                    cy="1359.4004"/>
            <text x="1760.6576" xml:space="preserve" y="1279.4973" stroke="none">1 1.000</text><path fill="none"
                  d="M1924 1360.0873 L1923.3025 1360.0873 L1919.1812 1360.0873 C1912.3527 1360.0873 1906.817 1365.6229 1906.817 1372.4514 L1906.817 1380.6941 L1906.817 1483.7281 L1906.817 1491.9709 C1906.817 1498.7994 1912.3527 1504.335 1919.1812 1504.335 L1923.3025 1504.335 L1924 1504.335"
                  stroke-width="8.2427" stroke-linecap="butt"
                  stroke-linejoin="bevel"/>
            <path d="M1923.3025 1355.9658 L2089 1355.9658 L2089 1364.2085 L1923.3025 1364.2085 Z"
                  stroke="none"/>
            <text x="1937.0404" xml:space="preserve" y="1296.6697" stroke="none"></text>
            <circle fill="lime" stroke-width="2.7476" r="54.9515" cx="2019.4676"
                    cy="1287.2765" stroke="none"/>
            <circle fill="none" stroke-width="2.7476" r="54.9515" cx="2019.4676"
                    cy="1287.2765"/>
            <text x="1946.1189" xml:space="preserve" y="1207.3734" stroke="none">1 1.000</text><path fill="none"
                  d="M2109 1292.7716 L2108.7637 1292.7716 L2104.6423 1292.7716 C2097.814 1292.7716 2092.2783 1298.3073 2092.2783 1305.1357 L2092.2783 1313.3784 L2092.2783 1406.796 L2092.2783 1415.0388 C2092.2783 1421.8673 2097.814 1427.4028 2104.6423 1427.4028 L2108.7637 1427.4028 L2109 1427.4028"
                  stroke-width="8.2427" stroke-linecap="butt"
                  stroke-linejoin="bevel"/>
            <path d="M2108.7639 1288.6503 L2274 1288.6503 L2274 1296.8929 L2108.7639 1296.8929 Z"
                  stroke="none"/>
            <text x="2122.5017" xml:space="preserve" y="1229.354" stroke="none"></text>
            <circle fill="lime" stroke-width="2.7476" r="54.9515" cx="2204.929"
                    cy="1219.9609" stroke="none"/>
            <circle fill="none" stroke-width="2.7476" r="54.9515" cx="2204.929"
                    cy="1219.9609"/>
            <text x="2131.5803" xml:space="preserve" y="1140.0579" stroke="none">1 1.000</text><path fill="none"
                  d="M2295 1235.0726 L2294.2251 1235.0726 L2290.1038 1235.0726 C2283.2754 1235.0726 2277.7397 1240.6083 2277.7397 1247.4368 L2277.7397 1255.6794 L2277.7397 1329.864 L2277.7397 1338.1068 C2277.7397 1344.9353 2283.2754 1350.4708 2290.1038 1350.4708 L2294.2251 1350.4708 L2295 1350.4708"
                  stroke-width="8.2427" stroke-linecap="butt"
                  stroke-linejoin="bevel"/>
            <path d="M2294.2251 1230.9512 L2460 1230.9512 L2460 1239.1938 L2294.2251 1239.1938 Z"
                  stroke="none"/>
            <text x="2307.9629" xml:space="preserve" y="1171.655" stroke="none"></text>
            <circle fill="lime" stroke-width="2.7476" r="54.9515" cx="2390.3902"
                    cy="1162.2618" stroke="none"/>
            <circle fill="none" stroke-width="2.7476" r="54.9515" cx="2390.3902"
                    cy="1162.2618"/>
            <text x="2317.0415" xml:space="preserve" y="1082.3589" stroke="none">1 1.000</text><path fill="none"
                  d="M2480 1196.6066 L2479.6863 1196.6066 L2475.5649 1196.6066 C2468.7366 1196.6066 2463.2009 1202.1422 2463.2009 1208.9707 L2463.2009 1217.2134 L2463.2009 1252.9319 L2463.2009 1261.1747 C2463.2009 1268.0032 2468.7366 1273.5387 2475.5649 1273.5387 L2479.6863 1273.5387 L2480 1273.5387"
                  stroke-width="8.2427" stroke-linecap="butt"
                  stroke-linejoin="bevel"/>
            <path d="M2479.6865 1192.4851 L2534.6379 1192.4851 L2534.6379 1200.7278 L2479.6865 1200.7278 Z"
                  stroke="none"/>
            <text font-style="italic" x="2548.3757" xml:space="preserve"
                  font-size="55" y="1212.2617" stroke="none">taxonJ</text><path d="M2479.6865 1269.4172 L2534.6379 1269.4172 L2534.6379 1277.6599 L2479.6865 1277.6599 Z"
                  stroke="none"/>
            <text font-style="italic" x="2548.3757" xml:space="preserve"
                  font-size="55" y="1289.194" stroke="none">taxonH</text><path d="M2294.2251 1346.3494 L2534.6379 1346.3494 L2534.6379 1354.592 L2294.2251 1354.592 Z"
                  stroke="none"/>
            <text font-style="italic" x="2548.3757" xml:space="preserve"
                  font-size="55" y="1366.126" stroke="none">taxonO</text><path d="M2108.7639 1423.2815 L2534.6379 1423.2815 L2534.6379 1431.5242 L2108.7639 1431.5242 Z"
                  stroke="none"/>
            <text font-style="italic" x="2548.3757" xml:space="preserve"
                  font-size="55" y="1443.0581" stroke="none">taxonC</text><path d="M1923.3025 1500.2136 L2534.6379 1500.2136 L2534.6379 1508.4563 L1923.3025 1508.4563 Z"
                  stroke="none"/>
            <text font-style="italic" x="2548.3757" xml:space="preserve"
                  font-size="55" y="1519.9902" stroke="none">taxonF</text><path d="M1552.3799 1577.1456 L2534.6379 1577.1456 L2534.6379 1585.3883 L1552.3799 1585.3883 Z"
                  stroke="none"/>
            <text font-style="italic" x="2548.3757" xml:space="preserve"
                  font-size="55" y="1596.9222" stroke="none">taxonK</text><path d="M1366.9186 1654.0778 L2534.6379 1654.0778 L2534.6379 1662.3204 L1366.9186 1662.3204 Z"
                  stroke="none"/>
            <text font-style="italic" x="2548.3757" xml:space="preserve"
                  font-size="55" y="1673.8545" stroke="none">taxonN</text>
        </g>
    </g>
</svg>
